<?xml version="1.0" encoding="utf-8" standalone="no"?>
<!DOCTYPE svg PUBLIC "-//W3C//DTD SVG 1.1//EN"
  "http://www.w3.org/Graphics/SVG/1.1/DTD/svg11.dtd">
<svg xmlns:xlink="http://www.w3.org/1999/xlink" width="472.552821pt" height="399.71625pt" viewBox="0 0 472.552821 399.71625" xmlns="http://www.w3.org/2000/svg" version="1.1">
 <metadata>
  <rdf:RDF xmlns:dc="http://purl.org/dc/elements/1.1/" xmlns:cc="http://creativecommons.org/ns#" xmlns:rdf="http://www.w3.org/1999/02/22-rdf-syntax-ns#">
   <cc:Work>
    <dc:type rdf:resource="http://purl.org/dc/dcmitype/StillImage"/>
    <dc:date>2022-12-02T00:44:01.378657</dc:date>
    <dc:format>image/svg+xml</dc:format>
    <dc:creator>
     <cc:Agent>
      <dc:title>Matplotlib v3.6.0, https://matplotlib.org/</dc:title>
     </cc:Agent>
    </dc:creator>
   </cc:Work>
  </rdf:RDF>
 </metadata>
 <defs>
  <style type="text/css">*{stroke-linejoin: round; stroke-linecap: butt}</style>
 </defs>
 <g id="figure_1">
  <g id="patch_1">
   <path d="M 0 399.71625 
L 472.552821 399.71625 
L 472.552821 0 
L 0 0 
L 0 399.71625 
z
" style="fill: none"/>
  </g>
  <g id="axes_1">
   <g id="patch_2">
    <path d="M 19.725 185.008696 
L 466.125 185.008696 
L 466.125 43.2 
L 19.725 43.2 
L 19.725 185.008696 
z
" style="fill: none"/>
   </g>
   <g id="matplotlib.axis_1">
    <g id="xtick_1">
     <g id="line2d_1">
      <defs>
       <path id="me1eb08a973" d="M 0 0 
L 0 3.5 
" style="stroke: #000000; stroke-width: 0.8"/>
      </defs>
      <g>
       <use xlink:href="#me1eb08a973" x="40.015909" y="185.008696" style="stroke: #000000; stroke-width: 0.8"/>
      </g>
     </g>
    </g>
    <g id="xtick_2">
     <g id="line2d_2">
      <g>
       <use xlink:href="#me1eb08a973" x="109.984561" y="185.008696" style="stroke: #000000; stroke-width: 0.8"/>
      </g>
     </g>
    </g>
    <g id="xtick_3">
     <g id="line2d_3">
      <g>
       <use xlink:href="#me1eb08a973" x="179.953213" y="185.008696" style="stroke: #000000; stroke-width: 0.8"/>
      </g>
     </g>
    </g>
    <g id="xtick_4">
     <g id="line2d_4">
      <g>
       <use xlink:href="#me1eb08a973" x="249.921865" y="185.008696" style="stroke: #000000; stroke-width: 0.8"/>
      </g>
     </g>
    </g>
    <g id="xtick_5">
     <g id="line2d_5">
      <g>
       <use xlink:href="#me1eb08a973" x="319.890517" y="185.008696" style="stroke: #000000; stroke-width: 0.8"/>
      </g>
     </g>
    </g>
    <g id="xtick_6">
     <g id="line2d_6">
      <g>
       <use xlink:href="#me1eb08a973" x="389.859169" y="185.008696" style="stroke: #000000; stroke-width: 0.8"/>
      </g>
     </g>
    </g>
    <g id="xtick_7">
     <g id="line2d_7">
      <g>
       <use xlink:href="#me1eb08a973" x="459.827821" y="185.008696" style="stroke: #000000; stroke-width: 0.8"/>
      </g>
     </g>
    </g>
   </g>
   <g id="matplotlib.axis_2">
    <g id="ytick_1">
     <g id="line2d_8">
      <defs>
       <path id="m497b52e5de" d="M 0 0 
L -3.5 0 
" style="stroke: #000000; stroke-width: 0.8"/>
      </defs>
      <g>
       <use xlink:href="#m497b52e5de" x="19.725" y="63.96996" style="stroke: #000000; stroke-width: 0.8"/>
      </g>
     </g>
     <g id="text_1">
      <!-- 2 -->
      <g transform="translate(6.3625 67.769179) scale(0.1 -0.1)">
       <defs>
        <path id="DejaVuSans-32" d="M 1228 531 
L 3431 531 
L 3431 0 
L 469 0 
L 469 531 
Q 828 903 1448 1529 
Q 2069 2156 2228 2338 
Q 2531 2678 2651 2914 
Q 2772 3150 2772 3378 
Q 2772 3750 2511 3984 
Q 2250 4219 1831 4219 
Q 1534 4219 1204 4116 
Q 875 4013 500 3803 
L 500 4441 
Q 881 4594 1212 4672 
Q 1544 4750 1819 4750 
Q 2544 4750 2975 4387 
Q 3406 4025 3406 3419 
Q 3406 3131 3298 2873 
Q 3191 2616 2906 2266 
Q 2828 2175 2409 1742 
Q 1991 1309 1228 531 
z
" transform="scale(0.015625)"/>
       </defs>
       <use xlink:href="#DejaVuSans-32"/>
      </g>
     </g>
    </g>
    <g id="ytick_2">
     <g id="line2d_9">
      <g>
       <use xlink:href="#m497b52e5de" x="19.725" y="92.618182" style="stroke: #000000; stroke-width: 0.8"/>
      </g>
     </g>
     <g id="text_2">
      <!-- 4 -->
      <g transform="translate(6.3625 96.417401) scale(0.1 -0.1)">
       <defs>
        <path id="DejaVuSans-34" d="M 2419 4116 
L 825 1625 
L 2419 1625 
L 2419 4116 
z
M 2253 4666 
L 3047 4666 
L 3047 1625 
L 3713 1625 
L 3713 1100 
L 3047 1100 
L 3047 0 
L 2419 0 
L 2419 1100 
L 313 1100 
L 313 1709 
L 2253 4666 
z
" transform="scale(0.015625)"/>
       </defs>
       <use xlink:href="#DejaVuSans-34"/>
      </g>
     </g>
    </g>
    <g id="ytick_3">
     <g id="line2d_10">
      <g>
       <use xlink:href="#m497b52e5de" x="19.725" y="121.266403" style="stroke: #000000; stroke-width: 0.8"/>
      </g>
     </g>
     <g id="text_3">
      <!-- 6 -->
      <g transform="translate(6.3625 125.065622) scale(0.1 -0.1)">
       <defs>
        <path id="DejaVuSans-36" d="M 2113 2584 
Q 1688 2584 1439 2293 
Q 1191 2003 1191 1497 
Q 1191 994 1439 701 
Q 1688 409 2113 409 
Q 2538 409 2786 701 
Q 3034 994 3034 1497 
Q 3034 2003 2786 2293 
Q 2538 2584 2113 2584 
z
M 3366 4563 
L 3366 3988 
Q 3128 4100 2886 4159 
Q 2644 4219 2406 4219 
Q 1781 4219 1451 3797 
Q 1122 3375 1075 2522 
Q 1259 2794 1537 2939 
Q 1816 3084 2150 3084 
Q 2853 3084 3261 2657 
Q 3669 2231 3669 1497 
Q 3669 778 3244 343 
Q 2819 -91 2113 -91 
Q 1303 -91 875 529 
Q 447 1150 447 2328 
Q 447 3434 972 4092 
Q 1497 4750 2381 4750 
Q 2619 4750 2861 4703 
Q 3103 4656 3366 4563 
z
" transform="scale(0.015625)"/>
       </defs>
       <use xlink:href="#DejaVuSans-36"/>
      </g>
     </g>
    </g>
    <g id="ytick_4">
     <g id="line2d_11">
      <g>
       <use xlink:href="#m497b52e5de" x="19.725" y="149.914625" style="stroke: #000000; stroke-width: 0.8"/>
      </g>
     </g>
     <g id="text_4">
      <!-- 8 -->
      <g transform="translate(6.3625 153.713843) scale(0.1 -0.1)">
       <defs>
        <path id="DejaVuSans-38" d="M 2034 2216 
Q 1584 2216 1326 1975 
Q 1069 1734 1069 1313 
Q 1069 891 1326 650 
Q 1584 409 2034 409 
Q 2484 409 2743 651 
Q 3003 894 3003 1313 
Q 3003 1734 2745 1975 
Q 2488 2216 2034 2216 
z
M 1403 2484 
Q 997 2584 770 2862 
Q 544 3141 544 3541 
Q 544 4100 942 4425 
Q 1341 4750 2034 4750 
Q 2731 4750 3128 4425 
Q 3525 4100 3525 3541 
Q 3525 3141 3298 2862 
Q 3072 2584 2669 2484 
Q 3125 2378 3379 2068 
Q 3634 1759 3634 1313 
Q 3634 634 3220 271 
Q 2806 -91 2034 -91 
Q 1263 -91 848 271 
Q 434 634 434 1313 
Q 434 1759 690 2068 
Q 947 2378 1403 2484 
z
M 1172 3481 
Q 1172 3119 1398 2916 
Q 1625 2713 2034 2713 
Q 2441 2713 2670 2916 
Q 2900 3119 2900 3481 
Q 2900 3844 2670 4047 
Q 2441 4250 2034 4250 
Q 1625 4250 1398 4047 
Q 1172 3844 1172 3481 
z
" transform="scale(0.015625)"/>
       </defs>
       <use xlink:href="#DejaVuSans-38"/>
      </g>
     </g>
    </g>
    <g id="ytick_5">
     <g id="line2d_12">
      <g>
       <use xlink:href="#m497b52e5de" x="19.725" y="178.562846" style="stroke: #000000; stroke-width: 0.8"/>
      </g>
     </g>
     <g id="text_5">
      <!-- 10 -->
      <g transform="translate(0 182.362065) scale(0.1 -0.1)">
       <defs>
        <path id="DejaVuSans-31" d="M 794 531 
L 1825 531 
L 1825 4091 
L 703 3866 
L 703 4441 
L 1819 4666 
L 2450 4666 
L 2450 531 
L 3481 531 
L 3481 0 
L 794 0 
L 794 531 
z
" transform="scale(0.015625)"/>
        <path id="DejaVuSans-30" d="M 2034 4250 
Q 1547 4250 1301 3770 
Q 1056 3291 1056 2328 
Q 1056 1369 1301 889 
Q 1547 409 2034 409 
Q 2525 409 2770 889 
Q 3016 1369 3016 2328 
Q 3016 3291 2770 3770 
Q 2525 4250 2034 4250 
z
M 2034 4750 
Q 2819 4750 3233 4129 
Q 3647 3509 3647 2328 
Q 3647 1150 3233 529 
Q 2819 -91 2034 -91 
Q 1250 -91 836 529 
Q 422 1150 422 2328 
Q 422 3509 836 4129 
Q 1250 4750 2034 4750 
z
" transform="scale(0.015625)"/>
       </defs>
       <use xlink:href="#DejaVuSans-31"/>
       <use xlink:href="#DejaVuSans-30" x="63.623047"/>
      </g>
     </g>
    </g>
   </g>
   <g id="line2d_13">
    <path d="M 40.015909 78.294071 
L 54.009639 78.294071 
L 68.00337 78.294071 
L 81.9971 78.294071 
L 95.990831 92.618182 
L 109.984561 92.618182 
L 123.978292 92.618182 
L 137.972022 78.294071 
L 151.965752 78.294071 
L 165.959483 92.618182 
L 179.953213 78.294071 
L 193.946944 92.618182 
L 207.940674 92.618182 
L 221.934404 78.294071 
L 235.928135 92.618182 
L 249.921865 92.618182 
L 263.915596 121.266403 
L 277.909326 121.266403 
L 291.903056 121.266403 
L 305.896787 121.266403 
L 319.890517 121.266403 
L 333.884248 121.266403 
L 347.877978 121.266403 
L 361.871708 121.266403 
L 375.865439 92.618182 
L 389.859169 92.618182 
L 403.8529 106.942292 
L 417.84663 92.618182 
L 431.840361 92.618182 
L 445.834091 92.618182 
" clip-path="url(#pcf32d19cce)" style="fill: none; stroke: #0039e3; stroke-width: 1.5; stroke-linecap: square"/>
   </g>
   <g id="line2d_14">
    <path d="M 40.015909 92.618182 
L 54.009639 92.618182 
L 68.00337 164.238735 
L 81.9971 178.562846 
L 95.990831 149.914625 
L 109.984561 164.238735 
L 123.978292 149.914625 
L 137.972022 121.266403 
L 151.965752 106.942292 
L 165.959483 178.562846 
L 179.953213 149.914625 
L 193.946944 135.590514 
L 207.940674 135.590514 
L 221.934404 121.266403 
L 235.928135 121.266403 
L 249.921865 121.266403 
L 263.915596 106.942292 
L 277.909326 106.942292 
L 291.903056 106.942292 
L 305.896787 92.618182 
L 319.890517 106.942292 
L 333.884248 92.618182 
L 347.877978 92.618182 
L 361.871708 92.618182 
L 375.865439 121.266403 
L 389.859169 106.942292 
L 403.8529 92.618182 
L 417.84663 121.266403 
L 431.840361 121.266403 
L 445.834091 121.266403 
" clip-path="url(#pcf32d19cce)" style="fill: none; stroke: #0055d4; stroke-width: 1.5; stroke-linecap: square"/>
   </g>
   <g id="line2d_15">
    <path d="M 40.015909 135.590514 
L 54.009639 135.590514 
L 68.00337 135.590514 
L 81.9971 135.590514 
L 95.990831 178.562846 
L 109.984561 178.562846 
L 123.978292 178.562846 
L 137.972022 178.562846 
L 151.965752 178.562846 
L 165.959483 164.238735 
L 179.953213 178.562846 
L 193.946944 178.562846 
L 207.940674 178.562846 
L 221.934404 178.562846 
L 235.928135 164.238735 
L 249.921865 135.590514 
L 263.915596 135.590514 
L 277.909326 135.590514 
L 291.903056 164.238735 
L 305.896787 149.914625 
L 319.890517 135.590514 
L 333.884248 135.590514 
L 347.877978 135.590514 
L 361.871708 135.590514 
L 375.865439 149.914625 
L 389.859169 135.590514 
L 403.8529 135.590514 
L 417.84663 135.590514 
L 431.840361 135.590514 
L 445.834091 135.590514 
" clip-path="url(#pcf32d19cce)" style="fill: none; stroke: #00aaaa; stroke-width: 1.5; stroke-linecap: square"/>
   </g>
   <g id="line2d_16">
    <path d="M 40.015909 149.914625 
L 54.009639 164.238735 
L 68.00337 178.562846 
L 81.9971 164.238735 
L 95.990831 164.238735 
L 109.984561 149.914625 
L 123.978292 164.238735 
L 137.972022 149.914625 
L 151.965752 135.590514 
L 165.959483 121.266403 
L 179.953213 106.942292 
L 193.946944 106.942292 
L 207.940674 149.914625 
L 221.934404 164.238735 
L 235.928135 135.590514 
L 249.921865 164.238735 
L 263.915596 149.914625 
L 277.909326 164.238735 
L 291.903056 135.590514 
L 305.896787 164.238735 
L 319.890517 178.562846 
L 333.884248 164.238735 
L 347.877978 164.238735 
L 361.871708 164.238735 
L 375.865439 164.238735 
L 389.859169 164.238735 
L 403.8529 149.914625 
L 417.84663 149.914625 
L 431.840361 164.238735 
L 445.834091 164.238735 
" clip-path="url(#pcf32d19cce)" style="fill: none; stroke: #00c69c; stroke-width: 1.5; stroke-linecap: square"/>
   </g>
   <g id="line2d_17">
    <path d="M 40.015909 49.64585 
L 54.009639 49.64585 
L 68.00337 49.64585 
L 81.9971 49.64585 
L 95.990831 49.64585 
L 109.984561 49.64585 
L 123.978292 49.64585 
L 137.972022 49.64585 
L 151.965752 49.64585 
L 165.959483 49.64585 
L 179.953213 49.64585 
L 193.946944 63.96996 
L 207.940674 63.96996 
L 221.934404 63.96996 
L 235.928135 63.96996 
L 249.921865 63.96996 
L 263.915596 63.96996 
L 277.909326 63.96996 
L 291.903056 63.96996 
L 305.896787 63.96996 
L 319.890517 63.96996 
L 333.884248 63.96996 
L 347.877978 63.96996 
L 361.871708 63.96996 
L 375.865439 63.96996 
L 389.859169 63.96996 
L 403.8529 63.96996 
L 417.84663 63.96996 
L 431.840361 63.96996 
L 445.834091 63.96996 
" clip-path="url(#pcf32d19cce)" style="fill: none; stroke: #0000ff; stroke-width: 1.5; stroke-linecap: square"/>
   </g>
   <g id="line2d_18">
    <path d="M 40.015909 164.238735 
L 54.009639 149.914625 
L 68.00337 121.266403 
L 81.9971 106.942292 
L 95.990831 106.942292 
L 109.984561 106.942292 
L 123.978292 135.590514 
L 137.972022 135.590514 
L 151.965752 121.266403 
L 165.959483 106.942292 
L 179.953213 121.266403 
L 193.946944 121.266403 
L 207.940674 106.942292 
L 221.934404 106.942292 
L 235.928135 106.942292 
L 249.921865 106.942292 
L 263.915596 92.618182 
L 277.909326 78.294071 
L 291.903056 78.294071 
L 305.896787 78.294071 
L 319.890517 78.294071 
L 333.884248 78.294071 
L 347.877978 78.294071 
L 361.871708 78.294071 
L 375.865439 78.294071 
L 389.859169 78.294071 
L 403.8529 78.294071 
L 417.84663 78.294071 
L 431.840361 78.294071 
L 445.834091 78.294071 
" clip-path="url(#pcf32d19cce)" style="fill: none; stroke: #00e38e; stroke-width: 1.5; stroke-linecap: square"/>
   </g>
   <g id="line2d_19">
    <path d="M 40.015909 106.942292 
L 54.009639 106.942292 
L 68.00337 92.618182 
L 81.9971 92.618182 
L 95.990831 78.294071 
L 109.984561 78.294071 
L 123.978292 78.294071 
L 137.972022 92.618182 
L 151.965752 92.618182 
L 165.959483 78.294071 
L 179.953213 92.618182 
L 193.946944 78.294071 
L 207.940674 78.294071 
L 221.934404 92.618182 
L 235.928135 78.294071 
L 249.921865 78.294071 
L 263.915596 78.294071 
L 277.909326 92.618182 
L 291.903056 92.618182 
L 305.896787 106.942292 
L 319.890517 92.618182 
L 333.884248 106.942292 
L 347.877978 106.942292 
L 361.871708 106.942292 
L 375.865439 106.942292 
L 389.859169 121.266403 
L 403.8529 121.266403 
L 417.84663 106.942292 
L 431.840361 106.942292 
L 445.834091 106.942292 
" clip-path="url(#pcf32d19cce)" style="fill: none; stroke: #0071c6; stroke-width: 1.5; stroke-linecap: square"/>
   </g>
   <g id="line2d_20">
    <path d="M 40.015909 121.266403 
L 54.009639 121.266403 
L 68.00337 106.942292 
L 81.9971 121.266403 
L 95.990831 121.266403 
L 109.984561 121.266403 
L 123.978292 106.942292 
L 137.972022 164.238735 
L 151.965752 164.238735 
L 165.959483 149.914625 
L 179.953213 135.590514 
L 193.946944 149.914625 
L 207.940674 121.266403 
L 221.934404 135.590514 
L 235.928135 178.562846 
L 249.921865 178.562846 
L 263.915596 178.562846 
L 277.909326 178.562846 
L 291.903056 178.562846 
L 305.896787 178.562846 
L 319.890517 164.238735 
L 333.884248 149.914625 
L 347.877978 149.914625 
L 361.871708 149.914625 
L 375.865439 135.590514 
L 389.859169 149.914625 
L 403.8529 164.238735 
L 417.84663 164.238735 
L 431.840361 149.914625 
L 445.834091 178.562846 
" clip-path="url(#pcf32d19cce)" style="fill: none; stroke: #008eb8; stroke-width: 1.5; stroke-linecap: square"/>
   </g>
   <g id="line2d_21">
    <path d="M 40.015909 178.562846 
L 54.009639 178.562846 
L 68.00337 149.914625 
L 81.9971 149.914625 
L 95.990831 135.590514 
L 109.984561 135.590514 
L 123.978292 121.266403 
L 137.972022 106.942292 
L 151.965752 149.914625 
L 165.959483 135.590514 
L 179.953213 164.238735 
L 193.946944 164.238735 
L 207.940674 164.238735 
L 221.934404 149.914625 
L 235.928135 149.914625 
L 249.921865 149.914625 
L 263.915596 164.238735 
L 277.909326 149.914625 
L 291.903056 149.914625 
L 305.896787 135.590514 
L 319.890517 149.914625 
L 333.884248 178.562846 
L 347.877978 178.562846 
L 361.871708 178.562846 
L 375.865439 178.562846 
L 389.859169 178.562846 
L 403.8529 178.562846 
L 417.84663 178.562846 
L 431.840361 178.562846 
L 445.834091 149.914625 
" clip-path="url(#pcf32d19cce)" style="fill: none; stroke: #00ff80; stroke-width: 1.5; stroke-linecap: square"/>
   </g>
   <g id="line2d_22">
    <path d="M 40.015909 63.96996 
L 54.009639 63.96996 
L 68.00337 63.96996 
L 81.9971 63.96996 
L 95.990831 63.96996 
L 109.984561 63.96996 
L 123.978292 63.96996 
L 137.972022 63.96996 
L 151.965752 63.96996 
L 165.959483 63.96996 
L 179.953213 63.96996 
L 193.946944 49.64585 
L 207.940674 49.64585 
L 221.934404 49.64585 
L 235.928135 49.64585 
L 249.921865 49.64585 
L 263.915596 49.64585 
L 277.909326 49.64585 
L 291.903056 49.64585 
L 305.896787 49.64585 
L 319.890517 49.64585 
L 333.884248 49.64585 
L 347.877978 49.64585 
L 361.871708 49.64585 
L 375.865439 49.64585 
L 389.859169 49.64585 
L 403.8529 49.64585 
L 417.84663 49.64585 
L 431.840361 49.64585 
L 445.834091 49.64585 
" clip-path="url(#pcf32d19cce)" style="fill: none; stroke: #001cf1; stroke-width: 1.5; stroke-linecap: square"/>
   </g>
   <g id="patch_3">
    <path d="M 19.725 185.008696 
L 19.725 43.2 
" style="fill: none; stroke: #000000; stroke-width: 0.8; stroke-linejoin: miter; stroke-linecap: square"/>
   </g>
   <g id="patch_4">
    <path d="M 466.125 185.008696 
L 466.125 43.2 
" style="fill: none; stroke: #000000; stroke-width: 0.8; stroke-linejoin: miter; stroke-linecap: square"/>
   </g>
   <g id="patch_5">
    <path d="M 19.725 185.008696 
L 466.125 185.008696 
" style="fill: none; stroke: #000000; stroke-width: 0.8; stroke-linejoin: miter; stroke-linecap: square"/>
   </g>
   <g id="patch_6">
    <path d="M 19.725 43.2 
L 466.125 43.2 
" style="fill: none; stroke: #000000; stroke-width: 0.8; stroke-linejoin: miter; stroke-linecap: square"/>
   </g>
   <g id="text_6">
    <!-- taxrate = 0.01 -->
    <g transform="translate(198.95625 37.2) scale(0.12 -0.12)">
     <defs>
      <path id="DejaVuSans-74" d="M 1172 4494 
L 1172 3500 
L 2356 3500 
L 2356 3053 
L 1172 3053 
L 1172 1153 
Q 1172 725 1289 603 
Q 1406 481 1766 481 
L 2356 481 
L 2356 0 
L 1766 0 
Q 1100 0 847 248 
Q 594 497 594 1153 
L 594 3053 
L 172 3053 
L 172 3500 
L 594 3500 
L 594 4494 
L 1172 4494 
z
" transform="scale(0.015625)"/>
      <path id="DejaVuSans-61" d="M 2194 1759 
Q 1497 1759 1228 1600 
Q 959 1441 959 1056 
Q 959 750 1161 570 
Q 1363 391 1709 391 
Q 2188 391 2477 730 
Q 2766 1069 2766 1631 
L 2766 1759 
L 2194 1759 
z
M 3341 1997 
L 3341 0 
L 2766 0 
L 2766 531 
Q 2569 213 2275 61 
Q 1981 -91 1556 -91 
Q 1019 -91 701 211 
Q 384 513 384 1019 
Q 384 1609 779 1909 
Q 1175 2209 1959 2209 
L 2766 2209 
L 2766 2266 
Q 2766 2663 2505 2880 
Q 2244 3097 1772 3097 
Q 1472 3097 1187 3025 
Q 903 2953 641 2809 
L 641 3341 
Q 956 3463 1253 3523 
Q 1550 3584 1831 3584 
Q 2591 3584 2966 3190 
Q 3341 2797 3341 1997 
z
" transform="scale(0.015625)"/>
      <path id="DejaVuSans-78" d="M 3513 3500 
L 2247 1797 
L 3578 0 
L 2900 0 
L 1881 1375 
L 863 0 
L 184 0 
L 1544 1831 
L 300 3500 
L 978 3500 
L 1906 2253 
L 2834 3500 
L 3513 3500 
z
" transform="scale(0.015625)"/>
      <path id="DejaVuSans-72" d="M 2631 2963 
Q 2534 3019 2420 3045 
Q 2306 3072 2169 3072 
Q 1681 3072 1420 2755 
Q 1159 2438 1159 1844 
L 1159 0 
L 581 0 
L 581 3500 
L 1159 3500 
L 1159 2956 
Q 1341 3275 1631 3429 
Q 1922 3584 2338 3584 
Q 2397 3584 2469 3576 
Q 2541 3569 2628 3553 
L 2631 2963 
z
" transform="scale(0.015625)"/>
      <path id="DejaVuSans-65" d="M 3597 1894 
L 3597 1613 
L 953 1613 
Q 991 1019 1311 708 
Q 1631 397 2203 397 
Q 2534 397 2845 478 
Q 3156 559 3463 722 
L 3463 178 
Q 3153 47 2828 -22 
Q 2503 -91 2169 -91 
Q 1331 -91 842 396 
Q 353 884 353 1716 
Q 353 2575 817 3079 
Q 1281 3584 2069 3584 
Q 2775 3584 3186 3129 
Q 3597 2675 3597 1894 
z
M 3022 2063 
Q 3016 2534 2758 2815 
Q 2500 3097 2075 3097 
Q 1594 3097 1305 2825 
Q 1016 2553 972 2059 
L 3022 2063 
z
" transform="scale(0.015625)"/>
      <path id="DejaVuSans-20" transform="scale(0.015625)"/>
      <path id="DejaVuSans-3d" d="M 678 2906 
L 4684 2906 
L 4684 2381 
L 678 2381 
L 678 2906 
z
M 678 1631 
L 4684 1631 
L 4684 1100 
L 678 1100 
L 678 1631 
z
" transform="scale(0.015625)"/>
      <path id="DejaVuSans-2e" d="M 684 794 
L 1344 794 
L 1344 0 
L 684 0 
L 684 794 
z
" transform="scale(0.015625)"/>
     </defs>
     <use xlink:href="#DejaVuSans-74"/>
     <use xlink:href="#DejaVuSans-61" x="39.208984"/>
     <use xlink:href="#DejaVuSans-78" x="100.488281"/>
     <use xlink:href="#DejaVuSans-72" x="159.667969"/>
     <use xlink:href="#DejaVuSans-61" x="200.78125"/>
     <use xlink:href="#DejaVuSans-74" x="262.060547"/>
     <use xlink:href="#DejaVuSans-65" x="301.269531"/>
     <use xlink:href="#DejaVuSans-20" x="362.792969"/>
     <use xlink:href="#DejaVuSans-3d" x="394.580078"/>
     <use xlink:href="#DejaVuSans-20" x="478.369141"/>
     <use xlink:href="#DejaVuSans-30" x="510.15625"/>
     <use xlink:href="#DejaVuSans-2e" x="573.779297"/>
     <use xlink:href="#DejaVuSans-30" x="605.566406"/>
     <use xlink:href="#DejaVuSans-31" x="669.189453"/>
    </g>
   </g>
  </g>
  <g id="axes_2">
   <g id="patch_7">
    <path d="M 19.725 369.36 
L 466.125 369.36 
L 466.125 227.551304 
L 19.725 227.551304 
L 19.725 369.36 
z
" style="fill: none"/>
   </g>
   <g id="matplotlib.axis_3">
    <g id="xtick_8">
     <g id="line2d_23">
      <g>
       <use xlink:href="#me1eb08a973" x="40.015909" y="369.36" style="stroke: #000000; stroke-width: 0.8"/>
      </g>
     </g>
     <g id="text_7">
      <!-- 5000 -->
      <g transform="translate(27.290909 383.958438) scale(0.1 -0.1)">
       <defs>
        <path id="DejaVuSans-35" d="M 691 4666 
L 3169 4666 
L 3169 4134 
L 1269 4134 
L 1269 2991 
Q 1406 3038 1543 3061 
Q 1681 3084 1819 3084 
Q 2600 3084 3056 2656 
Q 3513 2228 3513 1497 
Q 3513 744 3044 326 
Q 2575 -91 1722 -91 
Q 1428 -91 1123 -41 
Q 819 9 494 109 
L 494 744 
Q 775 591 1075 516 
Q 1375 441 1709 441 
Q 2250 441 2565 725 
Q 2881 1009 2881 1497 
Q 2881 1984 2565 2268 
Q 2250 2553 1709 2553 
Q 1456 2553 1204 2497 
Q 953 2441 691 2322 
L 691 4666 
z
" transform="scale(0.015625)"/>
       </defs>
       <use xlink:href="#DejaVuSans-35"/>
       <use xlink:href="#DejaVuSans-30" x="63.623047"/>
       <use xlink:href="#DejaVuSans-30" x="127.246094"/>
       <use xlink:href="#DejaVuSans-30" x="190.869141"/>
      </g>
     </g>
    </g>
    <g id="xtick_9">
     <g id="line2d_24">
      <g>
       <use xlink:href="#me1eb08a973" x="109.984561" y="369.36" style="stroke: #000000; stroke-width: 0.8"/>
      </g>
     </g>
     <g id="text_8">
      <!-- 5005 -->
      <g transform="translate(97.259561 383.958438) scale(0.1 -0.1)">
       <use xlink:href="#DejaVuSans-35"/>
       <use xlink:href="#DejaVuSans-30" x="63.623047"/>
       <use xlink:href="#DejaVuSans-30" x="127.246094"/>
       <use xlink:href="#DejaVuSans-35" x="190.869141"/>
      </g>
     </g>
    </g>
    <g id="xtick_10">
     <g id="line2d_25">
      <g>
       <use xlink:href="#me1eb08a973" x="179.953213" y="369.36" style="stroke: #000000; stroke-width: 0.8"/>
      </g>
     </g>
     <g id="text_9">
      <!-- 5010 -->
      <g transform="translate(167.228213 383.958438) scale(0.1 -0.1)">
       <use xlink:href="#DejaVuSans-35"/>
       <use xlink:href="#DejaVuSans-30" x="63.623047"/>
       <use xlink:href="#DejaVuSans-31" x="127.246094"/>
       <use xlink:href="#DejaVuSans-30" x="190.869141"/>
      </g>
     </g>
    </g>
    <g id="xtick_11">
     <g id="line2d_26">
      <g>
       <use xlink:href="#me1eb08a973" x="249.921865" y="369.36" style="stroke: #000000; stroke-width: 0.8"/>
      </g>
     </g>
     <g id="text_10">
      <!-- 5015 -->
      <g transform="translate(237.196865 383.958438) scale(0.1 -0.1)">
       <use xlink:href="#DejaVuSans-35"/>
       <use xlink:href="#DejaVuSans-30" x="63.623047"/>
       <use xlink:href="#DejaVuSans-31" x="127.246094"/>
       <use xlink:href="#DejaVuSans-35" x="190.869141"/>
      </g>
     </g>
    </g>
    <g id="xtick_12">
     <g id="line2d_27">
      <g>
       <use xlink:href="#me1eb08a973" x="319.890517" y="369.36" style="stroke: #000000; stroke-width: 0.8"/>
      </g>
     </g>
     <g id="text_11">
      <!-- 5020 -->
      <g transform="translate(307.165517 383.958438) scale(0.1 -0.1)">
       <use xlink:href="#DejaVuSans-35"/>
       <use xlink:href="#DejaVuSans-30" x="63.623047"/>
       <use xlink:href="#DejaVuSans-32" x="127.246094"/>
       <use xlink:href="#DejaVuSans-30" x="190.869141"/>
      </g>
     </g>
    </g>
    <g id="xtick_13">
     <g id="line2d_28">
      <g>
       <use xlink:href="#me1eb08a973" x="389.859169" y="369.36" style="stroke: #000000; stroke-width: 0.8"/>
      </g>
     </g>
     <g id="text_12">
      <!-- 5025 -->
      <g transform="translate(377.134169 383.958438) scale(0.1 -0.1)">
       <use xlink:href="#DejaVuSans-35"/>
       <use xlink:href="#DejaVuSans-30" x="63.623047"/>
       <use xlink:href="#DejaVuSans-32" x="127.246094"/>
       <use xlink:href="#DejaVuSans-35" x="190.869141"/>
      </g>
     </g>
    </g>
    <g id="xtick_14">
     <g id="line2d_29">
      <g>
       <use xlink:href="#me1eb08a973" x="459.827821" y="369.36" style="stroke: #000000; stroke-width: 0.8"/>
      </g>
     </g>
     <g id="text_13">
      <!-- 5030 -->
      <g transform="translate(447.102821 383.958438) scale(0.1 -0.1)">
       <defs>
        <path id="DejaVuSans-33" d="M 2597 2516 
Q 3050 2419 3304 2112 
Q 3559 1806 3559 1356 
Q 3559 666 3084 287 
Q 2609 -91 1734 -91 
Q 1441 -91 1130 -33 
Q 819 25 488 141 
L 488 750 
Q 750 597 1062 519 
Q 1375 441 1716 441 
Q 2309 441 2620 675 
Q 2931 909 2931 1356 
Q 2931 1769 2642 2001 
Q 2353 2234 1838 2234 
L 1294 2234 
L 1294 2753 
L 1863 2753 
Q 2328 2753 2575 2939 
Q 2822 3125 2822 3475 
Q 2822 3834 2567 4026 
Q 2313 4219 1838 4219 
Q 1578 4219 1281 4162 
Q 984 4106 628 3988 
L 628 4550 
Q 988 4650 1302 4700 
Q 1616 4750 1894 4750 
Q 2613 4750 3031 4423 
Q 3450 4097 3450 3541 
Q 3450 3153 3228 2886 
Q 3006 2619 2597 2516 
z
" transform="scale(0.015625)"/>
       </defs>
       <use xlink:href="#DejaVuSans-35"/>
       <use xlink:href="#DejaVuSans-30" x="63.623047"/>
       <use xlink:href="#DejaVuSans-33" x="127.246094"/>
       <use xlink:href="#DejaVuSans-30" x="190.869141"/>
      </g>
     </g>
    </g>
    <g id="text_14">
     <!-- time -->
     <g transform="translate(231.628906 397.636563) scale(0.1 -0.1)">
      <defs>
       <path id="DejaVuSans-69" d="M 603 3500 
L 1178 3500 
L 1178 0 
L 603 0 
L 603 3500 
z
M 603 4863 
L 1178 4863 
L 1178 4134 
L 603 4134 
L 603 4863 
z
" transform="scale(0.015625)"/>
       <path id="DejaVuSans-6d" d="M 3328 2828 
Q 3544 3216 3844 3400 
Q 4144 3584 4550 3584 
Q 5097 3584 5394 3201 
Q 5691 2819 5691 2113 
L 5691 0 
L 5113 0 
L 5113 2094 
Q 5113 2597 4934 2840 
Q 4756 3084 4391 3084 
Q 3944 3084 3684 2787 
Q 3425 2491 3425 1978 
L 3425 0 
L 2847 0 
L 2847 2094 
Q 2847 2600 2669 2842 
Q 2491 3084 2119 3084 
Q 1678 3084 1418 2786 
Q 1159 2488 1159 1978 
L 1159 0 
L 581 0 
L 581 3500 
L 1159 3500 
L 1159 2956 
Q 1356 3278 1631 3431 
Q 1906 3584 2284 3584 
Q 2666 3584 2933 3390 
Q 3200 3197 3328 2828 
z
" transform="scale(0.015625)"/>
      </defs>
      <use xlink:href="#DejaVuSans-74"/>
      <use xlink:href="#DejaVuSans-69" x="39.208984"/>
      <use xlink:href="#DejaVuSans-6d" x="66.992188"/>
      <use xlink:href="#DejaVuSans-65" x="164.404297"/>
     </g>
    </g>
   </g>
   <g id="matplotlib.axis_4">
    <g id="ytick_6">
     <g id="line2d_30">
      <g>
       <use xlink:href="#m497b52e5de" x="19.725" y="248.321265" style="stroke: #000000; stroke-width: 0.8"/>
      </g>
     </g>
     <g id="text_15">
      <!-- 2 -->
      <g transform="translate(6.3625 252.120484) scale(0.1 -0.1)">
       <use xlink:href="#DejaVuSans-32"/>
      </g>
     </g>
    </g>
    <g id="ytick_7">
     <g id="line2d_31">
      <g>
       <use xlink:href="#m497b52e5de" x="19.725" y="276.969486" style="stroke: #000000; stroke-width: 0.8"/>
      </g>
     </g>
     <g id="text_16">
      <!-- 4 -->
      <g transform="translate(6.3625 280.768705) scale(0.1 -0.1)">
       <use xlink:href="#DejaVuSans-34"/>
      </g>
     </g>
    </g>
    <g id="ytick_8">
     <g id="line2d_32">
      <g>
       <use xlink:href="#m497b52e5de" x="19.725" y="305.617708" style="stroke: #000000; stroke-width: 0.8"/>
      </g>
     </g>
     <g id="text_17">
      <!-- 6 -->
      <g transform="translate(6.3625 309.416926) scale(0.1 -0.1)">
       <use xlink:href="#DejaVuSans-36"/>
      </g>
     </g>
    </g>
    <g id="ytick_9">
     <g id="line2d_33">
      <g>
       <use xlink:href="#m497b52e5de" x="19.725" y="334.265929" style="stroke: #000000; stroke-width: 0.8"/>
      </g>
     </g>
     <g id="text_18">
      <!-- 8 -->
      <g transform="translate(6.3625 338.065148) scale(0.1 -0.1)">
       <use xlink:href="#DejaVuSans-38"/>
      </g>
     </g>
    </g>
    <g id="ytick_10">
     <g id="line2d_34">
      <g>
       <use xlink:href="#m497b52e5de" x="19.725" y="362.91415" style="stroke: #000000; stroke-width: 0.8"/>
      </g>
     </g>
     <g id="text_19">
      <!-- 10 -->
      <g transform="translate(0 366.713369) scale(0.1 -0.1)">
       <use xlink:href="#DejaVuSans-31"/>
       <use xlink:href="#DejaVuSans-30" x="63.623047"/>
      </g>
     </g>
    </g>
   </g>
   <g id="line2d_35">
    <path d="M 40.015909 348.59004 
L 54.009639 334.265929 
L 68.00337 334.265929 
L 81.9971 319.941818 
L 95.990831 348.59004 
L 109.984561 348.59004 
L 123.978292 348.59004 
L 137.972022 334.265929 
L 151.965752 319.941818 
L 165.959483 319.941818 
L 179.953213 334.265929 
L 193.946944 319.941818 
L 207.940674 348.59004 
L 221.934404 334.265929 
L 235.928135 334.265929 
L 249.921865 348.59004 
L 263.915596 334.265929 
L 277.909326 362.91415 
L 291.903056 348.59004 
L 305.896787 334.265929 
L 319.890517 334.265929 
L 333.884248 319.941818 
L 347.877978 319.941818 
L 361.871708 319.941818 
L 375.865439 319.941818 
L 389.859169 334.265929 
L 403.8529 319.941818 
L 417.84663 319.941818 
L 431.840361 334.265929 
L 445.834091 348.59004 
" clip-path="url(#p00aebc30ce)" style="fill: none; stroke: #00e38e; stroke-width: 1.5; stroke-linecap: square"/>
   </g>
   <g id="line2d_36">
    <path d="M 40.015909 305.617708 
L 54.009639 291.293597 
L 68.00337 319.941818 
L 81.9971 305.617708 
L 95.990831 334.265929 
L 109.984561 319.941818 
L 123.978292 362.91415 
L 137.972022 362.91415 
L 151.965752 348.59004 
L 165.959483 348.59004 
L 179.953213 348.59004 
L 193.946944 348.59004 
L 207.940674 334.265929 
L 221.934404 362.91415 
L 235.928135 362.91415 
L 249.921865 362.91415 
L 263.915596 362.91415 
L 277.909326 334.265929 
L 291.903056 334.265929 
L 305.896787 305.617708 
L 319.890517 305.617708 
L 333.884248 334.265929 
L 347.877978 334.265929 
L 361.871708 334.265929 
L 375.865439 334.265929 
L 389.859169 319.941818 
L 403.8529 334.265929 
L 417.84663 305.617708 
L 431.840361 305.617708 
L 445.834091 291.293597 
" clip-path="url(#p00aebc30ce)" style="fill: none; stroke: #008eb8; stroke-width: 1.5; stroke-linecap: square"/>
   </g>
   <g id="line2d_37">
    <path d="M 40.015909 319.941818 
L 54.009639 305.617708 
L 68.00337 291.293597 
L 81.9971 291.293597 
L 95.990831 291.293597 
L 109.984561 291.293597 
L 123.978292 291.293597 
L 137.972022 291.293597 
L 151.965752 291.293597 
L 165.959483 291.293597 
L 179.953213 291.293597 
L 193.946944 291.293597 
L 207.940674 291.293597 
L 221.934404 305.617708 
L 235.928135 305.617708 
L 249.921865 305.617708 
L 263.915596 305.617708 
L 277.909326 305.617708 
L 291.903056 319.941818 
L 305.896787 319.941818 
L 319.890517 319.941818 
L 333.884248 305.617708 
L 347.877978 305.617708 
L 361.871708 305.617708 
L 375.865439 305.617708 
L 389.859169 305.617708 
L 403.8529 305.617708 
L 417.84663 334.265929 
L 431.840361 319.941818 
L 445.834091 334.265929 
" clip-path="url(#p00aebc30ce)" style="fill: none; stroke: #00aaaa; stroke-width: 1.5; stroke-linecap: square"/>
   </g>
   <g id="line2d_38">
    <path d="M 40.015909 276.969486 
L 54.009639 276.969486 
L 68.00337 276.969486 
L 81.9971 262.645375 
L 95.990831 262.645375 
L 109.984561 262.645375 
L 123.978292 262.645375 
L 137.972022 248.321265 
L 151.965752 248.321265 
L 165.959483 248.321265 
L 179.953213 233.997154 
L 193.946944 248.321265 
L 207.940674 248.321265 
L 221.934404 248.321265 
L 235.928135 248.321265 
L 249.921865 248.321265 
L 263.915596 248.321265 
L 277.909326 248.321265 
L 291.903056 248.321265 
L 305.896787 248.321265 
L 319.890517 248.321265 
L 333.884248 248.321265 
L 347.877978 248.321265 
L 361.871708 248.321265 
L 375.865439 248.321265 
L 389.859169 248.321265 
L 403.8529 233.997154 
L 417.84663 233.997154 
L 431.840361 233.997154 
L 445.834091 233.997154 
" clip-path="url(#p00aebc30ce)" style="fill: none; stroke: #0055d4; stroke-width: 1.5; stroke-linecap: square"/>
   </g>
   <g id="line2d_39">
    <path d="M 40.015909 334.265929 
L 54.009639 319.941818 
L 68.00337 305.617708 
L 81.9971 334.265929 
L 95.990831 362.91415 
L 109.984561 334.265929 
L 123.978292 319.941818 
L 137.972022 319.941818 
L 151.965752 334.265929 
L 165.959483 334.265929 
L 179.953213 305.617708 
L 193.946944 305.617708 
L 207.940674 305.617708 
L 221.934404 348.59004 
L 235.928135 348.59004 
L 249.921865 334.265929 
L 263.915596 348.59004 
L 277.909326 348.59004 
L 291.903056 362.91415 
L 305.896787 362.91415 
L 319.890517 348.59004 
L 333.884248 348.59004 
L 347.877978 348.59004 
L 361.871708 348.59004 
L 375.865439 348.59004 
L 389.859169 348.59004 
L 403.8529 348.59004 
L 417.84663 348.59004 
L 431.840361 348.59004 
L 445.834091 319.941818 
" clip-path="url(#p00aebc30ce)" style="fill: none; stroke: #00c69c; stroke-width: 1.5; stroke-linecap: square"/>
   </g>
   <g id="line2d_40">
    <path d="M 40.015909 362.91415 
L 54.009639 348.59004 
L 68.00337 348.59004 
L 81.9971 348.59004 
L 95.990831 305.617708 
L 109.984561 305.617708 
L 123.978292 305.617708 
L 137.972022 305.617708 
L 151.965752 362.91415 
L 165.959483 362.91415 
L 179.953213 362.91415 
L 193.946944 362.91415 
L 207.940674 362.91415 
L 221.934404 319.941818 
L 235.928135 319.941818 
L 249.921865 319.941818 
L 263.915596 319.941818 
L 277.909326 319.941818 
L 291.903056 305.617708 
L 305.896787 348.59004 
L 319.890517 362.91415 
L 333.884248 362.91415 
L 347.877978 362.91415 
L 361.871708 362.91415 
L 375.865439 362.91415 
L 389.859169 362.91415 
L 403.8529 362.91415 
L 417.84663 362.91415 
L 431.840361 362.91415 
L 445.834091 362.91415 
" clip-path="url(#p00aebc30ce)" style="fill: none; stroke: #00ff80; stroke-width: 1.5; stroke-linecap: square"/>
   </g>
   <g id="line2d_41">
    <path d="M 40.015909 291.293597 
L 54.009639 362.91415 
L 68.00337 362.91415 
L 81.9971 362.91415 
L 95.990831 319.941818 
L 109.984561 362.91415 
L 123.978292 334.265929 
L 137.972022 348.59004 
L 151.965752 305.617708 
L 165.959483 305.617708 
L 179.953213 319.941818 
L 193.946944 334.265929 
L 207.940674 319.941818 
L 221.934404 291.293597 
L 235.928135 291.293597 
L 249.921865 291.293597 
L 263.915596 291.293597 
L 277.909326 291.293597 
L 291.903056 291.293597 
L 305.896787 276.969486 
L 319.890517 276.969486 
L 333.884248 276.969486 
L 347.877978 291.293597 
L 361.871708 291.293597 
L 375.865439 276.969486 
L 389.859169 276.969486 
L 403.8529 276.969486 
L 417.84663 291.293597 
L 431.840361 262.645375 
L 445.834091 262.645375 
" clip-path="url(#p00aebc30ce)" style="fill: none; stroke: #0071c6; stroke-width: 1.5; stroke-linecap: square"/>
   </g>
   <g id="line2d_42">
    <path d="M 40.015909 233.997154 
L 54.009639 233.997154 
L 68.00337 233.997154 
L 81.9971 233.997154 
L 95.990831 233.997154 
L 109.984561 233.997154 
L 123.978292 233.997154 
L 137.972022 233.997154 
L 151.965752 233.997154 
L 165.959483 233.997154 
L 179.953213 262.645375 
L 193.946944 262.645375 
L 207.940674 262.645375 
L 221.934404 262.645375 
L 235.928135 262.645375 
L 249.921865 262.645375 
L 263.915596 262.645375 
L 277.909326 262.645375 
L 291.903056 262.645375 
L 305.896787 262.645375 
L 319.890517 262.645375 
L 333.884248 262.645375 
L 347.877978 262.645375 
L 361.871708 276.969486 
L 375.865439 291.293597 
L 389.859169 291.293597 
L 403.8529 291.293597 
L 417.84663 276.969486 
L 431.840361 276.969486 
L 445.834091 276.969486 
" clip-path="url(#p00aebc30ce)" style="fill: none; stroke: #0000ff; stroke-width: 1.5; stroke-linecap: square"/>
   </g>
   <g id="line2d_43">
    <path d="M 40.015909 248.321265 
L 54.009639 248.321265 
L 68.00337 248.321265 
L 81.9971 248.321265 
L 95.990831 248.321265 
L 109.984561 248.321265 
L 123.978292 248.321265 
L 137.972022 262.645375 
L 151.965752 262.645375 
L 165.959483 262.645375 
L 179.953213 248.321265 
L 193.946944 233.997154 
L 207.940674 233.997154 
L 221.934404 233.997154 
L 235.928135 233.997154 
L 249.921865 233.997154 
L 263.915596 233.997154 
L 277.909326 233.997154 
L 291.903056 233.997154 
L 305.896787 233.997154 
L 319.890517 233.997154 
L 333.884248 233.997154 
L 347.877978 233.997154 
L 361.871708 233.997154 
L 375.865439 233.997154 
L 389.859169 233.997154 
L 403.8529 248.321265 
L 417.84663 262.645375 
L 431.840361 248.321265 
L 445.834091 248.321265 
" clip-path="url(#p00aebc30ce)" style="fill: none; stroke: #001cf1; stroke-width: 1.5; stroke-linecap: square"/>
   </g>
   <g id="line2d_44">
    <path d="M 40.015909 262.645375 
L 54.009639 262.645375 
L 68.00337 262.645375 
L 81.9971 276.969486 
L 95.990831 276.969486 
L 109.984561 276.969486 
L 123.978292 276.969486 
L 137.972022 276.969486 
L 151.965752 276.969486 
L 165.959483 276.969486 
L 179.953213 276.969486 
L 193.946944 276.969486 
L 207.940674 276.969486 
L 221.934404 276.969486 
L 235.928135 276.969486 
L 249.921865 276.969486 
L 263.915596 276.969486 
L 277.909326 276.969486 
L 291.903056 276.969486 
L 305.896787 291.293597 
L 319.890517 291.293597 
L 333.884248 291.293597 
L 347.877978 276.969486 
L 361.871708 262.645375 
L 375.865439 262.645375 
L 389.859169 262.645375 
L 403.8529 262.645375 
L 417.84663 248.321265 
L 431.840361 291.293597 
L 445.834091 305.617708 
" clip-path="url(#p00aebc30ce)" style="fill: none; stroke: #0039e3; stroke-width: 1.5; stroke-linecap: square"/>
   </g>
   <g id="patch_8">
    <path d="M 19.725 369.36 
L 19.725 227.551304 
" style="fill: none; stroke: #000000; stroke-width: 0.8; stroke-linejoin: miter; stroke-linecap: square"/>
   </g>
   <g id="patch_9">
    <path d="M 466.125 369.36 
L 466.125 227.551304 
" style="fill: none; stroke: #000000; stroke-width: 0.8; stroke-linejoin: miter; stroke-linecap: square"/>
   </g>
   <g id="patch_10">
    <path d="M 19.725 369.36 
L 466.125 369.36 
" style="fill: none; stroke: #000000; stroke-width: 0.8; stroke-linejoin: miter; stroke-linecap: square"/>
   </g>
   <g id="patch_11">
    <path d="M 19.725 227.551304 
L 466.125 227.551304 
" style="fill: none; stroke: #000000; stroke-width: 0.8; stroke-linejoin: miter; stroke-linecap: square"/>
   </g>
   <g id="text_20">
    <!-- taxrate = 0.4 -->
    <g transform="translate(202.77375 221.551304) scale(0.12 -0.12)">
     <use xlink:href="#DejaVuSans-74"/>
     <use xlink:href="#DejaVuSans-61" x="39.208984"/>
     <use xlink:href="#DejaVuSans-78" x="100.488281"/>
     <use xlink:href="#DejaVuSans-72" x="159.667969"/>
     <use xlink:href="#DejaVuSans-61" x="200.78125"/>
     <use xlink:href="#DejaVuSans-74" x="262.060547"/>
     <use xlink:href="#DejaVuSans-65" x="301.269531"/>
     <use xlink:href="#DejaVuSans-20" x="362.792969"/>
     <use xlink:href="#DejaVuSans-3d" x="394.580078"/>
     <use xlink:href="#DejaVuSans-20" x="478.369141"/>
     <use xlink:href="#DejaVuSans-30" x="510.15625"/>
     <use xlink:href="#DejaVuSans-2e" x="573.779297"/>
     <use xlink:href="#DejaVuSans-34" x="605.566406"/>
    </g>
   </g>
  </g>
  <g id="text_21">
   <!-- Wealth rank (1 = wealthiest) -->
   <g transform="translate(149.445938 9.118125) scale(0.12 -0.12)">
    <defs>
     <path id="DejaVuSans-57" d="M 213 4666 
L 850 4666 
L 1831 722 
L 2809 4666 
L 3519 4666 
L 4500 722 
L 5478 4666 
L 6119 4666 
L 4947 0 
L 4153 0 
L 3169 4050 
L 2175 0 
L 1381 0 
L 213 4666 
z
" transform="scale(0.015625)"/>
     <path id="DejaVuSans-6c" d="M 603 4863 
L 1178 4863 
L 1178 0 
L 603 0 
L 603 4863 
z
" transform="scale(0.015625)"/>
     <path id="DejaVuSans-68" d="M 3513 2113 
L 3513 0 
L 2938 0 
L 2938 2094 
Q 2938 2591 2744 2837 
Q 2550 3084 2163 3084 
Q 1697 3084 1428 2787 
Q 1159 2491 1159 1978 
L 1159 0 
L 581 0 
L 581 4863 
L 1159 4863 
L 1159 2956 
Q 1366 3272 1645 3428 
Q 1925 3584 2291 3584 
Q 2894 3584 3203 3211 
Q 3513 2838 3513 2113 
z
" transform="scale(0.015625)"/>
     <path id="DejaVuSans-6e" d="M 3513 2113 
L 3513 0 
L 2938 0 
L 2938 2094 
Q 2938 2591 2744 2837 
Q 2550 3084 2163 3084 
Q 1697 3084 1428 2787 
Q 1159 2491 1159 1978 
L 1159 0 
L 581 0 
L 581 3500 
L 1159 3500 
L 1159 2956 
Q 1366 3272 1645 3428 
Q 1925 3584 2291 3584 
Q 2894 3584 3203 3211 
Q 3513 2838 3513 2113 
z
" transform="scale(0.015625)"/>
     <path id="DejaVuSans-6b" d="M 581 4863 
L 1159 4863 
L 1159 1991 
L 2875 3500 
L 3609 3500 
L 1753 1863 
L 3688 0 
L 2938 0 
L 1159 1709 
L 1159 0 
L 581 0 
L 581 4863 
z
" transform="scale(0.015625)"/>
     <path id="DejaVuSans-28" d="M 1984 4856 
Q 1566 4138 1362 3434 
Q 1159 2731 1159 2009 
Q 1159 1288 1364 580 
Q 1569 -128 1984 -844 
L 1484 -844 
Q 1016 -109 783 600 
Q 550 1309 550 2009 
Q 550 2706 781 3412 
Q 1013 4119 1484 4856 
L 1984 4856 
z
" transform="scale(0.015625)"/>
     <path id="DejaVuSans-77" d="M 269 3500 
L 844 3500 
L 1563 769 
L 2278 3500 
L 2956 3500 
L 3675 769 
L 4391 3500 
L 4966 3500 
L 4050 0 
L 3372 0 
L 2619 2869 
L 1863 0 
L 1184 0 
L 269 3500 
z
" transform="scale(0.015625)"/>
     <path id="DejaVuSans-73" d="M 2834 3397 
L 2834 2853 
Q 2591 2978 2328 3040 
Q 2066 3103 1784 3103 
Q 1356 3103 1142 2972 
Q 928 2841 928 2578 
Q 928 2378 1081 2264 
Q 1234 2150 1697 2047 
L 1894 2003 
Q 2506 1872 2764 1633 
Q 3022 1394 3022 966 
Q 3022 478 2636 193 
Q 2250 -91 1575 -91 
Q 1294 -91 989 -36 
Q 684 19 347 128 
L 347 722 
Q 666 556 975 473 
Q 1284 391 1588 391 
Q 1994 391 2212 530 
Q 2431 669 2431 922 
Q 2431 1156 2273 1281 
Q 2116 1406 1581 1522 
L 1381 1569 
Q 847 1681 609 1914 
Q 372 2147 372 2553 
Q 372 3047 722 3315 
Q 1072 3584 1716 3584 
Q 2034 3584 2315 3537 
Q 2597 3491 2834 3397 
z
" transform="scale(0.015625)"/>
     <path id="DejaVuSans-29" d="M 513 4856 
L 1013 4856 
Q 1481 4119 1714 3412 
Q 1947 2706 1947 2009 
Q 1947 1309 1714 600 
Q 1481 -109 1013 -844 
L 513 -844 
Q 928 -128 1133 580 
Q 1338 1288 1338 2009 
Q 1338 2731 1133 3434 
Q 928 4138 513 4856 
z
" transform="scale(0.015625)"/>
    </defs>
    <use xlink:href="#DejaVuSans-57"/>
    <use xlink:href="#DejaVuSans-65" x="93.001953"/>
    <use xlink:href="#DejaVuSans-61" x="154.525391"/>
    <use xlink:href="#DejaVuSans-6c" x="215.804688"/>
    <use xlink:href="#DejaVuSans-74" x="243.587891"/>
    <use xlink:href="#DejaVuSans-68" x="282.796875"/>
    <use xlink:href="#DejaVuSans-20" x="346.175781"/>
    <use xlink:href="#DejaVuSans-72" x="377.962891"/>
    <use xlink:href="#DejaVuSans-61" x="419.076172"/>
    <use xlink:href="#DejaVuSans-6e" x="480.355469"/>
    <use xlink:href="#DejaVuSans-6b" x="543.734375"/>
    <use xlink:href="#DejaVuSans-20" x="601.644531"/>
    <use xlink:href="#DejaVuSans-28" x="633.431641"/>
    <use xlink:href="#DejaVuSans-31" x="672.445312"/>
    <use xlink:href="#DejaVuSans-20" x="736.068359"/>
    <use xlink:href="#DejaVuSans-3d" x="767.855469"/>
    <use xlink:href="#DejaVuSans-20" x="851.644531"/>
    <use xlink:href="#DejaVuSans-77" x="883.431641"/>
    <use xlink:href="#DejaVuSans-65" x="965.21875"/>
    <use xlink:href="#DejaVuSans-61" x="1026.742188"/>
    <use xlink:href="#DejaVuSans-6c" x="1088.021484"/>
    <use xlink:href="#DejaVuSans-74" x="1115.804688"/>
    <use xlink:href="#DejaVuSans-68" x="1155.013672"/>
    <use xlink:href="#DejaVuSans-69" x="1218.392578"/>
    <use xlink:href="#DejaVuSans-65" x="1246.175781"/>
    <use xlink:href="#DejaVuSans-73" x="1307.699219"/>
    <use xlink:href="#DejaVuSans-74" x="1359.798828"/>
    <use xlink:href="#DejaVuSans-29" x="1399.007812"/>
   </g>
  </g>
 </g>
 <defs>
  <clipPath id="pcf32d19cce">
   <rect x="19.725" y="43.2" width="446.4" height="141.808696"/>
  </clipPath>
  <clipPath id="p00aebc30ce">
   <rect x="19.725" y="227.551304" width="446.4" height="141.808696"/>
  </clipPath>
 </defs>
</svg>
