<?xml version="1.0" encoding="utf-8" standalone="no"?>
<!DOCTYPE svg PUBLIC "-//W3C//DTD SVG 1.1//EN"
  "http://www.w3.org/Graphics/SVG/1.1/DTD/svg11.dtd">
<!-- Created with matplotlib (https://matplotlib.org/) -->
<svg height="263.678125pt" version="1.1" viewBox="0 0 368.203125 263.678125" width="368.203125pt" xmlns="http://www.w3.org/2000/svg" xmlns:xlink="http://www.w3.org/1999/xlink">
 <metadata>
  <rdf:RDF xmlns:cc="http://creativecommons.org/ns#" xmlns:dc="http://purl.org/dc/elements/1.1/" xmlns:rdf="http://www.w3.org/1999/02/22-rdf-syntax-ns#">
   <cc:Work>
    <dc:type rdf:resource="http://purl.org/dc/dcmitype/StillImage"/>
    <dc:date>2021-12-08T02:29:25.597203</dc:date>
    <dc:format>image/svg+xml</dc:format>
    <dc:creator>
     <cc:Agent>
      <dc:title>Matplotlib v3.3.2, https://matplotlib.org/</dc:title>
     </cc:Agent>
    </dc:creator>
   </cc:Work>
  </rdf:RDF>
 </metadata>
 <defs>
  <style type="text/css">*{stroke-linecap:butt;stroke-linejoin:round;}</style>
 </defs>
 <g id="figure_1">
  <g id="patch_1">
   <path d="M 0 263.678125 
L 368.203125 263.678125 
L 368.203125 0 
L 0 0 
z
" style="fill:none;"/>
  </g>
  <g id="axes_1">
   <g id="patch_2">
    <path d="M 33.403125 247 
L 368.203125 247 
L 368.203125 29.56 
L 33.403125 29.56 
z
" style="fill:none;"/>
   </g>
   <g id="matplotlib.axis_1">
    <g id="xtick_1">
     <g id="line2d_1">
      <defs>
       <path d="M 0 0 
L 0 3.5 
" id="me19da14325" style="stroke:#000000;stroke-width:0.8;"/>
      </defs>
      <g>
       <use style="stroke:#000000;stroke-width:0.8;" x="48.621307" xlink:href="#me19da14325" y="247"/>
      </g>
     </g>
     <g id="text_1">
      <!-- 0 -->
      <g transform="translate(45.440057 261.598437)scale(0.1 -0.1)">
       <defs>
        <path d="M 31.78125 66.40625 
Q 24.171875 66.40625 20.328125 58.90625 
Q 16.5 51.421875 16.5 36.375 
Q 16.5 21.390625 20.328125 13.890625 
Q 24.171875 6.390625 31.78125 6.390625 
Q 39.453125 6.390625 43.28125 13.890625 
Q 47.125 21.390625 47.125 36.375 
Q 47.125 51.421875 43.28125 58.90625 
Q 39.453125 66.40625 31.78125 66.40625 
z
M 31.78125 74.21875 
Q 44.046875 74.21875 50.515625 64.515625 
Q 56.984375 54.828125 56.984375 36.375 
Q 56.984375 17.96875 50.515625 8.265625 
Q 44.046875 -1.421875 31.78125 -1.421875 
Q 19.53125 -1.421875 13.0625 8.265625 
Q 6.59375 17.96875 6.59375 36.375 
Q 6.59375 54.828125 13.0625 64.515625 
Q 19.53125 74.21875 31.78125 74.21875 
z
" id="DejaVuSans-48"/>
       </defs>
       <use xlink:href="#DejaVuSans-48"/>
      </g>
     </g>
    </g>
    <g id="xtick_2">
     <g id="line2d_2">
      <g>
       <use style="stroke:#000000;stroke-width:0.8;" x="110.10891" xlink:href="#me19da14325" y="247"/>
      </g>
     </g>
     <g id="text_2">
      <!-- 20 -->
      <g transform="translate(103.74641 261.598437)scale(0.1 -0.1)">
       <defs>
        <path d="M 19.1875 8.296875 
L 53.609375 8.296875 
L 53.609375 0 
L 7.328125 0 
L 7.328125 8.296875 
Q 12.9375 14.109375 22.625 23.890625 
Q 32.328125 33.6875 34.8125 36.53125 
Q 39.546875 41.84375 41.421875 45.53125 
Q 43.3125 49.21875 43.3125 52.78125 
Q 43.3125 58.59375 39.234375 62.25 
Q 35.15625 65.921875 28.609375 65.921875 
Q 23.96875 65.921875 18.8125 64.3125 
Q 13.671875 62.703125 7.8125 59.421875 
L 7.8125 69.390625 
Q 13.765625 71.78125 18.9375 73 
Q 24.125 74.21875 28.421875 74.21875 
Q 39.75 74.21875 46.484375 68.546875 
Q 53.21875 62.890625 53.21875 53.421875 
Q 53.21875 48.921875 51.53125 44.890625 
Q 49.859375 40.875 45.40625 35.40625 
Q 44.1875 33.984375 37.640625 27.21875 
Q 31.109375 20.453125 19.1875 8.296875 
z
" id="DejaVuSans-50"/>
       </defs>
       <use xlink:href="#DejaVuSans-50"/>
       <use x="63.623047" xlink:href="#DejaVuSans-48"/>
      </g>
     </g>
    </g>
    <g id="xtick_3">
     <g id="line2d_3">
      <g>
       <use style="stroke:#000000;stroke-width:0.8;" x="171.596513" xlink:href="#me19da14325" y="247"/>
      </g>
     </g>
     <g id="text_3">
      <!-- 40 -->
      <g transform="translate(165.234013 261.598437)scale(0.1 -0.1)">
       <defs>
        <path d="M 37.796875 64.3125 
L 12.890625 25.390625 
L 37.796875 25.390625 
z
M 35.203125 72.90625 
L 47.609375 72.90625 
L 47.609375 25.390625 
L 58.015625 25.390625 
L 58.015625 17.1875 
L 47.609375 17.1875 
L 47.609375 0 
L 37.796875 0 
L 37.796875 17.1875 
L 4.890625 17.1875 
L 4.890625 26.703125 
z
" id="DejaVuSans-52"/>
       </defs>
       <use xlink:href="#DejaVuSans-52"/>
       <use x="63.623047" xlink:href="#DejaVuSans-48"/>
      </g>
     </g>
    </g>
    <g id="xtick_4">
     <g id="line2d_4">
      <g>
       <use style="stroke:#000000;stroke-width:0.8;" x="233.084117" xlink:href="#me19da14325" y="247"/>
      </g>
     </g>
     <g id="text_4">
      <!-- 60 -->
      <g transform="translate(226.721617 261.598437)scale(0.1 -0.1)">
       <defs>
        <path d="M 33.015625 40.375 
Q 26.375 40.375 22.484375 35.828125 
Q 18.609375 31.296875 18.609375 23.390625 
Q 18.609375 15.53125 22.484375 10.953125 
Q 26.375 6.390625 33.015625 6.390625 
Q 39.65625 6.390625 43.53125 10.953125 
Q 47.40625 15.53125 47.40625 23.390625 
Q 47.40625 31.296875 43.53125 35.828125 
Q 39.65625 40.375 33.015625 40.375 
z
M 52.59375 71.296875 
L 52.59375 62.3125 
Q 48.875 64.0625 45.09375 64.984375 
Q 41.3125 65.921875 37.59375 65.921875 
Q 27.828125 65.921875 22.671875 59.328125 
Q 17.53125 52.734375 16.796875 39.40625 
Q 19.671875 43.65625 24.015625 45.921875 
Q 28.375 48.1875 33.59375 48.1875 
Q 44.578125 48.1875 50.953125 41.515625 
Q 57.328125 34.859375 57.328125 23.390625 
Q 57.328125 12.15625 50.6875 5.359375 
Q 44.046875 -1.421875 33.015625 -1.421875 
Q 20.359375 -1.421875 13.671875 8.265625 
Q 6.984375 17.96875 6.984375 36.375 
Q 6.984375 53.65625 15.1875 63.9375 
Q 23.390625 74.21875 37.203125 74.21875 
Q 40.921875 74.21875 44.703125 73.484375 
Q 48.484375 72.75 52.59375 71.296875 
z
" id="DejaVuSans-54"/>
       </defs>
       <use xlink:href="#DejaVuSans-54"/>
       <use x="63.623047" xlink:href="#DejaVuSans-48"/>
      </g>
     </g>
    </g>
    <g id="xtick_5">
     <g id="line2d_5">
      <g>
       <use style="stroke:#000000;stroke-width:0.8;" x="294.57172" xlink:href="#me19da14325" y="247"/>
      </g>
     </g>
     <g id="text_5">
      <!-- 80 -->
      <g transform="translate(288.20922 261.598437)scale(0.1 -0.1)">
       <defs>
        <path d="M 31.78125 34.625 
Q 24.75 34.625 20.71875 30.859375 
Q 16.703125 27.09375 16.703125 20.515625 
Q 16.703125 13.921875 20.71875 10.15625 
Q 24.75 6.390625 31.78125 6.390625 
Q 38.8125 6.390625 42.859375 10.171875 
Q 46.921875 13.96875 46.921875 20.515625 
Q 46.921875 27.09375 42.890625 30.859375 
Q 38.875 34.625 31.78125 34.625 
z
M 21.921875 38.8125 
Q 15.578125 40.375 12.03125 44.71875 
Q 8.5 49.078125 8.5 55.328125 
Q 8.5 64.0625 14.71875 69.140625 
Q 20.953125 74.21875 31.78125 74.21875 
Q 42.671875 74.21875 48.875 69.140625 
Q 55.078125 64.0625 55.078125 55.328125 
Q 55.078125 49.078125 51.53125 44.71875 
Q 48 40.375 41.703125 38.8125 
Q 48.828125 37.15625 52.796875 32.3125 
Q 56.78125 27.484375 56.78125 20.515625 
Q 56.78125 9.90625 50.3125 4.234375 
Q 43.84375 -1.421875 31.78125 -1.421875 
Q 19.734375 -1.421875 13.25 4.234375 
Q 6.78125 9.90625 6.78125 20.515625 
Q 6.78125 27.484375 10.78125 32.3125 
Q 14.796875 37.15625 21.921875 38.8125 
z
M 18.3125 54.390625 
Q 18.3125 48.734375 21.84375 45.5625 
Q 25.390625 42.390625 31.78125 42.390625 
Q 38.140625 42.390625 41.71875 45.5625 
Q 45.3125 48.734375 45.3125 54.390625 
Q 45.3125 60.0625 41.71875 63.234375 
Q 38.140625 66.40625 31.78125 66.40625 
Q 25.390625 66.40625 21.84375 63.234375 
Q 18.3125 60.0625 18.3125 54.390625 
z
" id="DejaVuSans-56"/>
       </defs>
       <use xlink:href="#DejaVuSans-56"/>
       <use x="63.623047" xlink:href="#DejaVuSans-48"/>
      </g>
     </g>
    </g>
    <g id="xtick_6">
     <g id="line2d_6">
      <g>
       <use style="stroke:#000000;stroke-width:0.8;" x="356.059323" xlink:href="#me19da14325" y="247"/>
      </g>
     </g>
     <g id="text_6">
      <!-- 100 -->
      <g transform="translate(346.515573 261.598437)scale(0.1 -0.1)">
       <defs>
        <path d="M 12.40625 8.296875 
L 28.515625 8.296875 
L 28.515625 63.921875 
L 10.984375 60.40625 
L 10.984375 69.390625 
L 28.421875 72.90625 
L 38.28125 72.90625 
L 38.28125 8.296875 
L 54.390625 8.296875 
L 54.390625 0 
L 12.40625 0 
z
" id="DejaVuSans-49"/>
       </defs>
       <use xlink:href="#DejaVuSans-49"/>
       <use x="63.623047" xlink:href="#DejaVuSans-48"/>
       <use x="127.246094" xlink:href="#DejaVuSans-48"/>
      </g>
     </g>
    </g>
   </g>
   <g id="matplotlib.axis_2">
    <g id="ytick_1">
     <g id="line2d_7">
      <defs>
       <path d="M 0 0 
L -3.5 0 
" id="m7fda95b359" style="stroke:#000000;stroke-width:0.8;"/>
      </defs>
      <g>
       <use style="stroke:#000000;stroke-width:0.8;" x="33.403125" xlink:href="#m7fda95b359" y="237.944612"/>
      </g>
     </g>
     <g id="text_7">
      <!-- 0 -->
      <g transform="translate(20.040625 241.74383)scale(0.1 -0.1)">
       <use xlink:href="#DejaVuSans-48"/>
      </g>
     </g>
    </g>
    <g id="ytick_2">
     <g id="line2d_8">
      <g>
       <use style="stroke:#000000;stroke-width:0.8;" x="33.403125" xlink:href="#m7fda95b359" y="201.296473"/>
      </g>
     </g>
     <g id="text_8">
      <!-- 10 -->
      <g transform="translate(13.678125 205.095692)scale(0.1 -0.1)">
       <use xlink:href="#DejaVuSans-49"/>
       <use x="63.623047" xlink:href="#DejaVuSans-48"/>
      </g>
     </g>
    </g>
    <g id="ytick_3">
     <g id="line2d_9">
      <g>
       <use style="stroke:#000000;stroke-width:0.8;" x="33.403125" xlink:href="#m7fda95b359" y="164.648335"/>
      </g>
     </g>
     <g id="text_9">
      <!-- 20 -->
      <g transform="translate(13.678125 168.447554)scale(0.1 -0.1)">
       <use xlink:href="#DejaVuSans-50"/>
       <use x="63.623047" xlink:href="#DejaVuSans-48"/>
      </g>
     </g>
    </g>
    <g id="ytick_4">
     <g id="line2d_10">
      <g>
       <use style="stroke:#000000;stroke-width:0.8;" x="33.403125" xlink:href="#m7fda95b359" y="128.000197"/>
      </g>
     </g>
     <g id="text_10">
      <!-- 30 -->
      <g transform="translate(13.678125 131.799416)scale(0.1 -0.1)">
       <defs>
        <path d="M 40.578125 39.3125 
Q 47.65625 37.796875 51.625 33 
Q 55.609375 28.21875 55.609375 21.1875 
Q 55.609375 10.40625 48.1875 4.484375 
Q 40.765625 -1.421875 27.09375 -1.421875 
Q 22.515625 -1.421875 17.65625 -0.515625 
Q 12.796875 0.390625 7.625 2.203125 
L 7.625 11.71875 
Q 11.71875 9.328125 16.59375 8.109375 
Q 21.484375 6.890625 26.8125 6.890625 
Q 36.078125 6.890625 40.9375 10.546875 
Q 45.796875 14.203125 45.796875 21.1875 
Q 45.796875 27.640625 41.28125 31.265625 
Q 36.765625 34.90625 28.71875 34.90625 
L 20.21875 34.90625 
L 20.21875 43.015625 
L 29.109375 43.015625 
Q 36.375 43.015625 40.234375 45.921875 
Q 44.09375 48.828125 44.09375 54.296875 
Q 44.09375 59.90625 40.109375 62.90625 
Q 36.140625 65.921875 28.71875 65.921875 
Q 24.65625 65.921875 20.015625 65.03125 
Q 15.375 64.15625 9.8125 62.3125 
L 9.8125 71.09375 
Q 15.4375 72.65625 20.34375 73.4375 
Q 25.25 74.21875 29.59375 74.21875 
Q 40.828125 74.21875 47.359375 69.109375 
Q 53.90625 64.015625 53.90625 55.328125 
Q 53.90625 49.265625 50.4375 45.09375 
Q 46.96875 40.921875 40.578125 39.3125 
z
" id="DejaVuSans-51"/>
       </defs>
       <use xlink:href="#DejaVuSans-51"/>
       <use x="63.623047" xlink:href="#DejaVuSans-48"/>
      </g>
     </g>
    </g>
    <g id="ytick_5">
     <g id="line2d_11">
      <g>
       <use style="stroke:#000000;stroke-width:0.8;" x="33.403125" xlink:href="#m7fda95b359" y="91.352059"/>
      </g>
     </g>
     <g id="text_11">
      <!-- 40 -->
      <g transform="translate(13.678125 95.151278)scale(0.1 -0.1)">
       <use xlink:href="#DejaVuSans-52"/>
       <use x="63.623047" xlink:href="#DejaVuSans-48"/>
      </g>
     </g>
    </g>
    <g id="ytick_6">
     <g id="line2d_12">
      <g>
       <use style="stroke:#000000;stroke-width:0.8;" x="33.403125" xlink:href="#m7fda95b359" y="54.703921"/>
      </g>
     </g>
     <g id="text_12">
      <!-- 50 -->
      <g transform="translate(13.678125 58.50314)scale(0.1 -0.1)">
       <defs>
        <path d="M 10.796875 72.90625 
L 49.515625 72.90625 
L 49.515625 64.59375 
L 19.828125 64.59375 
L 19.828125 46.734375 
Q 21.96875 47.46875 24.109375 47.828125 
Q 26.265625 48.1875 28.421875 48.1875 
Q 40.625 48.1875 47.75 41.5 
Q 54.890625 34.8125 54.890625 23.390625 
Q 54.890625 11.625 47.5625 5.09375 
Q 40.234375 -1.421875 26.90625 -1.421875 
Q 22.3125 -1.421875 17.546875 -0.640625 
Q 12.796875 0.140625 7.71875 1.703125 
L 7.71875 11.625 
Q 12.109375 9.234375 16.796875 8.0625 
Q 21.484375 6.890625 26.703125 6.890625 
Q 35.15625 6.890625 40.078125 11.328125 
Q 45.015625 15.765625 45.015625 23.390625 
Q 45.015625 31 40.078125 35.4375 
Q 35.15625 39.890625 26.703125 39.890625 
Q 22.75 39.890625 18.8125 39.015625 
Q 14.890625 38.140625 10.796875 36.28125 
z
" id="DejaVuSans-53"/>
       </defs>
       <use xlink:href="#DejaVuSans-53"/>
       <use x="63.623047" xlink:href="#DejaVuSans-48"/>
      </g>
     </g>
    </g>
    <g id="text_13">
     <!-- % popn infected -->
     <g transform="translate(7.598437 179.140156)rotate(-90)scale(0.1 -0.1)">
      <defs>
       <path d="M 72.703125 32.078125 
Q 68.453125 32.078125 66.03125 28.46875 
Q 63.625 24.859375 63.625 18.40625 
Q 63.625 12.0625 66.03125 8.421875 
Q 68.453125 4.78125 72.703125 4.78125 
Q 76.859375 4.78125 79.265625 8.421875 
Q 81.6875 12.0625 81.6875 18.40625 
Q 81.6875 24.8125 79.265625 28.4375 
Q 76.859375 32.078125 72.703125 32.078125 
z
M 72.703125 38.28125 
Q 80.421875 38.28125 84.953125 32.90625 
Q 89.5 27.546875 89.5 18.40625 
Q 89.5 9.28125 84.9375 3.921875 
Q 80.375 -1.421875 72.703125 -1.421875 
Q 64.890625 -1.421875 60.34375 3.921875 
Q 55.8125 9.28125 55.8125 18.40625 
Q 55.8125 27.59375 60.375 32.9375 
Q 64.9375 38.28125 72.703125 38.28125 
z
M 22.3125 68.015625 
Q 18.109375 68.015625 15.6875 64.375 
Q 13.28125 60.75 13.28125 54.390625 
Q 13.28125 47.953125 15.671875 44.328125 
Q 18.0625 40.71875 22.3125 40.71875 
Q 26.5625 40.71875 28.96875 44.328125 
Q 31.390625 47.953125 31.390625 54.390625 
Q 31.390625 60.6875 28.953125 64.34375 
Q 26.515625 68.015625 22.3125 68.015625 
z
M 66.40625 74.21875 
L 74.21875 74.21875 
L 28.609375 -1.421875 
L 20.796875 -1.421875 
z
M 22.3125 74.21875 
Q 30.03125 74.21875 34.609375 68.875 
Q 39.203125 63.53125 39.203125 54.390625 
Q 39.203125 45.171875 34.640625 39.84375 
Q 30.078125 34.515625 22.3125 34.515625 
Q 14.546875 34.515625 10.03125 39.859375 
Q 5.515625 45.21875 5.515625 54.390625 
Q 5.515625 63.484375 10.046875 68.84375 
Q 14.59375 74.21875 22.3125 74.21875 
z
" id="DejaVuSans-37"/>
       <path id="DejaVuSans-32"/>
       <path d="M 18.109375 8.203125 
L 18.109375 -20.796875 
L 9.078125 -20.796875 
L 9.078125 54.6875 
L 18.109375 54.6875 
L 18.109375 46.390625 
Q 20.953125 51.265625 25.265625 53.625 
Q 29.59375 56 35.59375 56 
Q 45.5625 56 51.78125 48.09375 
Q 58.015625 40.1875 58.015625 27.296875 
Q 58.015625 14.40625 51.78125 6.484375 
Q 45.5625 -1.421875 35.59375 -1.421875 
Q 29.59375 -1.421875 25.265625 0.953125 
Q 20.953125 3.328125 18.109375 8.203125 
z
M 48.6875 27.296875 
Q 48.6875 37.203125 44.609375 42.84375 
Q 40.53125 48.484375 33.40625 48.484375 
Q 26.265625 48.484375 22.1875 42.84375 
Q 18.109375 37.203125 18.109375 27.296875 
Q 18.109375 17.390625 22.1875 11.75 
Q 26.265625 6.109375 33.40625 6.109375 
Q 40.53125 6.109375 44.609375 11.75 
Q 48.6875 17.390625 48.6875 27.296875 
z
" id="DejaVuSans-112"/>
       <path d="M 30.609375 48.390625 
Q 23.390625 48.390625 19.1875 42.75 
Q 14.984375 37.109375 14.984375 27.296875 
Q 14.984375 17.484375 19.15625 11.84375 
Q 23.34375 6.203125 30.609375 6.203125 
Q 37.796875 6.203125 41.984375 11.859375 
Q 46.1875 17.53125 46.1875 27.296875 
Q 46.1875 37.015625 41.984375 42.703125 
Q 37.796875 48.390625 30.609375 48.390625 
z
M 30.609375 56 
Q 42.328125 56 49.015625 48.375 
Q 55.71875 40.765625 55.71875 27.296875 
Q 55.71875 13.875 49.015625 6.21875 
Q 42.328125 -1.421875 30.609375 -1.421875 
Q 18.84375 -1.421875 12.171875 6.21875 
Q 5.515625 13.875 5.515625 27.296875 
Q 5.515625 40.765625 12.171875 48.375 
Q 18.84375 56 30.609375 56 
z
" id="DejaVuSans-111"/>
       <path d="M 54.890625 33.015625 
L 54.890625 0 
L 45.90625 0 
L 45.90625 32.71875 
Q 45.90625 40.484375 42.875 44.328125 
Q 39.84375 48.1875 33.796875 48.1875 
Q 26.515625 48.1875 22.3125 43.546875 
Q 18.109375 38.921875 18.109375 30.90625 
L 18.109375 0 
L 9.078125 0 
L 9.078125 54.6875 
L 18.109375 54.6875 
L 18.109375 46.1875 
Q 21.34375 51.125 25.703125 53.5625 
Q 30.078125 56 35.796875 56 
Q 45.21875 56 50.046875 50.171875 
Q 54.890625 44.34375 54.890625 33.015625 
z
" id="DejaVuSans-110"/>
       <path d="M 9.421875 54.6875 
L 18.40625 54.6875 
L 18.40625 0 
L 9.421875 0 
z
M 9.421875 75.984375 
L 18.40625 75.984375 
L 18.40625 64.59375 
L 9.421875 64.59375 
z
" id="DejaVuSans-105"/>
       <path d="M 37.109375 75.984375 
L 37.109375 68.5 
L 28.515625 68.5 
Q 23.6875 68.5 21.796875 66.546875 
Q 19.921875 64.59375 19.921875 59.515625 
L 19.921875 54.6875 
L 34.71875 54.6875 
L 34.71875 47.703125 
L 19.921875 47.703125 
L 19.921875 0 
L 10.890625 0 
L 10.890625 47.703125 
L 2.296875 47.703125 
L 2.296875 54.6875 
L 10.890625 54.6875 
L 10.890625 58.5 
Q 10.890625 67.625 15.140625 71.796875 
Q 19.390625 75.984375 28.609375 75.984375 
z
" id="DejaVuSans-102"/>
       <path d="M 56.203125 29.59375 
L 56.203125 25.203125 
L 14.890625 25.203125 
Q 15.484375 15.921875 20.484375 11.0625 
Q 25.484375 6.203125 34.421875 6.203125 
Q 39.59375 6.203125 44.453125 7.46875 
Q 49.3125 8.734375 54.109375 11.28125 
L 54.109375 2.78125 
Q 49.265625 0.734375 44.1875 -0.34375 
Q 39.109375 -1.421875 33.890625 -1.421875 
Q 20.796875 -1.421875 13.15625 6.1875 
Q 5.515625 13.8125 5.515625 26.8125 
Q 5.515625 40.234375 12.765625 48.109375 
Q 20.015625 56 32.328125 56 
Q 43.359375 56 49.78125 48.890625 
Q 56.203125 41.796875 56.203125 29.59375 
z
M 47.21875 32.234375 
Q 47.125 39.59375 43.09375 43.984375 
Q 39.0625 48.390625 32.421875 48.390625 
Q 24.90625 48.390625 20.390625 44.140625 
Q 15.875 39.890625 15.1875 32.171875 
z
" id="DejaVuSans-101"/>
       <path d="M 48.78125 52.59375 
L 48.78125 44.1875 
Q 44.96875 46.296875 41.140625 47.34375 
Q 37.3125 48.390625 33.40625 48.390625 
Q 24.65625 48.390625 19.8125 42.84375 
Q 14.984375 37.3125 14.984375 27.296875 
Q 14.984375 17.28125 19.8125 11.734375 
Q 24.65625 6.203125 33.40625 6.203125 
Q 37.3125 6.203125 41.140625 7.25 
Q 44.96875 8.296875 48.78125 10.40625 
L 48.78125 2.09375 
Q 45.015625 0.34375 40.984375 -0.53125 
Q 36.96875 -1.421875 32.421875 -1.421875 
Q 20.0625 -1.421875 12.78125 6.34375 
Q 5.515625 14.109375 5.515625 27.296875 
Q 5.515625 40.671875 12.859375 48.328125 
Q 20.21875 56 33.015625 56 
Q 37.15625 56 41.109375 55.140625 
Q 45.0625 54.296875 48.78125 52.59375 
z
" id="DejaVuSans-99"/>
       <path d="M 18.3125 70.21875 
L 18.3125 54.6875 
L 36.8125 54.6875 
L 36.8125 47.703125 
L 18.3125 47.703125 
L 18.3125 18.015625 
Q 18.3125 11.328125 20.140625 9.421875 
Q 21.96875 7.515625 27.59375 7.515625 
L 36.8125 7.515625 
L 36.8125 0 
L 27.59375 0 
Q 17.1875 0 13.234375 3.875 
Q 9.28125 7.765625 9.28125 18.015625 
L 9.28125 47.703125 
L 2.6875 47.703125 
L 2.6875 54.6875 
L 9.28125 54.6875 
L 9.28125 70.21875 
z
" id="DejaVuSans-116"/>
       <path d="M 45.40625 46.390625 
L 45.40625 75.984375 
L 54.390625 75.984375 
L 54.390625 0 
L 45.40625 0 
L 45.40625 8.203125 
Q 42.578125 3.328125 38.25 0.953125 
Q 33.9375 -1.421875 27.875 -1.421875 
Q 17.96875 -1.421875 11.734375 6.484375 
Q 5.515625 14.40625 5.515625 27.296875 
Q 5.515625 40.1875 11.734375 48.09375 
Q 17.96875 56 27.875 56 
Q 33.9375 56 38.25 53.625 
Q 42.578125 51.265625 45.40625 46.390625 
z
M 14.796875 27.296875 
Q 14.796875 17.390625 18.875 11.75 
Q 22.953125 6.109375 30.078125 6.109375 
Q 37.203125 6.109375 41.296875 11.75 
Q 45.40625 17.390625 45.40625 27.296875 
Q 45.40625 37.203125 41.296875 42.84375 
Q 37.203125 48.484375 30.078125 48.484375 
Q 22.953125 48.484375 18.875 42.84375 
Q 14.796875 37.203125 14.796875 27.296875 
z
" id="DejaVuSans-100"/>
      </defs>
      <use xlink:href="#DejaVuSans-37"/>
      <use x="95.019531" xlink:href="#DejaVuSans-32"/>
      <use x="126.806641" xlink:href="#DejaVuSans-112"/>
      <use x="190.283203" xlink:href="#DejaVuSans-111"/>
      <use x="251.464844" xlink:href="#DejaVuSans-112"/>
      <use x="314.941406" xlink:href="#DejaVuSans-110"/>
      <use x="378.320312" xlink:href="#DejaVuSans-32"/>
      <use x="410.107422" xlink:href="#DejaVuSans-105"/>
      <use x="437.890625" xlink:href="#DejaVuSans-110"/>
      <use x="501.269531" xlink:href="#DejaVuSans-102"/>
      <use x="536.474609" xlink:href="#DejaVuSans-101"/>
      <use x="597.998047" xlink:href="#DejaVuSans-99"/>
      <use x="652.978516" xlink:href="#DejaVuSans-116"/>
      <use x="692.1875" xlink:href="#DejaVuSans-101"/>
      <use x="753.710938" xlink:href="#DejaVuSans-100"/>
     </g>
    </g>
   </g>
   <g id="line2d_13">
    <path clip-path="url(#pc9dce9a033)" d="M 48.621307 236.940453 
L 51.695687 236.500675 
L 54.770067 235.994931 
L 57.844447 235.342594 
L 60.918827 234.389742 
L 63.993208 233.070409 
L 67.067588 231.413913 
L 70.141968 229.193036 
L 73.216348 226.378459 
L 76.290728 221.914716 
L 79.365108 215.757829 
L 82.439489 208.083709 
L 85.513869 198.291326 
L 88.588249 186.160792 
L 91.662629 171.325626 
L 94.737009 153.646564 
L 97.811389 132.815763 
L 100.88577 109.690787 
L 103.96015 88.654756 
L 107.03453 70.46995 
L 110.10891 55.546828 
L 113.18329 45.813083 
L 116.25767 41.833095 
L 119.332051 41.855084 
L 122.406431 46.311497 
L 125.480811 51.390929 
L 128.555191 58.566635 
L 131.629571 65.94024 
L 134.703951 73.211231 
L 137.778332 80.30631 
L 140.852712 86.873657 
L 143.927092 93.375036 
L 147.001472 100.206249 
L 150.075852 106.502399 
L 153.150232 112.080246 
L 156.224613 117.738719 
L 159.298993 123.353213 
L 162.373373 128.652534 
L 165.447753 133.387474 
L 168.522133 137.462747 
L 171.596513 141.691942 
L 174.670894 145.987103 
L 177.745274 149.050888 
L 180.819654 152.305242 
L 183.894034 155.024534 
L 186.968414 158.440141 
L 190.042794 161.694495 
L 193.117175 164.677654 
L 196.191555 167.089101 
L 199.265935 169.67646 
L 202.340315 172.131885 
L 205.414695 174.550662 
L 208.489075 176.991428 
L 211.563456 179.087702 
L 214.637836 180.993405 
L 217.712216 182.86246 
L 220.786596 184.284408 
L 223.860976 186.285396 
L 226.935356 187.260237 
L 230.009737 188.748151 
L 233.084117 190.294702 
L 236.158497 192.002506 
L 239.232877 193.358487 
L 242.307257 194.575205 
L 245.381637 195.835901 
L 248.456018 197.03796 
L 251.530398 198.064108 
L 254.604778 199.310144 
L 257.679158 200.38027 
L 260.753538 201.545681 
L 263.827918 202.703762 
L 266.902299 203.847184 
L 269.976679 204.756058 
L 273.051059 205.474361 
L 276.125439 206.214654 
L 279.199819 207.145516 
L 282.274199 208.113027 
L 285.34858 209.43236 
L 288.42296 210.048049 
L 291.49734 210.964252 
L 294.57172 211.345393 
L 297.6461 211.770511 
L 300.72048 212.503474 
L 303.794861 213.214448 
L 306.869241 214.020707 
L 309.943621 214.511792 
L 313.018001 215.032196 
L 316.092381 215.53061 
L 319.166761 216.051014 
L 322.241142 216.805966 
L 325.315522 217.135799 
L 328.389902 217.670862 
L 331.464282 218.000695 
L 334.538662 218.557747 
L 337.613042 219.07082 
L 340.687423 219.627872 
L 343.761803 220.111628 
L 346.836183 220.492768 
L 349.910563 221.005842 
L 352.984943 221.335675 
" style="fill:none;stroke:#e41a1c;stroke-linecap:square;stroke-width:1.5;"/>
   </g>
   <g id="line2d_14">
    <path clip-path="url(#pc9dce9a033)" d="M 48.621307 236.911134 
L 51.695687 236.59596 
L 54.770067 236.097545 
L 57.844447 235.357253 
L 60.918827 234.419061 
L 63.993208 233.06308 
L 67.067588 231.259991 
L 70.141968 229.017125 
L 73.216348 225.535552 
L 76.290728 221.24039 
L 79.365108 215.464644 
L 82.439489 207.900468 
L 85.513869 197.646319 
L 88.588249 185.127315 
L 91.662629 169.097419 
L 94.737009 150.846647 
L 97.811389 130.353008 
L 100.88577 109.287658 
L 103.96015 89.336412 
L 107.03453 71.166265 
L 110.10891 56.463032 
L 113.18329 47.396282 
L 116.25767 43.042484 
L 119.332051 43.878061 
L 122.406431 46.582694 
L 125.480811 50.841207 
L 128.555191 57.430543 
L 131.629571 64.826137 
L 134.703951 71.298198 
L 137.778332 79.104251 
L 140.852712 86.499846 
L 143.927092 93.250433 
L 147.001472 99.473287 
L 150.075852 106.09927 
L 153.150232 111.640468 
L 156.224613 117.12303 
L 159.298993 122.261099 
L 162.373373 127.105983 
L 165.447753 131.357167 
L 168.522133 135.666988 
L 171.596513 139.705613 
L 174.670894 143.824863 
L 177.745274 147.313766 
L 180.819654 151.139832 
L 183.894034 154.51146 
L 186.968414 157.575245 
L 190.042794 160.602381 
L 193.117175 163.585539 
L 196.191555 166.187557 
L 199.265935 168.584345 
L 202.340315 170.797893 
L 205.414695 173.377922 
L 208.489075 175.987269 
L 211.563456 178.186158 
L 214.637836 180.143168 
L 217.712216 181.711708 
L 220.786596 183.969234 
L 223.860976 185.699026 
L 226.935356 187.406829 
L 230.009737 188.990029 
L 233.084117 190.631865 
L 236.158497 191.951198 
L 239.232877 193.336498 
L 242.307257 194.553216 
L 245.381637 195.689308 
L 248.456018 197.023301 
L 251.530398 198.181382 
L 254.604778 199.508044 
L 257.679158 200.7834 
L 260.753538 201.75091 
L 263.827918 202.908992 
L 266.902299 204.015765 
L 269.976679 204.844013 
L 273.051059 205.569646 
L 276.125439 206.441872 
L 279.199819 207.651261 
L 282.274199 208.24496 
L 285.34858 209.161164 
L 288.42296 210.304586 
L 291.49734 210.876297 
L 294.57172 211.491985 
L 297.6461 212.100345 
L 300.72048 212.422848 
L 303.794861 213.229107 
L 306.869241 214.028037 
L 309.943621 214.577759 
L 313.018001 214.95157 
L 316.092381 215.486633 
L 319.166761 216.116981 
L 322.241142 216.659373 
L 325.315522 217.363017 
L 328.389902 217.663532 
L 331.464282 218.242573 
L 334.538662 218.557747 
L 337.613042 219.129457 
L 340.687423 219.591224 
L 343.761803 219.86242 
L 346.836183 220.544076 
L 349.910563 220.829931 
L 352.984943 221.167094 
" style="fill:none;stroke:#e41a1c;stroke-linecap:square;stroke-width:1.5;"/>
   </g>
   <g id="line2d_15">
    <path clip-path="url(#pc9dce9a033)" d="M 48.621307 236.896475 
L 51.695687 236.522664 
L 54.770067 235.958282 
L 57.844447 235.327934 
L 60.918827 234.265138 
L 63.993208 232.997113 
L 67.067588 230.959476 
L 70.141968 228.430755 
L 73.216348 224.99316 
L 76.290728 220.44879 
L 79.365108 213.940081 
L 82.439489 205.855502 
L 85.513869 195.190894 
L 88.588249 181.550457 
L 91.662629 165.476583 
L 94.737009 146.573474 
L 97.811389 125.881935 
L 100.88577 104.435444 
L 103.96015 82.615143 
L 107.03453 65.258585 
L 110.10891 52.255825 
L 113.18329 43.350328 
L 116.25767 39.868755 
L 119.332051 40.843595 
L 122.406431 44.772276 
L 125.480811 51.068426 
L 128.555191 58.66192 
L 131.629571 66.592577 
L 134.703951 74.537893 
L 137.778332 81.838203 
L 140.852712 89.101863 
L 143.927092 95.764495 
L 147.001472 102.002008 
L 150.075852 108.679299 
L 153.150232 114.477034 
L 156.224613 119.233963 
L 159.298993 124.877776 
L 162.373373 128.901741 
L 165.447753 133.108948 
L 168.522133 137.580021 
L 171.596513 141.303471 
L 174.670894 145.27613 
L 177.745274 148.61111 
L 180.819654 152.312572 
L 183.894034 155.50829 
L 186.968414 158.352185 
L 190.042794 161.196081 
L 193.117175 164.047306 
L 196.191555 166.554039 
L 199.265935 168.599005 
L 202.340315 171.06176 
L 205.414695 173.267977 
L 208.489075 175.430218 
L 211.563456 177.702402 
L 214.637836 179.586116 
L 217.712216 181.726368 
L 220.786596 183.617412 
L 223.860976 185.21527 
L 226.935356 186.688526 
L 230.009737 188.37434 
L 233.084117 189.642366 
L 236.158497 190.54391 
L 239.232877 192.068472 
L 242.307257 193.556387 
L 245.381637 194.707138 
L 248.456018 196.063119 
L 251.530398 197.155234 
L 254.604778 198.137404 
L 257.679158 198.885026 
L 260.753538 199.654637 
L 263.827918 200.717433 
L 266.902299 202.014777 
L 269.976679 202.93831 
L 273.051059 204.045084 
L 276.125439 205.401065 
L 279.199819 206.060731 
L 282.274199 206.86699 
L 285.34858 207.724557 
L 288.42296 208.64809 
L 291.49734 209.674238 
L 294.57172 210.495156 
L 297.6461 211.147493 
L 300.72048 211.983071 
L 303.794861 212.796659 
L 306.869241 213.676215 
L 309.943621 214.137981 
L 313.018001 214.819636 
L 316.092381 215.266744 
L 319.166761 215.889762 
L 322.241142 216.417495 
L 325.315522 217.157788 
L 328.389902 217.406995 
L 331.464282 217.678191 
L 334.538662 218.176606 
L 337.613042 218.565076 
L 340.687423 219.334687 
L 343.761803 220.016342 
L 346.836183 220.25089 
L 349.910563 220.478109 
L 352.984943 220.895898 
" style="fill:none;stroke:#e41a1c;stroke-linecap:square;stroke-width:1.5;"/>
   </g>
   <g id="line2d_16">
    <path clip-path="url(#pc9dce9a033)" d="M 48.621307 236.955112 
L 51.695687 236.59596 
L 54.770067 236.00959 
L 57.844447 235.261968 
L 60.918827 234.133205 
L 63.993208 232.777224 
L 67.067588 230.658962 
L 70.141968 227.844385 
L 73.216348 224.326163 
L 76.290728 219.202754 
L 79.365108 212.481485 
L 82.439489 204.001106 
L 85.513869 192.89672 
L 88.588249 178.823835 
L 91.662629 161.863077 
L 94.737009 142.461553 
L 97.811389 121.396203 
L 100.88577 99.59789 
L 103.96015 79.287492 
L 107.03453 61.872297 
L 110.10891 49.587841 
L 113.18329 43.357658 
L 116.25767 39.443636 
L 119.332051 41.246725 
L 122.406431 45.615183 
L 125.480811 51.830707 
L 128.555191 59.218972 
L 131.629571 65.866944 
L 134.703951 73.651008 
L 137.778332 81.552347 
L 140.852712 88.823338 
L 143.927092 95.573925 
L 147.001472 101.936041 
L 150.075852 107.982984 
L 153.150232 113.370261 
L 156.224613 119.351237 
L 159.298993 124.533283 
L 162.373373 129.400156 
L 165.447753 134.215721 
L 168.522133 138.789409 
L 171.596513 142.556838 
L 174.670894 146.932625 
L 177.745274 150.421528 
L 180.819654 153.851794 
L 183.894034 156.058012 
L 186.968414 159.077818 
L 190.042794 162.244218 
L 193.117175 164.853565 
L 196.191555 167.440923 
L 199.265935 170.101578 
L 202.340315 172.43973 
L 205.414695 174.755892 
L 208.489075 176.727562 
L 211.563456 178.882472 
L 214.637836 180.729538 
L 217.712216 182.056201 
L 220.786596 183.954575 
L 223.860976 185.801641 
L 226.935356 187.443477 
L 230.009737 189.048666 
L 233.084117 190.33868 
L 236.158497 191.555398 
L 239.232877 192.970016 
L 242.307257 194.28202 
L 245.381637 195.630671 
L 248.456018 196.495567 
L 251.530398 197.638989 
L 254.604778 198.687126 
L 257.679158 199.779241 
L 260.753538 201.245166 
L 263.827918 202.425236 
L 266.902299 203.312121 
L 269.976679 204.396906 
L 273.051059 205.459702 
L 276.125439 206.178005 
L 279.199819 207.020913 
L 282.274199 207.885809 
L 285.34858 208.288938 
L 288.42296 209.073208 
L 291.49734 209.703556 
L 294.57172 210.311915 
L 297.6461 211.0009 
L 300.72048 211.79983 
L 303.794861 212.701374 
L 306.869241 212.98723 
L 309.943621 213.317063 
L 313.018001 214.225937 
L 316.092381 214.607077 
L 319.166761 215.105492 
L 322.241142 216.043684 
L 325.315522 216.439484 
L 328.389902 217.121139 
L 331.464282 217.780806 
L 334.538662 218.198595 
L 337.613042 218.748317 
L 340.687423 218.916898 
L 343.761803 219.210083 
L 346.836183 219.539917 
L 349.910563 219.715828 
L 352.984943 220.302198 
" style="fill:none;stroke:#e41a1c;stroke-linecap:square;stroke-width:1.5;"/>
   </g>
   <g id="line2d_17">
    <path clip-path="url(#pc9dce9a033)" d="M 48.621307 236.962441 
L 51.695687 236.632608 
L 54.770067 236.178171 
L 57.844447 235.481857 
L 60.918827 234.587642 
L 63.993208 233.370924 
L 67.067588 231.729087 
L 70.141968 229.552188 
L 73.216348 226.415107 
L 76.290728 222.083297 
L 79.365108 216.483462 
L 82.439489 209.219801 
L 85.513869 199.859866 
L 88.588249 187.59007 
L 91.662629 172.615641 
L 94.737009 155.097831 
L 97.811389 135.564373 
L 100.88577 113.590149 
L 103.96015 91.835815 
L 107.03453 72.185083 
L 110.10891 56.30911 
L 113.18329 45.761775 
L 116.25767 40.792288 
L 119.332051 40.894903 
L 122.406431 44.039313 
L 125.480811 49.126074 
L 128.555191 55.51751 
L 131.629571 62.290086 
L 134.703951 70.587224 
L 137.778332 78.217366 
L 140.852712 85.869498 
L 143.927092 92.876622 
L 147.001472 99.634538 
L 150.075852 106.363137 
L 153.150232 112.520024 
L 156.224613 118.215144 
L 159.298993 123.133325 
L 162.373373 128.102812 
L 165.447753 133.138266 
L 168.522133 137.103595 
L 171.596513 141.017616 
L 174.670894 144.337937 
L 177.745274 148.295936 
L 180.819654 152.114672 
L 183.894034 155.332379 
L 186.968414 157.993033 
L 190.042794 160.873577 
L 193.117175 163.695484 
L 196.191555 166.883872 
L 199.265935 169.141397 
L 202.340315 170.819882 
L 205.414695 172.674278 
L 208.489075 175.151692 
L 211.563456 177.181999 
L 214.637836 179.798676 
L 217.712216 181.755686 
L 220.786596 183.558775 
L 223.860976 184.988052 
L 226.935356 186.59324 
L 230.009737 188.315703 
L 233.084117 189.994188 
L 236.158497 191.159598 
L 239.232877 192.50825 
L 242.307257 193.88622 
L 245.381637 195.293508 
L 248.456018 196.84006 
L 251.530398 197.954163 
L 254.604778 198.679796 
L 257.679158 199.603329 
L 260.753538 200.453566 
L 263.827918 201.574999 
L 266.902299 202.410577 
L 269.976679 203.275473 
L 273.051059 204.32361 
L 276.125439 205.210495 
L 279.199819 206.075391 
L 282.274199 206.801024 
L 285.34858 207.636601 
L 288.42296 208.230301 
L 291.49734 209.278438 
L 294.57172 210.260608 
L 297.6461 211.132834 
L 300.72048 211.689885 
L 303.794861 212.415519 
L 306.869241 213.192459 
L 309.943621 213.96207 
L 313.018001 214.541111 
L 316.092381 215.032196 
L 319.166761 215.362029 
L 322.241142 215.999706 
L 325.315522 216.417495 
L 328.389902 217.084491 
L 331.464282 217.971376 
L 334.538662 218.411154 
L 337.613042 218.938887 
L 340.687423 219.371335 
L 343.761803 219.752476 
L 346.836183 220.126287 
L 349.910563 220.632031 
L 352.984943 220.939875 
" style="fill:none;stroke:#e41a1c;stroke-linecap:square;stroke-width:1.5;"/>
   </g>
   <g id="line2d_18">
    <path clip-path="url(#pc9dce9a033)" d="M 48.621307 236.99909 
L 51.695687 236.647267 
L 54.770067 236.310105 
L 57.844447 235.921634 
L 60.918827 235.364583 
L 63.993208 234.63162 
L 67.067588 233.825361 
L 70.141968 232.747906 
L 73.216348 231.406584 
L 76.290728 229.772077 
L 79.365108 227.639155 
L 82.439489 225.249697 
L 85.513869 222.046649 
L 88.588249 218.264561 
L 91.662629 213.602918 
L 94.737009 208.406212 
L 97.811389 201.95614 
L 100.88577 194.619183 
L 103.96015 186.270737 
L 107.03453 177.365239 
L 110.10891 167.440923 
L 113.18329 158.476789 
L 116.25767 148.706395 
L 119.332051 139.998798 
L 122.406431 130.712159 
L 125.480811 123.697706 
L 128.555191 118.383726 
L 131.629571 114.029927 
L 134.703951 111.281317 
L 137.778332 110.716935 
L 140.852712 110.526365 
L 143.927092 111.376602 
L 147.001472 113.472875 
L 150.075852 116.199497 
L 153.150232 119.050722 
L 156.224613 122.356384 
L 159.298993 125.706024 
L 162.373373 129.429475 
L 165.447753 132.6765 
L 168.522133 136.268017 
L 171.596513 139.734931 
L 174.670894 142.417575 
L 177.745274 145.635281 
L 180.819654 148.772362 
L 183.894034 152.143991 
L 186.968414 155.068512 
L 190.042794 157.47996 
L 193.117175 159.532255 
L 196.191555 161.562562 
L 199.265935 164.223217 
L 202.340315 166.898531 
L 205.414695 169.368616 
L 208.489075 171.523526 
L 211.563456 174.191511 
L 214.637836 176.214488 
L 217.712216 178.34008 
L 220.786596 180.29709 
L 223.860976 182.254101 
L 226.935356 183.998552 
L 230.009737 185.999541 
L 233.084117 187.98587 
L 236.158497 188.982699 
L 239.232877 190.74181 
L 242.307257 192.420294 
L 245.381637 193.717639 
L 248.456018 195.110268 
L 251.530398 196.334316 
L 254.604778 197.770923 
L 257.679158 198.694456 
L 260.753538 199.339463 
L 263.827918 200.688114 
L 266.902299 202.102732 
L 269.976679 203.070243 
L 273.051059 204.220995 
L 276.125439 205.129869 
L 279.199819 205.877491 
L 282.274199 206.603124 
L 285.34858 207.431372 
L 288.42296 207.959105 
L 291.49734 208.677408 
L 294.57172 209.571623 
L 297.6461 210.238619 
L 300.72048 210.61243 
L 303.794861 211.0009 
L 306.869241 211.785171 
L 309.943621 212.510804 
L 313.018001 213.067855 
L 316.092381 213.881444 
L 319.166761 214.680373 
L 322.241142 215.471973 
L 325.315522 216.065673 
L 328.389902 216.476132 
L 331.464282 217.10648 
L 334.538662 217.90541 
L 337.613042 218.022684 
L 340.687423 218.462461 
L 343.761803 219.026843 
L 346.836183 219.525257 
L 349.910563 219.767135 
L 352.984943 220.111628 
" style="fill:none;stroke:#999999;stroke-linecap:square;stroke-width:1.5;"/>
   </g>
   <g id="line2d_19">
    <path clip-path="url(#pc9dce9a033)" d="M 48.621307 237.101704 
L 51.695687 236.815849 
L 54.770067 236.449368 
L 57.844447 236.016919 
L 60.918827 235.452538 
L 63.993208 234.756224 
L 67.067588 233.898657 
L 70.141968 232.923817 
L 73.216348 231.648461 
L 76.290728 230.09458 
L 79.365108 228.049614 
L 82.439489 225.799419 
L 85.513869 223.175412 
L 88.588249 219.569235 
L 91.662629 215.787147 
L 94.737009 210.737034 
L 97.811389 205.159187 
L 100.88577 198.298656 
L 103.96015 190.93971 
L 107.03453 182.693879 
L 110.10891 173.509855 
L 113.18329 163.431617 
L 116.25767 153.382698 
L 119.332051 143.729578 
L 122.406431 135.124595 
L 125.480811 127.259905 
L 128.555191 120.106188 
L 131.629571 116.236145 
L 134.703951 112.234168 
L 137.778332 110.284487 
L 140.852712 109.558854 
L 143.927092 109.500217 
L 147.001472 110.944154 
L 150.075852 113.897994 
L 153.150232 116.580637 
L 156.224613 119.87164 
L 159.298993 123.140654 
L 162.373373 126.314383 
L 165.447753 130.30903 
L 168.522133 133.416792 
L 171.596513 137.645987 
L 174.670894 140.900342 
L 177.745274 144.037422 
L 180.819654 147.196492 
L 183.894034 150.406869 
L 186.968414 153.609916 
L 190.042794 156.277901 
L 193.117175 159.554244 
L 196.191555 162.434788 
L 199.265935 164.963509 
L 202.340315 167.433594 
L 205.414695 169.969645 
L 208.489075 171.941315 
L 211.563456 174.462707 
L 214.637836 176.097214 
L 217.712216 178.545309 
L 220.786596 180.267772 
L 223.860976 182.481319 
L 226.935356 184.343045 
L 230.009737 185.926244 
L 233.084117 187.751322 
L 236.158497 189.077984 
L 239.232877 190.045495 
L 242.307257 191.533409 
L 245.381637 193.131268 
L 248.456018 194.487249 
L 251.530398 195.579364 
L 254.604778 196.986652 
L 257.679158 197.895526 
L 260.753538 198.863037 
L 263.827918 199.969811 
L 266.902299 200.981299 
L 269.976679 202.014777 
L 273.051059 203.444054 
L 276.125439 204.352928 
L 279.199819 205.525669 
L 282.274199 206.493179 
L 285.34858 206.86699 
L 288.42296 207.621942 
L 291.49734 208.435531 
L 294.57172 209.381053 
L 297.6461 210.187312 
L 300.72048 210.722375 
L 303.794861 211.535963 
L 306.869241 212.320233 
L 309.943621 213.229107 
L 313.018001 214.145311 
L 316.092381 214.54844 
L 319.166761 215.222766 
L 322.241142 215.757829 
L 325.315522 216.204936 
L 328.389902 216.578747 
L 331.464282 216.820625 
L 334.538662 217.165117 
L 337.613042 217.722169 
L 340.687423 218.235243 
L 343.761803 218.433143 
L 346.836183 218.931558 
L 349.910563 219.356676 
L 352.984943 219.906398 
" style="fill:none;stroke:#999999;stroke-linecap:square;stroke-width:1.5;"/>
   </g>
   <g id="line2d_20">
    <path clip-path="url(#pc9dce9a033)" d="M 48.621307 237.035738 
L 51.695687 236.852497 
L 54.770067 236.544653 
L 57.844447 236.20749 
L 60.918827 235.60646 
L 63.993208 235.005431 
L 67.067588 234.24315 
L 70.141968 233.378254 
L 73.216348 232.220172 
L 76.290728 230.937488 
L 79.365108 229.332299 
L 82.439489 227.287333 
L 85.513869 224.809919 
L 88.588249 221.848749 
L 91.662629 217.971376 
L 94.737009 213.727522 
L 97.811389 208.06172 
L 100.88577 201.94881 
L 103.96015 194.941686 
L 107.03453 187.230918 
L 110.10891 178.882472 
L 113.18329 169.661801 
L 116.25767 160.565733 
L 119.332051 150.795339 
L 122.406431 141.457394 
L 125.480811 133.490088 
L 128.555191 125.654716 
L 131.629571 120.289429 
L 134.703951 116.53666 
L 137.778332 113.685435 
L 140.852712 112.79855 
L 143.927092 112.952472 
L 147.001472 113.033098 
L 150.075852 114.499023 
L 153.150232 117.877982 
L 156.224613 121.05904 
L 159.298993 123.492476 
L 162.373373 126.776149 
L 165.447753 129.480782 
L 168.522133 133.152925 
L 171.596513 136.436599 
L 174.670894 139.822887 
L 177.745274 143.09923 
L 180.819654 146.265629 
L 183.894034 149.468677 
L 186.968414 152.444505 
L 190.042794 155.867441 
L 193.117175 158.733326 
L 196.191555 161.61387 
L 199.265935 164.215887 
L 202.340315 166.773927 
L 205.414695 168.862871 
L 208.489075 170.827211 
L 211.563456 173.194681 
L 214.637836 175.071066 
L 217.712216 177.064725 
L 220.786596 178.750539 
L 223.860976 180.817494 
L 226.935356 182.122168 
L 230.009737 184.496967 
L 233.084117 185.933574 
L 236.158497 187.245577 
L 239.232877 188.843436 
L 242.307257 190.507262 
L 245.381637 191.958528 
L 248.456018 193.593035 
L 251.530398 194.87572 
L 254.604778 195.989823 
L 257.679158 197.345804 
L 260.753538 198.6065 
L 263.827918 199.596 
L 266.902299 200.145722 
L 269.976679 201.010618 
L 273.051059 201.531022 
L 276.125439 202.630466 
L 279.199819 203.707921 
L 282.274199 204.550828 
L 285.34858 205.481691 
L 288.42296 206.573805 
L 291.49734 207.453361 
L 294.57172 208.039731 
L 297.6461 208.362234 
L 300.72048 209.227131 
L 303.794861 210.150664 
L 306.869241 211.066867 
L 309.943621 211.638578 
L 313.018001 212.268926 
L 316.092381 212.891944 
L 319.166761 213.397689 
L 322.241142 214.438496 
L 325.315522 215.120151 
L 328.389902 215.831125 
L 331.464282 216.468803 
L 334.538662 217.143128 
L 337.613042 217.736828 
L 340.687423 218.374506 
L 343.761803 218.858261 
L 346.836183 219.188094 
L 349.910563 219.591224 
L 352.984943 219.86975 
" style="fill:none;stroke:#999999;stroke-linecap:square;stroke-width:1.5;"/>
   </g>
   <g id="line2d_21">
    <path clip-path="url(#pc9dce9a033)" d="M 48.621307 237.094375 
L 51.695687 236.933123 
L 54.770067 236.647267 
L 57.844447 236.383401 
L 60.918827 236.053568 
L 63.993208 235.474527 
L 67.067588 234.858838 
L 70.141968 234.052579 
L 73.216348 233.326946 
L 76.290728 232.286139 
L 79.365108 230.622314 
L 82.439489 228.92184 
L 85.513869 226.715622 
L 88.588249 223.989001 
L 91.662629 220.65402 
L 94.737009 216.204936 
L 97.811389 211.469997 
L 100.88577 205.811524 
L 103.96015 199.119574 
L 107.03453 191.313521 
L 110.10891 183.06036 
L 113.18329 173.678437 
L 116.25767 163.57821 
L 119.332051 154.13032 
L 122.406431 144.550496 
L 125.480811 135.21988 
L 128.555191 126.710183 
L 131.629571 120.743866 
L 134.703951 116.184838 
L 137.778332 112.666616 
L 140.852712 110.62165 
L 143.927092 110.145224 
L 147.001472 111.471887 
L 150.075852 113.091735 
L 153.150232 115.825686 
L 156.224613 118.237133 
L 159.298993 120.831821 
L 162.373373 123.82231 
L 165.447753 127.040016 
L 168.522133 130.287041 
L 171.596513 133.644011 
L 174.670894 137.418769 
L 177.745274 140.805057 
L 180.819654 144.249982 
L 183.894034 147.62161 
L 186.968414 151.051876 
L 190.042794 154.071683 
L 193.117175 157.040182 
L 196.191555 160.294537 
L 199.265935 162.508084 
L 202.340315 165.329991 
L 205.414695 167.785416 
L 208.489075 170.599993 
L 211.563456 172.938144 
L 214.637836 175.166351 
L 217.712216 177.460524 
L 220.786596 179.476172 
L 223.860976 181.205964 
L 226.935356 183.170304 
L 230.009737 184.482308 
L 233.084117 186.256078 
L 236.158497 187.765981 
L 239.232877 189.481114 
L 242.307257 191.013006 
L 245.381637 192.493591 
L 248.456018 193.864231 
L 251.530398 194.927027 
L 254.604778 196.561534 
L 257.679158 197.851548 
L 260.753538 199.20753 
L 263.827918 200.284985 
L 266.902299 201.267155 
L 269.976679 202.234666 
L 273.051059 203.040925 
L 276.125439 204.257643 
L 279.199819 205.29845 
L 282.274199 206.141357 
L 285.34858 207.314098 
L 288.42296 207.900468 
L 291.49734 208.897297 
L 294.57172 210.040719 
L 297.6461 211.044878 
L 300.72048 211.777841 
L 303.794861 212.481485 
L 306.869241 213.500303 
L 309.943621 213.984059 
L 313.018001 214.739011 
L 316.092381 215.406007 
L 319.166761 215.691862 
L 322.241142 216.109651 
L 325.315522 216.586077 
L 328.389902 216.996536 
L 331.464282 217.216425 
L 334.538662 217.582906 
L 337.613042 218.257232 
L 340.687423 218.88025 
L 343.761803 219.400654 
L 346.836183 219.877079 
L 349.910563 220.023672 
L 352.984943 220.353505 
" style="fill:none;stroke:#999999;stroke-linecap:square;stroke-width:1.5;"/>
   </g>
   <g id="line2d_22">
    <path clip-path="url(#pc9dce9a033)" d="M 48.621307 237.006419 
L 51.695687 236.764542 
L 54.770067 236.376071 
L 57.844447 235.877657 
L 60.918827 235.188672 
L 63.993208 234.455709 
L 67.067588 233.64945 
L 70.141968 232.674609 
L 73.216348 231.164706 
L 76.290728 229.354288 
L 79.365108 227.177389 
L 82.439489 224.560712 
L 85.513869 221.313686 
L 88.588249 217.260402 
L 91.662629 212.210289 
L 94.737009 206.251302 
L 97.811389 199.661967 
L 100.88577 191.760628 
L 103.96015 182.818482 
L 107.03453 173.663777 
L 110.10891 163.658836 
L 113.18329 153.434005 
L 116.25767 143.868841 
L 119.332051 135.967502 
L 122.406431 127.868264 
L 125.480811 121.073699 
L 128.555191 115.481193 
L 131.629571 112.769231 
L 134.703951 110.870858 
L 137.778332 109.734765 
L 140.852712 109.463569 
L 143.927092 110.724265 
L 147.001472 113.516853 
L 150.075852 115.759719 
L 153.150232 118.508329 
L 156.224613 122.173143 
L 159.298993 125.96989 
L 162.373373 129.473452 
L 165.447753 133.702648 
L 168.522133 137.323484 
L 171.596513 140.636475 
L 174.670894 143.656282 
L 177.745274 147.079218 
L 180.819654 149.585951 
L 183.894034 152.796328 
L 186.968414 155.69153 
L 190.042794 158.806622 
L 193.117175 161.731144 
L 196.191555 164.55305 
L 199.265935 167.191716 
L 202.340315 169.654471 
L 205.414695 171.772733 
L 208.489075 173.890996 
L 211.563456 175.796699 
L 214.637836 177.775698 
L 217.712216 180.091861 
L 220.786596 181.389205 
L 223.860976 183.133656 
L 226.935356 185.03203 
L 230.009737 186.783811 
L 233.084117 188.865425 
L 236.158497 190.470613 
L 239.232877 191.797276 
L 242.307257 193.329168 
L 245.381637 194.780435 
L 248.456018 195.608682 
L 251.530398 197.096597 
L 254.604778 198.298656 
L 257.679158 199.104915 
L 260.753538 199.771911 
L 263.827918 200.666125 
L 266.902299 201.692273 
L 269.976679 202.520521 
L 273.051059 203.106891 
L 276.125439 203.979117 
L 279.199819 204.836684 
L 282.274199 205.972776 
L 285.34858 206.896309 
L 288.42296 207.511998 
L 291.49734 208.186323 
L 294.57172 209.080538 
L 297.6461 209.894127 
L 300.72048 210.854308 
L 303.794861 211.176811 
L 306.869241 211.968411 
L 309.943621 212.906604 
L 313.018001 213.36837 
L 316.092381 213.9694 
L 319.166761 214.416507 
L 322.241142 215.098162 
L 325.315522 215.72851 
L 328.389902 216.248914 
L 331.464282 216.857273 
L 334.538662 217.355688 
L 337.613042 218.279221 
L 340.687423 218.88758 
L 343.761803 219.598554 
L 346.836183 219.767135 
L 349.910563 220.243561 
L 352.984943 220.763964 
" style="fill:none;stroke:#999999;stroke-linecap:square;stroke-width:1.5;"/>
   </g>
   <g id="line2d_23">
    <path clip-path="url(#pc9dce9a033)" d="M 48.621307 237.101704 
L 51.695687 236.977101 
L 54.770067 236.80119 
L 57.844447 236.625279 
L 60.918827 236.427379 
L 63.993208 236.229479 
L 67.067588 236.016919 
L 70.141968 235.745723 
L 73.216348 235.41589 
L 76.290728 234.895486 
L 79.365108 234.331105 
L 82.439489 233.810702 
L 85.513869 233.231661 
L 88.588249 232.542676 
L 91.662629 231.890339 
L 94.737009 231.098739 
L 97.811389 230.160547 
L 100.88577 229.280992 
L 103.96015 228.32814 
L 107.03453 227.441255 
L 110.10891 226.312493 
L 113.18329 224.941852 
L 116.25767 223.505245 
L 119.332051 221.995342 
L 122.406431 220.111628 
L 125.480811 218.550417 
L 128.555191 216.659373 
L 131.629571 214.255255 
L 134.703951 212.136993 
L 137.778332 209.410371 
L 140.852712 206.815683 
L 143.927092 203.854513 
L 147.001472 201.054596 
L 150.075852 198.393941 
L 153.150232 195.46942 
L 156.224613 192.750128 
L 159.298993 190.617206 
L 162.373373 188.330362 
L 165.447753 186.094826 
L 168.522133 183.939915 
L 171.596513 181.938927 
L 174.670894 180.135839 
L 177.745274 178.750539 
L 180.819654 177.827006 
L 183.894034 176.859495 
L 186.968414 176.36108 
L 190.042794 175.37891 
L 193.117175 175.093055 
L 196.191555 175.298284 
L 199.265935 175.166351 
L 202.340315 175.606129 
L 205.414695 176.016588 
L 208.489075 176.133862 
L 211.563456 177.094043 
L 214.637836 178.14218 
L 217.712216 179.307591 
L 220.786596 179.659413 
L 223.860976 180.89079 
L 226.935356 182.312738 
L 230.009737 183.016382 
L 233.084117 184.071849 
L 236.158497 185.134645 
L 239.232877 186.629889 
L 242.307257 187.809959 
L 245.381637 188.513603 
L 248.456018 189.591058 
L 251.530398 190.514591 
L 254.604778 191.951198 
L 257.679158 192.69882 
L 260.753538 194.032812 
L 263.827918 195.374134 
L 266.902299 196.107097 
L 269.976679 197.111256 
L 273.051059 198.056778 
L 276.125439 198.767752 
L 279.199819 199.903844 
L 282.274199 200.424248 
L 285.34858 201.003288 
L 288.42296 201.772899 
L 291.49734 202.601147 
L 294.57172 203.348769 
L 297.6461 204.682761 
L 300.72048 205.423054 
L 303.794861 206.28062 
L 306.869241 207.042902 
L 309.943621 207.592624 
L 313.018001 208.157005 
L 316.092381 208.508827 
L 319.166761 209.43236 
L 322.241142 210.502486 
L 325.315522 211.513974 
L 328.389902 212.283585 
L 331.464282 212.869955 
L 334.538662 213.427007 
L 337.613042 214.006048 
L 340.687423 214.54844 
L 343.761803 215.120151 
L 346.836183 215.574588 
L 349.910563 216.087662 
L 352.984943 216.446814 
" style="fill:none;stroke:#ff7f00;stroke-linecap:square;stroke-width:1.5;"/>
   </g>
   <g id="line2d_24">
    <path clip-path="url(#pc9dce9a033)" d="M 48.621307 237.087045 
L 51.695687 236.98443 
L 54.770067 236.859827 
L 57.844447 236.654597 
L 60.918827 236.471356 
L 63.993208 236.222149 
L 67.067588 236.024249 
L 70.141968 235.716405 
L 73.216348 235.342594 
L 76.290728 235.005431 
L 79.365108 234.668268 
L 82.439489 234.294457 
L 85.513869 233.83269 
L 88.588249 233.180354 
L 91.662629 232.608643 
L 94.737009 231.758406 
L 97.811389 230.922828 
L 100.88577 230.204525 
L 103.96015 229.229684 
L 107.03453 228.240185 
L 110.10891 226.928181 
L 113.18329 225.5722 
L 116.25767 224.135593 
L 119.332051 222.479097 
L 122.406431 220.793283 
L 125.480811 218.740987 
L 128.555191 216.644714 
L 131.629571 214.313892 
L 134.703951 211.491985 
L 137.778332 209.065879 
L 140.852712 206.471191 
L 143.927092 204.052413 
L 147.001472 201.208518 
L 150.075852 198.584511 
L 153.150232 195.828571 
L 156.224613 193.167916 
L 159.298993 190.697832 
L 162.373373 188.191099 
L 165.447753 185.62573 
L 168.522133 183.705367 
L 171.596513 181.631083 
L 174.670894 180.289761 
L 177.745274 178.508661 
L 180.819654 177.563139 
L 183.894034 176.676254 
L 186.968414 176.309773 
L 190.042794 175.664766 
L 193.117175 175.415558 
L 196.191555 175.085725 
L 199.265935 174.557992 
L 202.340315 174.99044 
L 205.414695 174.79254 
L 208.489075 175.173681 
L 211.563456 176.251136 
L 214.637836 177.35058 
L 217.712216 178.494002 
L 220.786596 179.073043 
L 223.860976 180.333738 
L 226.935356 181.330568 
L 230.009737 182.254101 
L 233.084117 183.573434 
L 236.158497 184.452989 
L 239.232877 185.6184 
L 242.307257 186.453978 
L 245.381637 187.428818 
L 248.456018 188.608888 
L 251.530398 189.649695 
L 254.604778 190.859084 
L 257.679158 192.149098 
L 260.753538 193.219224 
L 263.827918 194.252701 
L 266.902299 195.286179 
L 269.976679 196.143745 
L 273.051059 197.309156 
L 276.125439 198.547863 
L 279.199819 199.383441 
L 282.274199 200.277655 
L 285.34858 201.281814 
L 288.42296 202.263984 
L 291.49734 203.290132 
L 294.57172 204.411565 
L 297.6461 205.511009 
L 300.72048 206.009424 
L 303.794861 206.757046 
L 306.869241 207.849161 
L 309.943621 208.64809 
L 313.018001 209.051219 
L 316.092381 209.659579 
L 319.166761 210.289927 
L 322.241142 210.824989 
L 325.315522 211.60926 
L 328.389902 211.961082 
L 331.464282 212.803989 
L 334.538662 213.405018 
L 337.613042 213.866785 
L 340.687423 214.673044 
L 343.761803 215.501292 
L 346.836183 216.021695 
L 349.910563 216.029025 
L 352.984943 216.439484 
" style="fill:none;stroke:#ff7f00;stroke-linecap:square;stroke-width:1.5;"/>
   </g>
   <g id="line2d_25">
    <path clip-path="url(#pc9dce9a033)" d="M 48.621307 237.101704 
L 51.695687 236.896475 
L 54.770067 236.764542 
L 57.844447 236.617949 
L 60.918827 236.449368 
L 63.993208 236.163512 
L 67.067588 236.016919 
L 70.141968 235.701746 
L 73.216348 235.364583 
L 76.290728 235.02742 
L 79.365108 234.558324 
L 82.439489 234.103887 
L 85.513869 233.568824 
L 88.588249 232.85785 
L 91.662629 232.227502 
L 94.737009 231.465221 
L 97.811389 230.592995 
L 100.88577 229.51554 
L 103.96015 228.254844 
L 107.03453 227.074774 
L 110.10891 225.623508 
L 113.18329 224.091615 
L 116.25767 222.684327 
L 119.332051 220.903227 
L 122.406431 218.740987 
L 125.480811 216.270903 
L 128.555191 214.020707 
L 131.629571 211.755852 
L 134.703951 209.04389 
L 137.778332 206.207324 
L 140.852712 203.312121 
L 143.927092 200.739422 
L 147.001472 197.844219 
L 150.075852 195.447431 
L 153.150232 192.750128 
L 156.224613 190.170099 
L 159.298993 187.956551 
L 162.373373 185.288567 
L 165.447753 183.44883 
L 168.522133 181.183975 
L 171.596513 179.762028 
L 174.670894 178.450024 
L 177.745274 177.394558 
L 180.819654 176.185169 
L 183.894034 175.371581 
L 186.968414 174.865836 
L 190.042794 174.572651 
L 193.117175 174.59464 
L 196.191555 175.012429 
L 199.265935 175.38624 
L 202.340315 175.37891 
L 205.414695 175.686755 
L 208.489075 176.214488 
L 211.563456 177.064725 
L 214.637836 177.878313 
L 217.712216 178.750539 
L 220.786596 179.70339 
L 223.860976 180.986075 
L 226.935356 181.938927 
L 230.009737 182.877119 
L 233.084117 184.379693 
L 236.158497 185.750333 
L 239.232877 186.534603 
L 242.307257 187.758651 
L 245.381637 188.990029 
L 248.456018 189.884243 
L 251.530398 191.152269 
L 254.604778 192.215065 
L 257.679158 193.387805 
L 260.753538 193.937527 
L 263.827918 195.102938 
L 266.902299 195.931186 
L 269.976679 196.63483 
L 273.051059 197.675637 
L 276.125439 198.467237 
L 279.199819 199.596 
L 282.274199 200.460896 
L 285.34858 201.406418 
L 288.42296 201.890173 
L 291.49734 202.454555 
L 294.57172 203.106891 
L 297.6461 203.781217 
L 300.72048 204.616795 
L 303.794861 204.961287 
L 306.869241 205.576976 
L 309.943621 206.493179 
L 313.018001 207.123527 
L 316.092381 207.907798 
L 319.166761 208.802012 
L 322.241142 209.329745 
L 325.315522 209.864808 
L 328.389902 210.348564 
L 331.464282 210.883626 
L 334.538662 211.235449 
L 337.613042 211.631248 
L 340.687423 212.18097 
L 343.761803 212.767341 
L 346.836183 213.492974 
L 349.910563 214.225937 
L 352.984943 214.782988 
" style="fill:none;stroke:#ff7f00;stroke-linecap:square;stroke-width:1.5;"/>
   </g>
   <g id="line2d_26">
    <path clip-path="url(#pc9dce9a033)" d="M 48.621307 237.079715 
L 51.695687 236.947782 
L 54.770067 236.823179 
L 57.844447 236.683916 
L 60.918827 236.515334 
L 63.993208 236.280786 
L 67.067588 236.082886 
L 70.141968 235.797031 
L 73.216348 235.467197 
L 76.290728 235.108046 
L 79.365108 234.660938 
L 82.439489 234.199172 
L 85.513869 233.722746 
L 88.588249 233.085068 
L 91.662629 232.154206 
L 94.737009 231.347947 
L 97.811389 230.417084 
L 100.88577 229.420255 
L 103.96015 228.445414 
L 107.03453 227.045455 
L 110.10891 225.872715 
L 113.18329 224.458097 
L 116.25767 222.523075 
L 119.332051 220.837261 
L 122.406431 219.195424 
L 125.480811 217.128469 
L 128.555191 214.651055 
L 131.629571 212.430178 
L 134.703951 209.776853 
L 137.778332 207.577964 
L 140.852712 205.041913 
L 143.927092 202.388588 
L 147.001472 199.837878 
L 150.075852 197.103926 
L 153.150232 194.66316 
L 156.224613 191.738639 
L 159.298993 189.36384 
L 162.373373 187.252907 
L 165.447753 185.332545 
L 168.522133 182.928427 
L 171.596513 181.08136 
L 174.670894 179.534809 
L 177.745274 178.032235 
L 180.819654 177.387228 
L 183.894034 176.536991 
L 186.968414 176.214488 
L 190.042794 175.518173 
L 193.117175 175.371581 
L 196.191555 174.924473 
L 199.265935 174.426059 
L 202.340315 174.557992 
L 205.414695 175.056407 
L 208.489075 175.606129 
L 211.563456 176.141191 
L 214.637836 176.998758 
L 217.712216 177.55581 
L 220.786596 178.281443 
L 223.860976 178.699232 
L 226.935356 179.776687 
L 230.009737 180.854142 
L 233.084117 181.865631 
L 236.158497 183.009053 
L 239.232877 184.8268 
L 242.307257 186.050848 
L 245.381637 187.172281 
L 248.456018 188.051836 
L 251.530398 189.334521 
L 254.604778 190.441295 
L 257.679158 191.665343 
L 260.753538 192.691491 
L 263.827918 193.607694 
L 266.902299 194.223383 
L 269.976679 195.110268 
L 273.051059 196.195053 
L 276.125439 197.389782 
L 279.199819 198.401271 
L 282.274199 199.625318 
L 285.34858 200.556181 
L 288.42296 201.479714 
L 291.49734 202.366599 
L 294.57172 203.385417 
L 297.6461 204.418895 
L 300.72048 205.48902 
L 303.794861 206.405224 
L 306.869241 207.387394 
L 309.943621 208.222972 
L 313.018001 208.604112 
L 316.092381 209.337075 
L 319.166761 209.791512 
L 322.241142 210.260608 
L 325.315522 211.140163 
L 328.389902 211.887785 
L 331.464282 212.613419 
L 334.538662 213.229107 
L 337.613042 213.632237 
L 340.687423 213.7715 
L 343.761803 213.95474 
L 346.836183 214.629066 
L 349.910563 215.384018 
L 352.984943 215.72851 
" style="fill:none;stroke:#ff7f00;stroke-linecap:square;stroke-width:1.5;"/>
   </g>
   <g id="line2d_27">
    <path clip-path="url(#pc9dce9a033)" d="M 48.621307 237.116364 
L 51.695687 236.98443 
L 54.770067 236.815849 
L 57.844447 236.698575 
L 60.918827 236.427379 
L 63.993208 236.20749 
L 67.067588 235.994931 
L 70.141968 235.81902 
L 73.216348 235.445209 
L 76.290728 235.108046 
L 79.365108 234.62429 
L 82.439489 234.345764 
L 85.513869 233.796042 
L 88.588249 233.275639 
L 91.662629 232.777224 
L 94.737009 232.029602 
L 97.811389 231.142717 
L 100.88577 230.182536 
L 103.96015 229.280992 
L 107.03453 228.115581 
L 110.10891 227.038126 
L 113.18329 225.704133 
L 116.25767 224.377471 
L 119.332051 222.647679 
L 122.406431 220.785953 
L 125.480811 219.004854 
L 128.555191 217.099151 
L 131.629571 214.651055 
L 134.703951 212.254267 
L 137.778332 209.806171 
L 140.852712 207.27745 
L 143.927092 204.675432 
L 147.001472 201.692273 
L 150.075852 199.141563 
L 153.150232 196.297667 
L 156.224613 193.702979 
L 159.298993 191.460113 
L 162.373373 189.136621 
L 165.447753 186.659207 
L 168.522133 184.43833 
L 171.596513 182.444671 
L 174.670894 180.729538 
L 177.745274 179.652083 
L 180.819654 178.618606 
L 183.894034 177.482513 
L 186.968414 176.456365 
L 190.042794 175.246977 
L 193.117175 174.777881 
L 196.191555 174.492025 
L 199.265935 174.044918 
L 202.340315 174.132874 
L 205.414695 174.623959 
L 208.489075 174.961121 
L 211.563456 175.906643 
L 214.637836 177.181999 
L 217.712216 178.164169 
L 220.786596 179.087702 
L 223.860976 180.370387 
L 226.935356 181.132668 
L 230.009737 182.151486 
L 233.084117 183.302238 
L 236.158497 183.793323 
L 239.232877 185.054019 
L 242.307257 186.329374 
L 245.381637 187.465466 
L 248.456018 188.491614 
L 251.530398 189.620377 
L 254.604778 190.815106 
L 257.679158 191.680002 
L 260.753538 192.852742 
L 263.827918 194.157416 
L 266.902299 195.029642 
L 269.976679 196.217042 
L 273.051059 197.389782 
L 276.125439 198.379282 
L 279.199819 199.427418 
L 282.274199 200.292314 
L 285.34858 201.142551 
L 288.42296 201.648296 
L 291.49734 202.608477 
L 294.57172 203.466043 
L 297.6461 204.345599 
L 300.72048 204.939298 
L 303.794861 205.855502 
L 306.869241 206.412554 
L 309.943621 207.394724 
L 313.018001 208.032401 
L 316.092381 208.684738 
L 319.166761 209.359064 
L 322.241142 209.916116 
L 325.315522 210.355893 
L 328.389902 211.169482 
L 331.464282 211.777841 
L 334.538662 212.59143 
L 337.613042 213.133822 
L 340.687423 213.683544 
L 343.761803 214.394518 
L 346.836183 214.724351 
L 349.910563 215.14947 
L 352.984943 215.677203 
" style="fill:none;stroke:#ff7f00;stroke-linecap:square;stroke-width:1.5;"/>
   </g>
   <g id="patch_3">
    <path d="M 33.403125 247 
L 33.403125 29.56 
" style="fill:none;stroke:#000000;stroke-linecap:square;stroke-linejoin:miter;stroke-width:0.8;"/>
   </g>
   <g id="patch_4">
    <path d="M 368.203125 247 
L 368.203125 29.56 
" style="fill:none;stroke:#000000;stroke-linecap:square;stroke-linejoin:miter;stroke-width:0.8;"/>
   </g>
   <g id="patch_5">
    <path d="M 33.403125 247 
L 368.203125 247 
" style="fill:none;stroke:#000000;stroke-linecap:square;stroke-linejoin:miter;stroke-width:0.8;"/>
   </g>
   <g id="patch_6">
    <path d="M 33.403125 29.56 
L 368.203125 29.56 
" style="fill:none;stroke:#000000;stroke-linecap:square;stroke-linejoin:miter;stroke-width:0.8;"/>
   </g>
  </g>
  <g id="legend_1">
   <g id="line2d_28">
    <path d="M 55.471875 13.098437 
L 75.471875 13.098437 
" style="fill:none;stroke:#e41a1c;stroke-linecap:square;stroke-width:1.5;"/>
   </g>
   <g id="line2d_29"/>
   <g id="text_14">
    <!-- p0=0 -->
    <g transform="translate(83.471875 16.598437)scale(0.1 -0.1)">
     <defs>
      <path d="M 10.59375 45.40625 
L 73.1875 45.40625 
L 73.1875 37.203125 
L 10.59375 37.203125 
z
M 10.59375 25.484375 
L 73.1875 25.484375 
L 73.1875 17.1875 
L 10.59375 17.1875 
z
" id="DejaVuSans-61"/>
     </defs>
     <use xlink:href="#DejaVuSans-112"/>
     <use x="63.476562" xlink:href="#DejaVuSans-48"/>
     <use x="127.099609" xlink:href="#DejaVuSans-61"/>
     <use x="210.888672" xlink:href="#DejaVuSans-48"/>
    </g>
   </g>
   <g id="line2d_30">
    <path d="M 130.925 13.098437 
L 150.925 13.098437 
" style="fill:none;stroke:#999999;stroke-linecap:square;stroke-width:1.5;"/>
   </g>
   <g id="line2d_31"/>
   <g id="text_15">
    <!-- p0=15000 -->
    <g transform="translate(158.925 16.598437)scale(0.1 -0.1)">
     <use xlink:href="#DejaVuSans-112"/>
     <use x="63.476562" xlink:href="#DejaVuSans-48"/>
     <use x="127.099609" xlink:href="#DejaVuSans-61"/>
     <use x="210.888672" xlink:href="#DejaVuSans-49"/>
     <use x="274.511719" xlink:href="#DejaVuSans-53"/>
     <use x="338.134766" xlink:href="#DejaVuSans-48"/>
     <use x="401.757812" xlink:href="#DejaVuSans-48"/>
     <use x="465.380859" xlink:href="#DejaVuSans-48"/>
    </g>
   </g>
   <g id="line2d_32">
    <path d="M 231.828125 13.098437 
L 251.828125 13.098437 
" style="fill:none;stroke:#ff7f00;stroke-linecap:square;stroke-width:1.5;"/>
   </g>
   <g id="line2d_33"/>
   <g id="text_16">
    <!-- p0=30000 -->
    <g transform="translate(259.828125 16.598437)scale(0.1 -0.1)">
     <use xlink:href="#DejaVuSans-112"/>
     <use x="63.476562" xlink:href="#DejaVuSans-48"/>
     <use x="127.099609" xlink:href="#DejaVuSans-61"/>
     <use x="210.888672" xlink:href="#DejaVuSans-51"/>
     <use x="274.511719" xlink:href="#DejaVuSans-48"/>
     <use x="338.134766" xlink:href="#DejaVuSans-48"/>
     <use x="401.757812" xlink:href="#DejaVuSans-48"/>
     <use x="465.380859" xlink:href="#DejaVuSans-48"/>
    </g>
   </g>
  </g>
 </g>
 <defs>
  <clipPath id="pc9dce9a033">
   <rect height="217.44" width="334.8" x="33.403125" y="29.56"/>
  </clipPath>
 </defs>
</svg>
