<?xml version="1.0" encoding="utf-8" standalone="no"?>
<!DOCTYPE svg PUBLIC "-//W3C//DTD SVG 1.1//EN"
  "http://www.w3.org/Graphics/SVG/1.1/DTD/svg11.dtd">
<!-- Created with matplotlib (https://matplotlib.org/) -->
<svg height="263.678125pt" version="1.1" viewBox="0 0 368.203125 263.678125" width="368.203125pt" xmlns="http://www.w3.org/2000/svg" xmlns:xlink="http://www.w3.org/1999/xlink">
 <metadata>
  <rdf:RDF xmlns:cc="http://creativecommons.org/ns#" xmlns:dc="http://purl.org/dc/elements/1.1/" xmlns:rdf="http://www.w3.org/1999/02/22-rdf-syntax-ns#">
   <cc:Work>
    <dc:type rdf:resource="http://purl.org/dc/dcmitype/StillImage"/>
    <dc:date>2021-12-08T02:28:58.674783</dc:date>
    <dc:format>image/svg+xml</dc:format>
    <dc:creator>
     <cc:Agent>
      <dc:title>Matplotlib v3.3.2, https://matplotlib.org/</dc:title>
     </cc:Agent>
    </dc:creator>
   </cc:Work>
  </rdf:RDF>
 </metadata>
 <defs>
  <style type="text/css">*{stroke-linecap:butt;stroke-linejoin:round;}</style>
 </defs>
 <g id="figure_1">
  <g id="patch_1">
   <path d="M 0 263.678125 
L 368.203125 263.678125 
L 368.203125 0 
L 0 0 
z
" style="fill:none;"/>
  </g>
  <g id="axes_1">
   <g id="patch_2">
    <path d="M 33.403125 247 
L 368.203125 247 
L 368.203125 29.56 
L 33.403125 29.56 
z
" style="fill:none;"/>
   </g>
   <g id="matplotlib.axis_1">
    <g id="xtick_1">
     <g id="line2d_1">
      <defs>
       <path d="M 0 0 
L 0 3.5 
" id="m2baaa08ba7" style="stroke:#000000;stroke-width:0.8;"/>
      </defs>
      <g>
       <use style="stroke:#000000;stroke-width:0.8;" x="48.621307" xlink:href="#m2baaa08ba7" y="247"/>
      </g>
     </g>
     <g id="text_1">
      <!-- 0 -->
      <g transform="translate(45.440057 261.598437)scale(0.1 -0.1)">
       <defs>
        <path d="M 31.78125 66.40625 
Q 24.171875 66.40625 20.328125 58.90625 
Q 16.5 51.421875 16.5 36.375 
Q 16.5 21.390625 20.328125 13.890625 
Q 24.171875 6.390625 31.78125 6.390625 
Q 39.453125 6.390625 43.28125 13.890625 
Q 47.125 21.390625 47.125 36.375 
Q 47.125 51.421875 43.28125 58.90625 
Q 39.453125 66.40625 31.78125 66.40625 
z
M 31.78125 74.21875 
Q 44.046875 74.21875 50.515625 64.515625 
Q 56.984375 54.828125 56.984375 36.375 
Q 56.984375 17.96875 50.515625 8.265625 
Q 44.046875 -1.421875 31.78125 -1.421875 
Q 19.53125 -1.421875 13.0625 8.265625 
Q 6.59375 17.96875 6.59375 36.375 
Q 6.59375 54.828125 13.0625 64.515625 
Q 19.53125 74.21875 31.78125 74.21875 
z
" id="DejaVuSans-48"/>
       </defs>
       <use xlink:href="#DejaVuSans-48"/>
      </g>
     </g>
    </g>
    <g id="xtick_2">
     <g id="line2d_2">
      <g>
       <use style="stroke:#000000;stroke-width:0.8;" x="110.10891" xlink:href="#m2baaa08ba7" y="247"/>
      </g>
     </g>
     <g id="text_2">
      <!-- 20 -->
      <g transform="translate(103.74641 261.598437)scale(0.1 -0.1)">
       <defs>
        <path d="M 19.1875 8.296875 
L 53.609375 8.296875 
L 53.609375 0 
L 7.328125 0 
L 7.328125 8.296875 
Q 12.9375 14.109375 22.625 23.890625 
Q 32.328125 33.6875 34.8125 36.53125 
Q 39.546875 41.84375 41.421875 45.53125 
Q 43.3125 49.21875 43.3125 52.78125 
Q 43.3125 58.59375 39.234375 62.25 
Q 35.15625 65.921875 28.609375 65.921875 
Q 23.96875 65.921875 18.8125 64.3125 
Q 13.671875 62.703125 7.8125 59.421875 
L 7.8125 69.390625 
Q 13.765625 71.78125 18.9375 73 
Q 24.125 74.21875 28.421875 74.21875 
Q 39.75 74.21875 46.484375 68.546875 
Q 53.21875 62.890625 53.21875 53.421875 
Q 53.21875 48.921875 51.53125 44.890625 
Q 49.859375 40.875 45.40625 35.40625 
Q 44.1875 33.984375 37.640625 27.21875 
Q 31.109375 20.453125 19.1875 8.296875 
z
" id="DejaVuSans-50"/>
       </defs>
       <use xlink:href="#DejaVuSans-50"/>
       <use x="63.623047" xlink:href="#DejaVuSans-48"/>
      </g>
     </g>
    </g>
    <g id="xtick_3">
     <g id="line2d_3">
      <g>
       <use style="stroke:#000000;stroke-width:0.8;" x="171.596513" xlink:href="#m2baaa08ba7" y="247"/>
      </g>
     </g>
     <g id="text_3">
      <!-- 40 -->
      <g transform="translate(165.234013 261.598437)scale(0.1 -0.1)">
       <defs>
        <path d="M 37.796875 64.3125 
L 12.890625 25.390625 
L 37.796875 25.390625 
z
M 35.203125 72.90625 
L 47.609375 72.90625 
L 47.609375 25.390625 
L 58.015625 25.390625 
L 58.015625 17.1875 
L 47.609375 17.1875 
L 47.609375 0 
L 37.796875 0 
L 37.796875 17.1875 
L 4.890625 17.1875 
L 4.890625 26.703125 
z
" id="DejaVuSans-52"/>
       </defs>
       <use xlink:href="#DejaVuSans-52"/>
       <use x="63.623047" xlink:href="#DejaVuSans-48"/>
      </g>
     </g>
    </g>
    <g id="xtick_4">
     <g id="line2d_4">
      <g>
       <use style="stroke:#000000;stroke-width:0.8;" x="233.084117" xlink:href="#m2baaa08ba7" y="247"/>
      </g>
     </g>
     <g id="text_4">
      <!-- 60 -->
      <g transform="translate(226.721617 261.598437)scale(0.1 -0.1)">
       <defs>
        <path d="M 33.015625 40.375 
Q 26.375 40.375 22.484375 35.828125 
Q 18.609375 31.296875 18.609375 23.390625 
Q 18.609375 15.53125 22.484375 10.953125 
Q 26.375 6.390625 33.015625 6.390625 
Q 39.65625 6.390625 43.53125 10.953125 
Q 47.40625 15.53125 47.40625 23.390625 
Q 47.40625 31.296875 43.53125 35.828125 
Q 39.65625 40.375 33.015625 40.375 
z
M 52.59375 71.296875 
L 52.59375 62.3125 
Q 48.875 64.0625 45.09375 64.984375 
Q 41.3125 65.921875 37.59375 65.921875 
Q 27.828125 65.921875 22.671875 59.328125 
Q 17.53125 52.734375 16.796875 39.40625 
Q 19.671875 43.65625 24.015625 45.921875 
Q 28.375 48.1875 33.59375 48.1875 
Q 44.578125 48.1875 50.953125 41.515625 
Q 57.328125 34.859375 57.328125 23.390625 
Q 57.328125 12.15625 50.6875 5.359375 
Q 44.046875 -1.421875 33.015625 -1.421875 
Q 20.359375 -1.421875 13.671875 8.265625 
Q 6.984375 17.96875 6.984375 36.375 
Q 6.984375 53.65625 15.1875 63.9375 
Q 23.390625 74.21875 37.203125 74.21875 
Q 40.921875 74.21875 44.703125 73.484375 
Q 48.484375 72.75 52.59375 71.296875 
z
" id="DejaVuSans-54"/>
       </defs>
       <use xlink:href="#DejaVuSans-54"/>
       <use x="63.623047" xlink:href="#DejaVuSans-48"/>
      </g>
     </g>
    </g>
    <g id="xtick_5">
     <g id="line2d_5">
      <g>
       <use style="stroke:#000000;stroke-width:0.8;" x="294.57172" xlink:href="#m2baaa08ba7" y="247"/>
      </g>
     </g>
     <g id="text_5">
      <!-- 80 -->
      <g transform="translate(288.20922 261.598437)scale(0.1 -0.1)">
       <defs>
        <path d="M 31.78125 34.625 
Q 24.75 34.625 20.71875 30.859375 
Q 16.703125 27.09375 16.703125 20.515625 
Q 16.703125 13.921875 20.71875 10.15625 
Q 24.75 6.390625 31.78125 6.390625 
Q 38.8125 6.390625 42.859375 10.171875 
Q 46.921875 13.96875 46.921875 20.515625 
Q 46.921875 27.09375 42.890625 30.859375 
Q 38.875 34.625 31.78125 34.625 
z
M 21.921875 38.8125 
Q 15.578125 40.375 12.03125 44.71875 
Q 8.5 49.078125 8.5 55.328125 
Q 8.5 64.0625 14.71875 69.140625 
Q 20.953125 74.21875 31.78125 74.21875 
Q 42.671875 74.21875 48.875 69.140625 
Q 55.078125 64.0625 55.078125 55.328125 
Q 55.078125 49.078125 51.53125 44.71875 
Q 48 40.375 41.703125 38.8125 
Q 48.828125 37.15625 52.796875 32.3125 
Q 56.78125 27.484375 56.78125 20.515625 
Q 56.78125 9.90625 50.3125 4.234375 
Q 43.84375 -1.421875 31.78125 -1.421875 
Q 19.734375 -1.421875 13.25 4.234375 
Q 6.78125 9.90625 6.78125 20.515625 
Q 6.78125 27.484375 10.78125 32.3125 
Q 14.796875 37.15625 21.921875 38.8125 
z
M 18.3125 54.390625 
Q 18.3125 48.734375 21.84375 45.5625 
Q 25.390625 42.390625 31.78125 42.390625 
Q 38.140625 42.390625 41.71875 45.5625 
Q 45.3125 48.734375 45.3125 54.390625 
Q 45.3125 60.0625 41.71875 63.234375 
Q 38.140625 66.40625 31.78125 66.40625 
Q 25.390625 66.40625 21.84375 63.234375 
Q 18.3125 60.0625 18.3125 54.390625 
z
" id="DejaVuSans-56"/>
       </defs>
       <use xlink:href="#DejaVuSans-56"/>
       <use x="63.623047" xlink:href="#DejaVuSans-48"/>
      </g>
     </g>
    </g>
    <g id="xtick_6">
     <g id="line2d_6">
      <g>
       <use style="stroke:#000000;stroke-width:0.8;" x="356.059323" xlink:href="#m2baaa08ba7" y="247"/>
      </g>
     </g>
     <g id="text_6">
      <!-- 100 -->
      <g transform="translate(346.515573 261.598437)scale(0.1 -0.1)">
       <defs>
        <path d="M 12.40625 8.296875 
L 28.515625 8.296875 
L 28.515625 63.921875 
L 10.984375 60.40625 
L 10.984375 69.390625 
L 28.421875 72.90625 
L 38.28125 72.90625 
L 38.28125 8.296875 
L 54.390625 8.296875 
L 54.390625 0 
L 12.40625 0 
z
" id="DejaVuSans-49"/>
       </defs>
       <use xlink:href="#DejaVuSans-49"/>
       <use x="63.623047" xlink:href="#DejaVuSans-48"/>
       <use x="127.246094" xlink:href="#DejaVuSans-48"/>
      </g>
     </g>
    </g>
   </g>
   <g id="matplotlib.axis_2">
    <g id="ytick_1">
     <g id="line2d_7">
      <defs>
       <path d="M 0 0 
L -3.5 0 
" id="mde9671b372" style="stroke:#000000;stroke-width:0.8;"/>
      </defs>
      <g>
       <use style="stroke:#000000;stroke-width:0.8;" x="33.403125" xlink:href="#mde9671b372" y="238.091879"/>
      </g>
     </g>
     <g id="text_7">
      <!-- 0 -->
      <g transform="translate(20.040625 241.891098)scale(0.1 -0.1)">
       <use xlink:href="#DejaVuSans-48"/>
      </g>
     </g>
    </g>
    <g id="ytick_2">
     <g id="line2d_8">
      <g>
       <use style="stroke:#000000;stroke-width:0.8;" x="33.403125" xlink:href="#mde9671b372" y="198.436782"/>
      </g>
     </g>
     <g id="text_8">
      <!-- 10 -->
      <g transform="translate(13.678125 202.236001)scale(0.1 -0.1)">
       <use xlink:href="#DejaVuSans-49"/>
       <use x="63.623047" xlink:href="#DejaVuSans-48"/>
      </g>
     </g>
    </g>
    <g id="ytick_3">
     <g id="line2d_9">
      <g>
       <use style="stroke:#000000;stroke-width:0.8;" x="33.403125" xlink:href="#mde9671b372" y="158.781685"/>
      </g>
     </g>
     <g id="text_9">
      <!-- 20 -->
      <g transform="translate(13.678125 162.580904)scale(0.1 -0.1)">
       <use xlink:href="#DejaVuSans-50"/>
       <use x="63.623047" xlink:href="#DejaVuSans-48"/>
      </g>
     </g>
    </g>
    <g id="ytick_4">
     <g id="line2d_10">
      <g>
       <use style="stroke:#000000;stroke-width:0.8;" x="33.403125" xlink:href="#mde9671b372" y="119.126588"/>
      </g>
     </g>
     <g id="text_10">
      <!-- 30 -->
      <g transform="translate(13.678125 122.925807)scale(0.1 -0.1)">
       <defs>
        <path d="M 40.578125 39.3125 
Q 47.65625 37.796875 51.625 33 
Q 55.609375 28.21875 55.609375 21.1875 
Q 55.609375 10.40625 48.1875 4.484375 
Q 40.765625 -1.421875 27.09375 -1.421875 
Q 22.515625 -1.421875 17.65625 -0.515625 
Q 12.796875 0.390625 7.625 2.203125 
L 7.625 11.71875 
Q 11.71875 9.328125 16.59375 8.109375 
Q 21.484375 6.890625 26.8125 6.890625 
Q 36.078125 6.890625 40.9375 10.546875 
Q 45.796875 14.203125 45.796875 21.1875 
Q 45.796875 27.640625 41.28125 31.265625 
Q 36.765625 34.90625 28.71875 34.90625 
L 20.21875 34.90625 
L 20.21875 43.015625 
L 29.109375 43.015625 
Q 36.375 43.015625 40.234375 45.921875 
Q 44.09375 48.828125 44.09375 54.296875 
Q 44.09375 59.90625 40.109375 62.90625 
Q 36.140625 65.921875 28.71875 65.921875 
Q 24.65625 65.921875 20.015625 65.03125 
Q 15.375 64.15625 9.8125 62.3125 
L 9.8125 71.09375 
Q 15.4375 72.65625 20.34375 73.4375 
Q 25.25 74.21875 29.59375 74.21875 
Q 40.828125 74.21875 47.359375 69.109375 
Q 53.90625 64.015625 53.90625 55.328125 
Q 53.90625 49.265625 50.4375 45.09375 
Q 46.96875 40.921875 40.578125 39.3125 
z
" id="DejaVuSans-51"/>
       </defs>
       <use xlink:href="#DejaVuSans-51"/>
       <use x="63.623047" xlink:href="#DejaVuSans-48"/>
      </g>
     </g>
    </g>
    <g id="ytick_5">
     <g id="line2d_11">
      <g>
       <use style="stroke:#000000;stroke-width:0.8;" x="33.403125" xlink:href="#mde9671b372" y="79.471491"/>
      </g>
     </g>
     <g id="text_11">
      <!-- 40 -->
      <g transform="translate(13.678125 83.27071)scale(0.1 -0.1)">
       <use xlink:href="#DejaVuSans-52"/>
       <use x="63.623047" xlink:href="#DejaVuSans-48"/>
      </g>
     </g>
    </g>
    <g id="ytick_6">
     <g id="line2d_12">
      <g>
       <use style="stroke:#000000;stroke-width:0.8;" x="33.403125" xlink:href="#mde9671b372" y="39.816394"/>
      </g>
     </g>
     <g id="text_12">
      <!-- 50 -->
      <g transform="translate(13.678125 43.615613)scale(0.1 -0.1)">
       <defs>
        <path d="M 10.796875 72.90625 
L 49.515625 72.90625 
L 49.515625 64.59375 
L 19.828125 64.59375 
L 19.828125 46.734375 
Q 21.96875 47.46875 24.109375 47.828125 
Q 26.265625 48.1875 28.421875 48.1875 
Q 40.625 48.1875 47.75 41.5 
Q 54.890625 34.8125 54.890625 23.390625 
Q 54.890625 11.625 47.5625 5.09375 
Q 40.234375 -1.421875 26.90625 -1.421875 
Q 22.3125 -1.421875 17.546875 -0.640625 
Q 12.796875 0.140625 7.71875 1.703125 
L 7.71875 11.625 
Q 12.109375 9.234375 16.796875 8.0625 
Q 21.484375 6.890625 26.703125 6.890625 
Q 35.15625 6.890625 40.078125 11.328125 
Q 45.015625 15.765625 45.015625 23.390625 
Q 45.015625 31 40.078125 35.4375 
Q 35.15625 39.890625 26.703125 39.890625 
Q 22.75 39.890625 18.8125 39.015625 
Q 14.890625 38.140625 10.796875 36.28125 
z
" id="DejaVuSans-53"/>
       </defs>
       <use xlink:href="#DejaVuSans-53"/>
       <use x="63.623047" xlink:href="#DejaVuSans-48"/>
      </g>
     </g>
    </g>
    <g id="text_13">
     <!-- % popn infected -->
     <g transform="translate(7.598437 179.140156)rotate(-90)scale(0.1 -0.1)">
      <defs>
       <path d="M 72.703125 32.078125 
Q 68.453125 32.078125 66.03125 28.46875 
Q 63.625 24.859375 63.625 18.40625 
Q 63.625 12.0625 66.03125 8.421875 
Q 68.453125 4.78125 72.703125 4.78125 
Q 76.859375 4.78125 79.265625 8.421875 
Q 81.6875 12.0625 81.6875 18.40625 
Q 81.6875 24.8125 79.265625 28.4375 
Q 76.859375 32.078125 72.703125 32.078125 
z
M 72.703125 38.28125 
Q 80.421875 38.28125 84.953125 32.90625 
Q 89.5 27.546875 89.5 18.40625 
Q 89.5 9.28125 84.9375 3.921875 
Q 80.375 -1.421875 72.703125 -1.421875 
Q 64.890625 -1.421875 60.34375 3.921875 
Q 55.8125 9.28125 55.8125 18.40625 
Q 55.8125 27.59375 60.375 32.9375 
Q 64.9375 38.28125 72.703125 38.28125 
z
M 22.3125 68.015625 
Q 18.109375 68.015625 15.6875 64.375 
Q 13.28125 60.75 13.28125 54.390625 
Q 13.28125 47.953125 15.671875 44.328125 
Q 18.0625 40.71875 22.3125 40.71875 
Q 26.5625 40.71875 28.96875 44.328125 
Q 31.390625 47.953125 31.390625 54.390625 
Q 31.390625 60.6875 28.953125 64.34375 
Q 26.515625 68.015625 22.3125 68.015625 
z
M 66.40625 74.21875 
L 74.21875 74.21875 
L 28.609375 -1.421875 
L 20.796875 -1.421875 
z
M 22.3125 74.21875 
Q 30.03125 74.21875 34.609375 68.875 
Q 39.203125 63.53125 39.203125 54.390625 
Q 39.203125 45.171875 34.640625 39.84375 
Q 30.078125 34.515625 22.3125 34.515625 
Q 14.546875 34.515625 10.03125 39.859375 
Q 5.515625 45.21875 5.515625 54.390625 
Q 5.515625 63.484375 10.046875 68.84375 
Q 14.59375 74.21875 22.3125 74.21875 
z
" id="DejaVuSans-37"/>
       <path id="DejaVuSans-32"/>
       <path d="M 18.109375 8.203125 
L 18.109375 -20.796875 
L 9.078125 -20.796875 
L 9.078125 54.6875 
L 18.109375 54.6875 
L 18.109375 46.390625 
Q 20.953125 51.265625 25.265625 53.625 
Q 29.59375 56 35.59375 56 
Q 45.5625 56 51.78125 48.09375 
Q 58.015625 40.1875 58.015625 27.296875 
Q 58.015625 14.40625 51.78125 6.484375 
Q 45.5625 -1.421875 35.59375 -1.421875 
Q 29.59375 -1.421875 25.265625 0.953125 
Q 20.953125 3.328125 18.109375 8.203125 
z
M 48.6875 27.296875 
Q 48.6875 37.203125 44.609375 42.84375 
Q 40.53125 48.484375 33.40625 48.484375 
Q 26.265625 48.484375 22.1875 42.84375 
Q 18.109375 37.203125 18.109375 27.296875 
Q 18.109375 17.390625 22.1875 11.75 
Q 26.265625 6.109375 33.40625 6.109375 
Q 40.53125 6.109375 44.609375 11.75 
Q 48.6875 17.390625 48.6875 27.296875 
z
" id="DejaVuSans-112"/>
       <path d="M 30.609375 48.390625 
Q 23.390625 48.390625 19.1875 42.75 
Q 14.984375 37.109375 14.984375 27.296875 
Q 14.984375 17.484375 19.15625 11.84375 
Q 23.34375 6.203125 30.609375 6.203125 
Q 37.796875 6.203125 41.984375 11.859375 
Q 46.1875 17.53125 46.1875 27.296875 
Q 46.1875 37.015625 41.984375 42.703125 
Q 37.796875 48.390625 30.609375 48.390625 
z
M 30.609375 56 
Q 42.328125 56 49.015625 48.375 
Q 55.71875 40.765625 55.71875 27.296875 
Q 55.71875 13.875 49.015625 6.21875 
Q 42.328125 -1.421875 30.609375 -1.421875 
Q 18.84375 -1.421875 12.171875 6.21875 
Q 5.515625 13.875 5.515625 27.296875 
Q 5.515625 40.765625 12.171875 48.375 
Q 18.84375 56 30.609375 56 
z
" id="DejaVuSans-111"/>
       <path d="M 54.890625 33.015625 
L 54.890625 0 
L 45.90625 0 
L 45.90625 32.71875 
Q 45.90625 40.484375 42.875 44.328125 
Q 39.84375 48.1875 33.796875 48.1875 
Q 26.515625 48.1875 22.3125 43.546875 
Q 18.109375 38.921875 18.109375 30.90625 
L 18.109375 0 
L 9.078125 0 
L 9.078125 54.6875 
L 18.109375 54.6875 
L 18.109375 46.1875 
Q 21.34375 51.125 25.703125 53.5625 
Q 30.078125 56 35.796875 56 
Q 45.21875 56 50.046875 50.171875 
Q 54.890625 44.34375 54.890625 33.015625 
z
" id="DejaVuSans-110"/>
       <path d="M 9.421875 54.6875 
L 18.40625 54.6875 
L 18.40625 0 
L 9.421875 0 
z
M 9.421875 75.984375 
L 18.40625 75.984375 
L 18.40625 64.59375 
L 9.421875 64.59375 
z
" id="DejaVuSans-105"/>
       <path d="M 37.109375 75.984375 
L 37.109375 68.5 
L 28.515625 68.5 
Q 23.6875 68.5 21.796875 66.546875 
Q 19.921875 64.59375 19.921875 59.515625 
L 19.921875 54.6875 
L 34.71875 54.6875 
L 34.71875 47.703125 
L 19.921875 47.703125 
L 19.921875 0 
L 10.890625 0 
L 10.890625 47.703125 
L 2.296875 47.703125 
L 2.296875 54.6875 
L 10.890625 54.6875 
L 10.890625 58.5 
Q 10.890625 67.625 15.140625 71.796875 
Q 19.390625 75.984375 28.609375 75.984375 
z
" id="DejaVuSans-102"/>
       <path d="M 56.203125 29.59375 
L 56.203125 25.203125 
L 14.890625 25.203125 
Q 15.484375 15.921875 20.484375 11.0625 
Q 25.484375 6.203125 34.421875 6.203125 
Q 39.59375 6.203125 44.453125 7.46875 
Q 49.3125 8.734375 54.109375 11.28125 
L 54.109375 2.78125 
Q 49.265625 0.734375 44.1875 -0.34375 
Q 39.109375 -1.421875 33.890625 -1.421875 
Q 20.796875 -1.421875 13.15625 6.1875 
Q 5.515625 13.8125 5.515625 26.8125 
Q 5.515625 40.234375 12.765625 48.109375 
Q 20.015625 56 32.328125 56 
Q 43.359375 56 49.78125 48.890625 
Q 56.203125 41.796875 56.203125 29.59375 
z
M 47.21875 32.234375 
Q 47.125 39.59375 43.09375 43.984375 
Q 39.0625 48.390625 32.421875 48.390625 
Q 24.90625 48.390625 20.390625 44.140625 
Q 15.875 39.890625 15.1875 32.171875 
z
" id="DejaVuSans-101"/>
       <path d="M 48.78125 52.59375 
L 48.78125 44.1875 
Q 44.96875 46.296875 41.140625 47.34375 
Q 37.3125 48.390625 33.40625 48.390625 
Q 24.65625 48.390625 19.8125 42.84375 
Q 14.984375 37.3125 14.984375 27.296875 
Q 14.984375 17.28125 19.8125 11.734375 
Q 24.65625 6.203125 33.40625 6.203125 
Q 37.3125 6.203125 41.140625 7.25 
Q 44.96875 8.296875 48.78125 10.40625 
L 48.78125 2.09375 
Q 45.015625 0.34375 40.984375 -0.53125 
Q 36.96875 -1.421875 32.421875 -1.421875 
Q 20.0625 -1.421875 12.78125 6.34375 
Q 5.515625 14.109375 5.515625 27.296875 
Q 5.515625 40.671875 12.859375 48.328125 
Q 20.21875 56 33.015625 56 
Q 37.15625 56 41.109375 55.140625 
Q 45.0625 54.296875 48.78125 52.59375 
z
" id="DejaVuSans-99"/>
       <path d="M 18.3125 70.21875 
L 18.3125 54.6875 
L 36.8125 54.6875 
L 36.8125 47.703125 
L 18.3125 47.703125 
L 18.3125 18.015625 
Q 18.3125 11.328125 20.140625 9.421875 
Q 21.96875 7.515625 27.59375 7.515625 
L 36.8125 7.515625 
L 36.8125 0 
L 27.59375 0 
Q 17.1875 0 13.234375 3.875 
Q 9.28125 7.765625 9.28125 18.015625 
L 9.28125 47.703125 
L 2.6875 47.703125 
L 2.6875 54.6875 
L 9.28125 54.6875 
L 9.28125 70.21875 
z
" id="DejaVuSans-116"/>
       <path d="M 45.40625 46.390625 
L 45.40625 75.984375 
L 54.390625 75.984375 
L 54.390625 0 
L 45.40625 0 
L 45.40625 8.203125 
Q 42.578125 3.328125 38.25 0.953125 
Q 33.9375 -1.421875 27.875 -1.421875 
Q 17.96875 -1.421875 11.734375 6.484375 
Q 5.515625 14.40625 5.515625 27.296875 
Q 5.515625 40.1875 11.734375 48.09375 
Q 17.96875 56 27.875 56 
Q 33.9375 56 38.25 53.625 
Q 42.578125 51.265625 45.40625 46.390625 
z
M 14.796875 27.296875 
Q 14.796875 17.390625 18.875 11.75 
Q 22.953125 6.109375 30.078125 6.109375 
Q 37.203125 6.109375 41.296875 11.75 
Q 45.40625 17.390625 45.40625 27.296875 
Q 45.40625 37.203125 41.296875 42.84375 
Q 37.203125 48.484375 30.078125 48.484375 
Q 22.953125 48.484375 18.875 42.84375 
Q 14.796875 37.203125 14.796875 27.296875 
z
" id="DejaVuSans-100"/>
      </defs>
      <use xlink:href="#DejaVuSans-37"/>
      <use x="95.019531" xlink:href="#DejaVuSans-32"/>
      <use x="126.806641" xlink:href="#DejaVuSans-112"/>
      <use x="190.283203" xlink:href="#DejaVuSans-111"/>
      <use x="251.464844" xlink:href="#DejaVuSans-112"/>
      <use x="314.941406" xlink:href="#DejaVuSans-110"/>
      <use x="378.320312" xlink:href="#DejaVuSans-32"/>
      <use x="410.107422" xlink:href="#DejaVuSans-105"/>
      <use x="437.890625" xlink:href="#DejaVuSans-110"/>
      <use x="501.269531" xlink:href="#DejaVuSans-102"/>
      <use x="536.474609" xlink:href="#DejaVuSans-101"/>
      <use x="597.998047" xlink:href="#DejaVuSans-99"/>
      <use x="652.978516" xlink:href="#DejaVuSans-116"/>
      <use x="692.1875" xlink:href="#DejaVuSans-101"/>
      <use x="753.710938" xlink:href="#DejaVuSans-100"/>
     </g>
    </g>
   </g>
   <g id="line2d_13">
    <path clip-path="url(#p3eadae6ec0)" d="M 48.621307 237.116364 
L 51.695687 236.719813 
L 54.770067 236.251883 
L 57.844447 235.593608 
L 60.918827 234.737058 
L 63.993208 233.729818 
L 67.067588 232.34189 
L 70.141968 231.223616 
L 73.216348 229.645343 
L 76.290728 227.686382 
L 79.365108 225.901902 
L 82.439489 223.641562 
L 85.513869 221.508117 
L 88.588249 219.565018 
L 91.662629 217.701228 
L 94.737009 215.488474 
L 97.811389 213.505719 
L 100.88577 211.158137 
L 103.96015 208.937452 
L 107.03453 207.311593 
L 110.10891 205.3447 
L 113.18329 203.829875 
L 116.25767 202.537119 
L 119.332051 201.125398 
L 122.406431 200.007124 
L 125.480811 198.785747 
L 128.555191 198.016438 
L 131.629571 196.47782 
L 134.703951 194.947134 
L 137.778332 193.59886 
L 140.852712 192.496449 
L 143.927092 191.830243 
L 147.001472 191.076796 
L 150.075852 190.402659 
L 153.150232 189.08611 
L 156.224613 188.753007 
L 159.298993 188.102664 
L 162.373373 187.944043 
L 165.447753 187.349217 
L 168.522133 187.341286 
L 171.596513 187.491975 
L 174.670894 187.198528 
L 177.745274 186.98439 
L 180.819654 186.104047 
L 183.894034 186.421288 
L 186.968414 185.985082 
L 190.042794 185.747151 
L 193.117175 185.834392 
L 196.191555 185.73922 
L 199.265935 186.016806 
L 202.340315 186.088185 
L 205.414695 186.135771 
L 208.489075 185.905771 
L 211.563456 185.644048 
L 214.637836 185.65991 
L 217.712216 185.929564 
L 220.786596 185.985082 
L 223.860976 186.008875 
L 226.935356 186.571977 
L 230.009737 187.055769 
L 233.084117 187.539561 
L 236.158497 187.515768 
L 239.232877 188.356456 
L 242.307257 188.808525 
L 245.381637 189.482661 
L 248.456018 189.966453 
L 251.530398 190.553349 
L 254.604778 190.529556 
L 257.679158 190.632659 
L 260.753538 191.171968 
L 263.827918 191.49714 
L 266.902299 191.362313 
L 269.976679 191.536795 
L 273.051059 191.838174 
L 276.125439 192.123691 
L 279.199819 192.74231 
L 282.274199 193.464033 
L 285.34858 193.741619 
L 288.42296 194.344376 
L 291.49734 194.740927 
L 294.57172 195.454719 
L 297.6461 196.065407 
L 300.72048 196.144717 
L 303.794861 196.224028 
L 306.869241 196.192304 
L 309.943621 196.382648 
L 313.018001 196.921957 
L 316.092381 197.009199 
L 319.166761 197.500922 
L 322.241142 197.778507 
L 325.315522 198.301955 
L 328.389902 198.555747 
L 331.464282 198.698506 
L 334.538662 199.11885 
L 337.613042 199.499539 
L 340.687423 200.276779 
L 343.761803 200.316434 
L 346.836183 200.720916 
L 349.910563 201.085743 
L 352.984943 201.117467 
" style="fill:none;stroke:#b3b3b3;stroke-linecap:square;stroke-width:1.5;"/>
   </g>
   <g id="line2d_14">
    <path clip-path="url(#p3eadae6ec0)" d="M 48.621307 236.973605 
L 51.695687 236.521537 
L 54.770067 236.029814 
L 57.844447 235.323953 
L 60.918827 234.44361 
L 63.993208 233.27775 
L 67.067588 231.842236 
L 70.141968 230.232239 
L 73.216348 228.392242 
L 76.290728 226.639487 
L 79.365108 224.513974 
L 82.439489 222.364668 
L 85.513869 220.588119 
L 88.588249 219.04157 
L 91.662629 217.233298 
L 94.737009 215.488474 
L 97.811389 213.680201 
L 100.88577 211.943308 
L 103.96015 210.277794 
L 107.03453 208.905728 
L 110.10891 207.224352 
L 113.18329 206.002975 
L 116.25767 204.964011 
L 119.332051 203.86953 
L 122.406431 202.925739 
L 125.480811 202.418154 
L 128.555191 201.720224 
L 131.629571 200.887467 
L 134.703951 200.348158 
L 137.778332 199.872297 
L 140.852712 199.221953 
L 143.927092 198.444713 
L 147.001472 197.881611 
L 150.075852 197.302646 
L 153.150232 196.977475 
L 156.224613 196.802992 
L 159.298993 196.025752 
L 162.373373 195.835408 
L 165.447753 195.367478 
L 168.522133 195.272305 
L 171.596513 195.280236 
L 174.670894 194.962996 
L 177.745274 194.796444 
L 180.819654 194.693341 
L 183.894034 194.249204 
L 186.968414 194.328514 
L 190.042794 194.154032 
L 193.117175 194.058859 
L 196.191555 193.924032 
L 199.265935 194.082652 
L 202.340315 194.534721 
L 205.414695 194.653686 
L 208.489075 194.725065 
L 211.563456 194.677479 
L 214.637836 195.137478 
L 217.712216 195.129547 
L 220.786596 195.422995 
L 223.860976 195.684718 
L 226.935356 195.597477 
L 230.009737 195.478512 
L 233.084117 195.613339 
L 236.158497 195.296098 
L 239.232877 195.430926 
L 242.307257 195.113685 
L 245.381637 195.38334 
L 248.456018 195.335753 
L 251.530398 195.85127 
L 254.604778 196.049545 
L 257.679158 196.16058 
L 260.753538 196.493682 
L 263.827918 196.985406 
L 266.902299 196.993337 
L 269.976679 197.262991 
L 273.051059 197.770576 
L 276.125439 197.881611 
L 279.199819 198.722299 
L 282.274199 199.301263 
L 285.34858 200.086434 
L 288.42296 200.36402 
L 291.49734 200.546433 
L 294.57172 200.887467 
L 297.6461 201.054018 
L 300.72048 201.133329 
L 303.794861 201.038156 
L 306.869241 201.030225 
L 309.943621 201.069881 
L 313.018001 201.323673 
L 316.092381 201.720224 
L 319.166761 201.989879 
L 322.241142 202.23574 
L 325.315522 202.552981 
L 328.389902 202.846429 
L 331.464282 203.084359 
L 334.538662 203.258842 
L 337.613042 203.591945 
L 340.687423 203.766427 
L 343.761803 203.972634 
L 346.836183 204.440564 
L 349.910563 204.551598 
L 352.984943 204.749874 
" style="fill:none;stroke:#b3b3b3;stroke-linecap:square;stroke-width:1.5;"/>
   </g>
   <g id="line2d_15">
    <path clip-path="url(#p3eadae6ec0)" d="M 48.621307 236.989467 
L 51.695687 236.54533 
L 54.770067 235.99809 
L 57.844447 235.244643 
L 60.918827 234.324645 
L 63.993208 233.190509 
L 67.067588 231.881891 
L 70.141968 230.327411 
L 73.216348 228.305001 
L 76.290728 226.266729 
L 79.365108 224.315698 
L 82.439489 222.523288 
L 85.513869 220.421568 
L 88.588249 218.383296 
L 91.662629 216.226059 
L 94.737009 213.98158 
L 97.811389 212.197101 
L 100.88577 210.499863 
L 103.96015 209.104003 
L 107.03453 207.335386 
L 110.10891 205.757113 
L 113.18329 204.392978 
L 116.25767 203.227118 
L 119.332051 201.728155 
L 122.406431 200.744709 
L 125.480811 199.713676 
L 128.555191 198.595402 
L 131.629571 197.215405 
L 134.703951 196.652303 
L 137.778332 196.438165 
L 140.852712 195.867132 
L 143.927092 195.589546 
L 147.001472 195.637132 
L 150.075852 195.248512 
L 153.150232 195.034375 
L 156.224613 195.335753 
L 159.298993 194.978858 
L 162.373373 194.280928 
L 165.447753 194.074721 
L 168.522133 193.384723 
L 171.596513 193.717826 
L 174.670894 193.495757 
L 177.745274 193.543343 
L 180.819654 193.376792 
L 183.894034 193.329206 
L 186.968414 193.701963 
L 190.042794 193.416447 
L 193.117175 193.091275 
L 196.191555 193.551274 
L 199.265935 193.194378 
L 202.340315 193.273688 
L 205.414695 193.21024 
L 208.489075 193.51955 
L 211.563456 193.487826 
L 214.637836 193.654377 
L 217.712216 193.836791 
L 220.786596 193.892308 
L 223.860976 194.201618 
L 226.935356 194.76472 
L 230.009737 195.161271 
L 233.084117 195.764029 
L 236.158497 196.112993 
L 239.232877 196.406441 
L 242.307257 196.652303 
L 245.381637 197.207474 
L 248.456018 197.358163 
L 251.530398 197.738852 
L 254.604778 197.730921 
L 257.679158 198.079886 
L 260.753538 198.611264 
L 263.827918 198.57954 
L 266.902299 198.230576 
L 269.976679 198.143334 
L 273.051059 198.230576 
L 276.125439 198.476437 
L 279.199819 198.452644 
L 282.274199 198.571609 
L 285.34858 198.674713 
L 288.42296 198.912643 
L 291.49734 199.134712 
L 294.57172 199.491608 
L 297.6461 199.888159 
L 300.72048 200.395744 
L 303.794861 200.070572 
L 306.869241 200.36402 
L 309.943621 200.173675 
L 313.018001 199.983331 
L 316.092381 200.015055 
L 319.166761 200.165744 
L 322.241142 200.324365 
L 325.315522 200.387813 
L 328.389902 200.44333 
L 331.464282 200.538502 
L 334.538662 200.546433 
L 337.613042 200.514709 
L 340.687423 200.395744 
L 343.761803 200.252986 
L 346.836183 200.784364 
L 349.910563 200.895398 
L 352.984943 200.91126 
" style="fill:none;stroke:#b3b3b3;stroke-linecap:square;stroke-width:1.5;"/>
   </g>
   <g id="line2d_16">
    <path clip-path="url(#p3eadae6ec0)" d="M 48.621307 237.029122 
L 51.695687 236.688089 
L 54.770067 236.172572 
L 57.844447 235.657056 
L 60.918827 234.760851 
L 63.993208 233.832922 
L 67.067588 232.714648 
L 70.141968 231.556719 
L 73.216348 229.85155 
L 76.290728 228.090864 
L 79.365108 226.227074 
L 82.439489 224.736042 
L 85.513869 222.864322 
L 88.588249 221.333635 
L 91.662629 219.676052 
L 94.737009 218.264331 
L 97.811389 216.662265 
L 100.88577 215.290198 
L 103.96015 213.59296 
L 107.03453 212.260549 
L 110.10891 211.02331 
L 113.18329 209.746416 
L 116.25767 208.953314 
L 119.332051 207.731937 
L 122.406431 206.788145 
L 125.480811 205.336769 
L 128.555191 204.083668 
L 131.629571 203.94091 
L 134.703951 203.560221 
L 137.778332 202.719533 
L 140.852712 202.322982 
L 143.927092 201.696431 
L 147.001472 201.069881 
L 150.075852 200.609881 
L 153.150232 200.165744 
L 156.224613 199.792986 
L 159.298993 199.174367 
L 162.373373 198.476437 
L 165.447753 198.135403 
L 168.522133 197.596094 
L 171.596513 197.025061 
L 174.670894 196.446096 
L 177.745274 196.303338 
L 180.819654 196.231959 
L 183.894034 196.073338 
L 186.968414 195.994028 
L 190.042794 196.311269 
L 193.117175 196.271614 
L 196.191555 196.446096 
L 199.265935 196.572993 
L 202.340315 196.596786 
L 205.414695 196.533337 
L 208.489075 196.422303 
L 211.563456 196.414372 
L 214.637836 196.366786 
L 217.712216 196.049545 
L 220.786596 196.16058 
L 223.860976 196.136786 
L 226.935356 196.176442 
L 230.009737 196.810923 
L 233.084117 196.469889 
L 236.158497 196.636441 
L 239.232877 196.906095 
L 242.307257 197.025061 
L 245.381637 197.17575 
L 248.456018 197.270922 
L 251.530398 196.993337 
L 254.604778 197.64368 
L 257.679158 198.151265 
L 260.753538 198.714368 
L 263.827918 198.920574 
L 266.902299 199.015746 
L 269.976679 199.063333 
L 273.051059 198.825402 
L 276.125439 198.928505 
L 279.199819 198.984022 
L 282.274199 199.095057 
L 285.34858 199.547125 
L 288.42296 199.245746 
L 291.49734 199.35678 
L 294.57172 199.58678 
L 297.6461 199.792986 
L 300.72048 200.189537 
L 303.794861 199.911952 
L 306.869241 199.9754 
L 309.943621 200.126089 
L 313.018001 200.229192 
L 316.092381 200.942984 
L 319.166761 201.307811 
L 322.241142 201.514018 
L 325.315522 201.577466 
L 328.389902 201.894707 
L 331.464282 202.005741 
L 334.538662 202.299189 
L 337.613042 202.640222 
L 340.687423 202.830567 
L 343.761803 203.084359 
L 346.836183 203.520566 
L 349.910563 203.718841 
L 352.984943 204.369185 
" style="fill:none;stroke:#b3b3b3;stroke-linecap:square;stroke-width:1.5;"/>
   </g>
   <g id="line2d_17">
    <path clip-path="url(#p3eadae6ec0)" d="M 48.621307 236.973605 
L 51.695687 236.656365 
L 54.770067 236.212227 
L 57.844447 235.593608 
L 60.918827 234.776713 
L 63.993208 233.737749 
L 67.067588 232.492579 
L 70.141968 231.199823 
L 73.216348 229.502585 
L 76.290728 227.916381 
L 79.365108 225.989143 
L 82.439489 224.157078 
L 85.513869 221.872944 
L 88.588249 219.58088 
L 91.662629 217.423642 
L 94.737009 215.361577 
L 97.811389 213.569167 
L 100.88577 211.396068 
L 103.96015 210.111243 
L 107.03453 208.866073 
L 110.10891 207.422627 
L 113.18329 206.058492 
L 116.25767 204.932287 
L 119.332051 203.314359 
L 122.406431 202.092982 
L 125.480811 201.204708 
L 128.555191 200.078503 
L 131.629571 199.483677 
L 134.703951 198.278162 
L 137.778332 197.136095 
L 140.852712 196.192304 
L 143.927092 195.756098 
L 147.001472 195.518167 
L 150.075852 195.375409 
L 153.150232 195.018513 
L 156.224613 194.677479 
L 159.298993 194.614031 
L 162.373373 193.979549 
L 165.447753 193.638515 
L 168.522133 193.083344 
L 171.596513 192.512311 
L 174.670894 192.321966 
L 177.745274 192.020587 
L 180.819654 192.107829 
L 183.894034 192.107829 
L 186.968414 192.171277 
L 190.042794 192.393345 
L 193.117175 192.496449 
L 196.191555 192.623345 
L 199.265935 192.647138 
L 202.340315 192.440931 
L 205.414695 192.766103 
L 208.489075 192.464724 
L 211.563456 192.670931 
L 214.637836 192.615414 
L 217.712216 192.647138 
L 220.786596 192.940586 
L 223.860976 193.115068 
L 226.935356 193.234033 
L 230.009737 193.329206 
L 233.084117 193.44024 
L 236.158497 193.812998 
L 239.232877 193.852653 
L 242.307257 194.423686 
L 245.381637 194.590238 
L 248.456018 194.645755 
L 251.530398 195.185064 
L 254.604778 195.613339 
L 257.679158 195.77196 
L 260.753538 195.843339 
L 263.827918 195.660925 
L 266.902299 196.39851 
L 269.976679 196.469889 
L 273.051059 196.263683 
L 276.125439 196.454027 
L 279.199819 196.620579 
L 282.274199 196.636441 
L 285.34858 197.032992 
L 288.42296 197.199543 
L 291.49734 197.278853 
L 294.57172 197.492991 
L 297.6461 197.635749 
L 300.72048 198.095748 
L 303.794861 198.373334 
L 306.869241 198.865057 
L 309.943621 199.015746 
L 313.018001 199.697814 
L 316.092381 200.149882 
L 319.166761 200.36402 
L 322.241142 200.681261 
L 325.315522 200.871605 
L 328.389902 201.14126 
L 331.464282 201.347466 
L 334.538662 201.577466 
L 337.613042 202.219878 
L 340.687423 202.965394 
L 343.761803 202.997118 
L 346.836183 203.179532 
L 349.910563 203.274704 
L 352.984943 203.607807 
" style="fill:none;stroke:#b3b3b3;stroke-linecap:square;stroke-width:1.5;"/>
   </g>
   <g id="line2d_18">
    <path clip-path="url(#p3eadae6ec0)" d="M 48.621307 237.052915 
L 51.695687 236.62464 
L 54.770067 236.172572 
L 57.844447 235.244643 
L 60.918827 234.28499 
L 63.993208 232.849475 
L 67.067588 231.112582 
L 70.141968 228.749138 
L 73.216348 225.592592 
L 76.290728 221.801565 
L 79.365108 217.09054 
L 82.439489 211.173999 
L 85.513869 204.456426 
L 88.588249 197.072647 
L 91.662629 189.149558 
L 94.737009 180.940953 
L 97.811389 172.660969 
L 100.88577 164.349261 
L 103.96015 156.315138 
L 107.03453 149.185152 
L 110.10891 142.79275 
L 113.18329 137.233105 
L 116.25767 132.355529 
L 119.332051 128.437605 
L 122.406431 125.566576 
L 125.480811 123.163477 
L 128.555191 121.252101 
L 131.629571 120.395551 
L 134.703951 120.260724 
L 137.778332 121.101412 
L 140.852712 121.260032 
L 143.927092 122.830374 
L 147.001472 124.487957 
L 150.075852 125.780713 
L 153.150232 128.056916 
L 156.224613 129.56381 
L 159.298993 129.960361 
L 162.373373 131.221393 
L 165.447753 133.037596 
L 168.522133 134.8538 
L 171.596513 136.48759 
L 174.670894 138.137242 
L 177.745274 139.937583 
L 180.819654 141.603097 
L 183.894034 142.95137 
L 186.968414 145.005504 
L 190.042794 146.234812 
L 193.117175 147.606879 
L 196.191555 148.867911 
L 199.265935 150.818942 
L 202.340315 152.000664 
L 205.414695 154.197556 
L 208.489075 156.529276 
L 211.563456 159.146512 
L 214.637836 160.716854 
L 217.712216 162.120644 
L 220.786596 163.881331 
L 223.860976 165.903741 
L 226.935356 167.418565 
L 230.009737 168.957183 
L 233.084117 170.345111 
L 236.158497 172.177177 
L 239.232877 173.279589 
L 242.307257 174.453379 
L 245.381637 175.658894 
L 248.456018 176.79303 
L 251.530398 177.919235 
L 254.604778 179.894059 
L 257.679158 180.99647 
L 260.753538 182.233709 
L 263.827918 183.304397 
L 266.902299 184.486119 
L 269.976679 185.691634 
L 273.051059 187.071631 
L 276.125439 188.69749 
L 279.199819 190.156798 
L 282.274199 191.687485 
L 285.34858 192.996103 
L 288.42296 193.979549 
L 291.49734 195.121616 
L 294.57172 196.263683 
L 297.6461 197.183681 
L 300.72048 197.746783 
L 303.794861 198.444713 
L 306.869241 199.063333 
L 309.943621 199.832641 
L 313.018001 200.126089 
L 316.092381 200.816088 
L 319.166761 201.989879 
L 322.241142 202.679877 
L 325.315522 203.647462 
L 328.389902 204.543667 
L 331.464282 204.971942 
L 334.538662 205.455734 
L 337.613042 206.010906 
L 340.687423 206.026768 
L 343.761803 206.518491 
L 346.836183 206.81987 
L 349.910563 207.351248 
L 352.984943 207.660558 
" style="fill:none;stroke:#a6d854;stroke-linecap:square;stroke-width:1.5;"/>
   </g>
   <g id="line2d_19">
    <path clip-path="url(#p3eadae6ec0)" d="M 48.621307 237.021191 
L 51.695687 236.608778 
L 54.770067 236.021883 
L 57.844447 235.292229 
L 60.918827 234.388093 
L 63.993208 233.11913 
L 67.067588 231.548788 
L 70.141968 229.336034 
L 73.216348 226.417418 
L 76.290728 222.634322 
L 79.365108 217.859849 
L 82.439489 212.276411 
L 85.513869 205.646079 
L 88.588249 198.270231 
L 91.662629 190.7199 
L 94.737009 182.035434 
L 97.811389 173.184416 
L 100.88577 164.801329 
L 103.96015 156.275483 
L 107.03453 148.693428 
L 110.10891 141.373098 
L 113.18329 135.385178 
L 116.25767 130.095188 
L 119.332051 125.836231 
L 122.406431 122.988995 
L 125.480811 121.299687 
L 128.555191 119.047278 
L 131.629571 118.190728 
L 134.703951 118.603141 
L 137.778332 118.412796 
L 140.852712 119.316933 
L 143.927092 119.364519 
L 147.001472 119.975207 
L 150.075852 121.363136 
L 153.150232 122.973133 
L 156.224613 123.980372 
L 159.298993 125.281059 
L 162.373373 126.597608 
L 165.447753 128.152088 
L 168.522133 130.491739 
L 171.596513 131.943116 
L 174.670894 133.418285 
L 177.745274 135.052075 
L 180.819654 136.852417 
L 183.894034 138.946206 
L 186.968414 141.246201 
L 190.042794 143.165508 
L 193.117175 144.291713 
L 196.191555 145.917572 
L 199.265935 147.757568 
L 202.340315 149.970323 
L 205.414695 151.651699 
L 208.489075 153.309282 
L 211.563456 154.69721 
L 214.637836 155.807553 
L 217.712216 157.155826 
L 220.786596 157.457205 
L 223.860976 159.186167 
L 226.935356 160.669268 
L 230.009737 162.096851 
L 233.084117 163.389607 
L 236.158497 165.110639 
L 239.232877 166.387533 
L 242.307257 167.537531 
L 245.381637 169.147527 
L 248.456018 170.575111 
L 251.530398 172.129591 
L 254.604778 173.271658 
L 257.679158 174.913379 
L 260.753538 176.769237 
L 263.827918 178.173028 
L 266.902299 179.600611 
L 269.976679 180.67923 
L 273.051059 182.178192 
L 276.125439 183.534397 
L 279.199819 185.334738 
L 282.274199 186.294391 
L 285.34858 187.507837 
L 288.42296 188.840249 
L 291.49734 190.244039 
L 294.57172 190.894383 
L 297.6461 191.949208 
L 300.72048 193.027827 
L 303.794861 194.154032 
L 306.869241 195.740235 
L 309.943621 197.358163 
L 313.018001 198.175058 
L 316.092381 199.253677 
L 319.166761 200.356089 
L 322.241142 201.387121 
L 325.315522 202.513326 
L 328.389902 203.742634 
L 331.464282 204.678494 
L 334.538662 205.661941 
L 337.613042 206.732628 
L 340.687423 207.533661 
L 343.761803 208.398142 
L 346.836183 209.207106 
L 349.910563 210.079519 
L 352.984943 210.951931 
" style="fill:none;stroke:#a6d854;stroke-linecap:square;stroke-width:1.5;"/>
   </g>
   <g id="line2d_20">
    <path clip-path="url(#p3eadae6ec0)" d="M 48.621307 237.029122 
L 51.695687 236.584985 
L 54.770067 236.021883 
L 57.844447 235.30016 
L 60.918827 234.197749 
L 63.993208 232.659131 
L 67.067588 230.763617 
L 70.141968 228.289139 
L 73.216348 225.568799 
L 76.290728 221.444669 
L 79.365108 216.47192 
L 82.439489 210.698138 
L 85.513869 204.186771 
L 88.588249 196.644372 
L 91.662629 188.721283 
L 94.737009 180.068541 
L 97.811389 171.352351 
L 100.88577 162.493402 
L 103.96015 154.3879 
L 107.03453 145.957227 
L 110.10891 137.669312 
L 113.18329 131.245186 
L 116.25767 125.058991 
L 119.332051 119.713484 
L 122.406431 115.938318 
L 125.480811 112.940393 
L 128.555191 110.26764 
L 131.629571 108.237299 
L 134.703951 106.865232 
L 137.778332 106.167302 
L 140.852712 106.984197 
L 143.927092 106.738336 
L 147.001472 107.975575 
L 150.075852 108.736953 
L 153.150232 110.045571 
L 156.224613 111.782464 
L 159.298993 113.725564 
L 162.373373 115.676595 
L 165.447753 117.548315 
L 168.522133 119.673829 
L 171.596513 122.180031 
L 174.670894 125.082784 
L 177.745274 126.978297 
L 180.819654 130.118981 
L 183.894034 132.204839 
L 186.968414 134.528628 
L 190.042794 137.122071 
L 193.117175 138.914482 
L 196.191555 141.618959 
L 199.265935 143.847576 
L 202.340315 146.226881 
L 205.414695 148.606187 
L 208.489075 150.993424 
L 211.563456 153.229972 
L 214.637836 155.482381 
L 217.712216 157.433412 
L 220.786596 159.622373 
L 223.860976 161.819266 
L 226.935356 163.635469 
L 230.009737 165.97512 
L 233.084117 168.108564 
L 236.158497 169.845457 
L 239.232877 171.899591 
L 242.307257 174.239242 
L 245.381637 175.960273 
L 248.456018 178.030269 
L 251.530398 179.354749 
L 254.604778 180.853712 
L 257.679158 182.963363 
L 260.753538 184.438533 
L 263.827918 185.556807 
L 266.902299 187.222321 
L 269.976679 188.673697 
L 273.051059 189.657144 
L 276.125439 190.442315 
L 279.199819 191.441623 
L 282.274199 192.298173 
L 285.34858 193.138861 
L 288.42296 194.257135 
L 291.49734 195.676787 
L 294.57172 197.01713 
L 297.6461 197.913335 
L 300.72048 199.309194 
L 303.794861 200.36402 
L 306.869241 201.521949 
L 309.943621 202.481602 
L 313.018001 204.051944 
L 316.092381 204.932287 
L 319.166761 205.646079 
L 322.241142 206.415388 
L 325.315522 207.279869 
L 328.389902 208.176074 
L 331.464282 208.881935 
L 334.538662 209.786071 
L 337.613042 210.198484 
L 340.687423 211.158137 
L 343.761803 211.792619 
L 346.836183 212.672962 
L 349.910563 213.220202 
L 352.984943 213.743649 
" style="fill:none;stroke:#a6d854;stroke-linecap:square;stroke-width:1.5;"/>
   </g>
   <g id="line2d_21">
    <path clip-path="url(#p3eadae6ec0)" d="M 48.621307 236.965674 
L 51.695687 236.584985 
L 54.770067 235.982228 
L 57.844447 235.204988 
L 60.918827 234.1343 
L 63.993208 232.682924 
L 67.067588 230.612928 
L 70.141968 228.051208 
L 73.216348 224.704318 
L 76.290728 220.619843 
L 79.365108 215.282267 
L 82.439489 209.040555 
L 85.513869 201.672638 
L 88.588249 193.107137 
L 91.662629 184.874739 
L 94.737009 176.293376 
L 97.811389 168.029254 
L 100.88577 160.29651 
L 103.96015 152.349628 
L 107.03453 145.156194 
L 110.10891 138.843102 
L 113.18329 133.561043 
L 116.25767 129.103811 
L 119.332051 124.916232 
L 122.406431 120.69693 
L 125.480811 117.445212 
L 128.555191 114.613838 
L 131.629571 112.274187 
L 134.703951 111.036948 
L 137.778332 110.085226 
L 140.852712 108.847987 
L 143.927092 109.514193 
L 147.001472 110.029709 
L 150.075852 110.50557 
L 153.150232 111.108328 
L 156.224613 111.877636 
L 159.298993 113.765219 
L 162.373373 115.422802 
L 165.447753 117.310385 
L 168.522133 118.841071 
L 171.596513 121.482101 
L 174.670894 123.004857 
L 177.745274 125.225542 
L 180.819654 127.573124 
L 183.894034 130.65829 
L 186.968414 133.196217 
L 190.042794 135.583453 
L 193.117175 138.208621 
L 196.191555 140.159652 
L 199.265935 142.427923 
L 202.340315 144.474126 
L 205.414695 147.138949 
L 208.489075 149.772047 
L 211.563456 151.651699 
L 214.637836 153.76135 
L 217.712216 155.744105 
L 220.786596 158.408927 
L 223.860976 160.201338 
L 226.935356 162.406161 
L 230.009737 164.436502 
L 233.084117 166.617532 
L 236.158497 168.433736 
L 239.232877 169.877181 
L 242.307257 171.614074 
L 245.381637 173.350968 
L 248.456018 174.826137 
L 251.530398 176.364755 
L 254.604778 178.125441 
L 257.679158 179.925783 
L 260.753538 181.218539 
L 263.827918 182.796812 
L 266.902299 184.628877 
L 269.976679 185.993013 
L 273.051059 187.301631 
L 276.125439 188.530939 
L 279.199819 190.09335 
L 282.274199 191.520933 
L 285.34858 192.97231 
L 288.42296 194.590238 
L 291.49734 196.0892 
L 294.57172 197.358163 
L 297.6461 198.492299 
L 300.72048 199.650228 
L 303.794861 200.617812 
L 306.869241 201.680569 
L 309.943621 202.632291 
L 313.018001 203.932979 
L 316.092381 204.718149 
L 319.166761 205.257459 
L 322.241142 206.04263 
L 325.315522 206.518491 
L 328.389902 207.256076 
L 331.464282 208.14435 
L 334.538662 208.826417 
L 337.613042 209.714692 
L 340.687423 210.642621 
L 343.761803 211.657791 
L 346.836183 212.57779 
L 349.910563 213.35503 
L 352.984943 214.425717 
" style="fill:none;stroke:#a6d854;stroke-linecap:square;stroke-width:1.5;"/>
   </g>
   <g id="line2d_22">
    <path clip-path="url(#p3eadae6ec0)" d="M 48.621307 236.981536 
L 51.695687 236.569123 
L 54.770067 235.942573 
L 57.844447 235.197057 
L 60.918827 234.118438 
L 63.993208 232.619476 
L 67.067588 230.668445 
L 70.141968 228.241553 
L 73.216348 225.037421 
L 76.290728 221.206739 
L 79.365108 216.511575 
L 82.439489 210.460207 
L 85.513869 204.17884 
L 88.588249 197.199543 
L 91.662629 189.934729 
L 94.737009 182.598536 
L 97.811389 174.651655 
L 100.88577 166.855463 
L 103.96015 160.177545 
L 107.03453 153.745488 
L 110.10891 147.61481 
L 113.18329 142.531026 
L 116.25767 137.89138 
L 119.332051 134.290697 
L 122.406431 130.927945 
L 125.480811 128.310709 
L 128.555191 125.423818 
L 131.629571 124.591061 
L 134.703951 123.671062 
L 137.778332 123.314166 
L 140.852712 122.806581 
L 143.927092 123.076236 
L 147.001472 123.274511 
L 150.075852 123.306235 
L 153.150232 123.774166 
L 156.224613 124.765543 
L 159.298993 125.978989 
L 162.373373 127.993468 
L 165.447753 129.793809 
L 168.522133 131.554496 
L 171.596513 132.752079 
L 174.670894 134.23518 
L 177.745274 135.86897 
L 180.819654 138.018276 
L 183.894034 140.53241 
L 186.968414 143.18137 
L 190.042794 144.545505 
L 193.117175 146.345847 
L 196.191555 147.741706 
L 199.265935 149.668944 
L 202.340315 151.485147 
L 205.414695 153.031696 
L 208.489075 154.427555 
L 211.563456 156.108932 
L 214.637836 157.65548 
L 217.712216 158.868926 
L 220.786596 160.486854 
L 223.860976 161.517887 
L 226.935356 163.159608 
L 230.009737 164.269951 
L 233.084117 165.776844 
L 236.158497 167.910288 
L 239.232877 169.48063 
L 242.307257 171.130282 
L 245.381637 172.851314 
L 248.456018 174.342345 
L 251.530398 175.46855 
L 254.604778 176.888202 
L 257.679158 178.069924 
L 260.753538 179.12475 
L 263.827918 180.591988 
L 266.902299 181.345435 
L 269.976679 182.416123 
L 273.051059 184.240257 
L 276.125439 185.421979 
L 279.199819 186.381633 
L 282.274199 187.721975 
L 285.34858 189.244731 
L 288.42296 190.133005 
L 291.49734 190.941969 
L 294.57172 191.679554 
L 297.6461 193.202309 
L 300.72048 193.741619 
L 303.794861 194.836099 
L 306.869241 196.025752 
L 309.943621 197.040923 
L 313.018001 198.214714 
L 316.092381 199.27747 
L 319.166761 200.324365 
L 322.241142 201.4585 
L 325.315522 202.378499 
L 328.389902 203.131946 
L 331.464282 203.909185 
L 334.538662 204.543667 
L 337.613042 205.170218 
L 340.687423 205.899871 
L 343.761803 206.518491 
L 346.836183 207.192627 
L 349.910563 207.52573 
L 352.984943 208.168143 
" style="fill:none;stroke:#a6d854;stroke-linecap:square;stroke-width:1.5;"/>
   </g>
   <g id="line2d_23">
    <path clip-path="url(#p3eadae6ec0)" d="M 48.621307 237.037053 
L 51.695687 236.632571 
L 54.770067 236.006021 
L 57.844447 235.157402 
L 60.918827 234.007404 
L 63.993208 232.579821 
L 67.067588 230.62879 
L 70.141968 227.813278 
L 73.216348 224.299836 
L 76.290728 219.438121 
L 79.365108 213.307443 
L 82.439489 205.542975 
L 85.513869 195.438857 
L 88.588249 183.383707 
L 91.662629 170.289594 
L 94.737009 155.00652 
L 97.811389 137.827932 
L 100.88577 121.482101 
L 103.96015 105.001443 
L 107.03453 90.884228 
L 110.10891 77.639426 
L 113.18329 68.082547 
L 116.25767 60.690837 
L 119.332051 56.257397 
L 122.406431 54.068436 
L 125.480811 53.55292 
L 128.555191 54.679125 
L 131.629571 57.05843 
L 134.703951 61.49187 
L 137.778332 64.854622 
L 140.852712 69.779786 
L 143.927092 74.554259 
L 147.001472 79.61425 
L 150.075852 85.752859 
L 153.150232 91.494917 
L 156.224613 96.277321 
L 159.298993 102.225586 
L 162.373373 107.674196 
L 165.447753 111.964878 
L 168.522133 117.294523 
L 171.596513 121.743825 
L 174.670894 126.351747 
L 177.745274 130.848635 
L 180.819654 135.083799 
L 183.894034 138.74793 
L 186.968414 143.125853 
L 190.042794 147.22619 
L 193.117175 151.159975 
L 196.191555 154.728934 
L 199.265935 157.901342 
L 202.340315 160.510647 
L 205.414695 163.635469 
L 208.489075 166.474774 
L 211.563456 169.107872 
L 214.637836 170.987524 
L 217.712216 173.184416 
L 220.786596 175.294067 
L 223.860976 177.919235 
L 226.935356 180.282679 
L 230.009737 182.455778 
L 233.084117 183.756465 
L 236.158497 185.406117 
L 239.232877 187.246114 
L 242.307257 188.515077 
L 245.381637 189.831626 
L 248.456018 191.227485 
L 251.530398 192.591621 
L 254.604778 194.45541 
L 257.679158 195.62127 
L 260.753538 197.262991 
L 263.827918 198.373334 
L 266.902299 199.182298 
L 269.976679 199.999193 
L 273.051059 201.006432 
L 276.125439 201.831258 
L 279.199819 202.838498 
L 282.274199 203.599876 
L 285.34858 204.440564 
L 288.42296 205.836423 
L 291.49734 206.843663 
L 294.57172 207.803316 
L 297.6461 208.802624 
L 300.72048 209.611588 
L 303.794861 210.309518 
L 306.869241 211.158137 
L 309.943621 211.72124 
L 313.018001 212.220894 
L 316.092381 213.148823 
L 319.166761 214.029166 
L 322.241142 214.766751 
L 325.315522 215.321922 
L 328.389902 215.805715 
L 331.464282 216.400541 
L 334.538662 216.995367 
L 337.613042 217.574332 
L 340.687423 217.883642 
L 343.761803 218.288124 
L 346.836183 218.533985 
L 349.910563 218.986053 
L 352.984943 219.644328 
" style="fill:none;stroke:#66c2a5;stroke-linecap:square;stroke-width:1.5;"/>
   </g>
   <g id="line2d_24">
    <path clip-path="url(#p3eadae6ec0)" d="M 48.621307 237.076709 
L 51.695687 236.743606 
L 54.770067 236.228089 
L 57.844447 235.538091 
L 60.918827 234.427748 
L 63.993208 232.952578 
L 67.067588 230.858789 
L 70.141968 228.328794 
L 73.216348 225.156386 
L 76.290728 220.849843 
L 79.365108 214.909509 
L 82.439489 207.716075 
L 85.513869 198.849195 
L 88.588249 187.45232 
L 91.662629 173.906139 
L 94.737009 158.496168 
L 97.811389 141.880683 
L 100.88577 123.314166 
L 103.96015 106.206958 
L 107.03453 89.710437 
L 110.10891 74.982534 
L 113.18329 63.887038 
L 116.25767 55.527744 
L 119.332051 50.919821 
L 122.406431 48.151896 
L 125.480811 48.056723 
L 128.555191 50.586719 
L 131.629571 54.980503 
L 134.703951 59.969115 
L 137.778332 65.877724 
L 140.852712 71.358058 
L 143.927092 76.846324 
L 147.001472 82.469417 
L 150.075852 88.655612 
L 153.150232 94.00905 
L 156.224613 99.449729 
L 159.298993 103.946617 
L 162.373373 109.292124 
L 165.447753 114.280735 
L 168.522133 119.404174 
L 171.596513 124.678302 
L 174.670894 129.516224 
L 177.745274 133.886215 
L 180.819654 137.907242 
L 183.894034 141.555511 
L 186.968414 145.3624 
L 190.042794 149.367565 
L 193.117175 152.619283 
L 196.191555 155.688588 
L 199.265935 158.416858 
L 202.340315 160.899267 
L 205.414695 163.770296 
L 208.489075 166.482705 
L 211.563456 169.409251 
L 214.637836 171.415799 
L 217.712216 173.239933 
L 220.786596 174.953034 
L 223.860976 177.387857 
L 226.935356 178.997854 
L 230.009737 180.67923 
L 233.084117 182.368537 
L 236.158497 183.899224 
L 239.232877 185.977151 
L 242.307257 187.444389 
L 245.381637 189.173351 
L 248.456018 190.688176 
L 251.530398 191.909553 
L 254.604778 193.559205 
L 257.679158 194.907478 
L 260.753538 196.430234 
L 263.827918 197.937128 
L 266.902299 199.03954 
L 269.976679 199.816779 
L 273.051059 200.919191 
L 276.125439 201.712293 
L 279.199819 202.703671 
L 282.274199 203.853668 
L 285.34858 204.654701 
L 288.42296 206.010906 
L 291.49734 206.58987 
L 294.57172 207.2878 
L 297.6461 208.445729 
L 300.72048 209.516416 
L 303.794861 210.372966 
L 306.869241 210.991586 
L 309.943621 211.229516 
L 313.018001 211.871929 
L 316.092381 212.538135 
L 319.166761 213.20434 
L 322.241142 214.06089 
L 325.315522 214.671579 
L 328.389902 214.941233 
L 331.464282 215.488474 
L 334.538662 216.059507 
L 337.613042 216.717782 
L 340.687423 217.415711 
L 343.761803 217.883642 
L 346.836183 218.367434 
L 349.910563 218.827433 
L 352.984943 219.446052 
" style="fill:none;stroke:#66c2a5;stroke-linecap:square;stroke-width:1.5;"/>
   </g>
   <g id="line2d_25">
    <path clip-path="url(#p3eadae6ec0)" d="M 48.621307 236.981536 
L 51.695687 236.569123 
L 54.770067 235.99809 
L 57.844447 235.157402 
L 60.918827 233.943956 
L 63.993208 232.310166 
L 67.067588 229.978446 
L 70.141968 227.21052 
L 73.216348 223.419493 
L 76.290728 218.391227 
L 79.365108 211.530895 
L 82.439489 203.124015 
L 85.513869 191.774726 
L 88.588249 178.442682 
L 91.662629 162.850298 
L 94.737009 144.73585 
L 97.811389 125.074853 
L 100.88577 105.477304 
L 103.96015 87.39458 
L 107.03453 70.509439 
L 110.10891 58.06567 
L 113.18329 49.135342 
L 116.25767 42.81432 
L 119.332051 40.442945 
L 122.406431 40.760186 
L 125.480811 43.599491 
L 128.555191 46.993967 
L 131.629571 51.974647 
L 134.703951 58.113256 
L 137.778332 64.688071 
L 140.852712 71.13599 
L 143.927092 78.083563 
L 147.001472 84.935964 
L 150.075852 91.954916 
L 153.150232 97.704905 
L 156.224613 103.58179 
L 159.298993 109.411089 
L 162.373373 114.39177 
L 165.447753 119.784863 
L 168.522133 125.257266 
L 171.596513 130.293463 
L 174.670894 134.274835 
L 177.745274 138.065862 
L 180.819654 141.967924 
L 183.894034 145.481366 
L 186.968414 149.48653 
L 190.042794 153.007903 
L 193.117175 156.299276 
L 196.191555 159.122719 
L 199.265935 162.255472 
L 202.340315 164.26202 
L 205.414695 166.942704 
L 208.489075 169.623389 
L 211.563456 171.58235 
L 214.637836 174.048897 
L 217.712216 176.110962 
L 220.786596 177.736821 
L 223.860976 179.410267 
L 226.935356 181.22647 
L 230.009737 183.034742 
L 233.084117 184.33543 
L 236.158497 186.334046 
L 239.232877 188.007492 
L 242.307257 189.712661 
L 245.381637 191.330589 
L 248.456018 192.250587 
L 251.530398 193.74955 
L 254.604778 195.192995 
L 257.679158 196.501613 
L 260.753538 197.572301 
L 263.827918 199.071264 
L 266.902299 200.062641 
L 269.976679 201.069881 
L 273.051059 202.188154 
L 276.125439 203.211256 
L 279.199819 204.56746 
L 282.274199 205.360562 
L 285.34858 206.296422 
L 288.42296 206.780214 
L 291.49734 207.850902 
L 294.57172 208.659866 
L 297.6461 209.516416 
L 300.72048 210.293656 
L 303.794861 210.936069 
L 306.869241 211.403999 
L 309.943621 211.840205 
L 313.018001 212.601583 
L 316.092381 213.053651 
L 319.166761 214.029166 
L 322.241142 214.536751 
L 325.315522 215.464681 
L 328.389902 215.821577 
L 331.464282 216.432265 
L 334.538662 216.955712 
L 337.613042 217.391918 
L 340.687423 217.836055 
L 343.761803 218.478468 
L 346.836183 218.970191 
L 349.910563 219.335018 
L 352.984943 220.025017 
" style="fill:none;stroke:#66c2a5;stroke-linecap:square;stroke-width:1.5;"/>
   </g>
   <g id="line2d_26">
    <path clip-path="url(#p3eadae6ec0)" d="M 48.621307 237.037053 
L 51.695687 236.569123 
L 54.770067 235.887056 
L 57.844447 235.157402 
L 60.918827 234.015335 
L 63.993208 232.611545 
L 67.067588 230.684307 
L 70.141968 227.971898 
L 73.216348 224.418802 
L 76.290728 219.477777 
L 79.365108 213.196409 
L 82.439489 205.535044 
L 85.513869 195.62127 
L 88.588249 184.089568 
L 91.662629 170.527525 
L 94.737009 154.586176 
L 97.811389 137.827932 
L 100.88577 120.38762 
L 103.96015 103.185239 
L 107.03453 86.371478 
L 110.10891 71.770471 
L 113.18329 61.49187 
L 116.25767 54.774297 
L 119.332051 50.52327 
L 122.406431 48.278792 
L 125.480811 49.34948 
L 128.555191 50.91189 
L 131.629571 54.924986 
L 134.703951 59.342564 
L 137.778332 64.124969 
L 140.852712 69.097718 
L 143.927092 74.030812 
L 147.001472 79.677698 
L 150.075852 84.698033 
L 153.150232 90.27354 
L 156.224613 95.682495 
L 159.298993 100.726623 
L 162.373373 107.293507 
L 165.447753 113.07522 
L 168.522133 118.666589 
L 171.596513 123.837614 
L 174.670894 128.191743 
L 177.745274 132.157253 
L 180.819654 136.035522 
L 183.894034 140.008962 
L 186.968414 143.681024 
L 190.042794 147.035845 
L 193.117175 150.811011 
L 196.191555 154.570314 
L 199.265935 157.520653 
L 202.340315 160.431337 
L 205.414695 163.151677 
L 208.489075 165.872016 
L 211.563456 168.584425 
L 214.637836 170.9558 
L 217.712216 173.263727 
L 220.786596 174.945103 
L 223.860976 176.888202 
L 226.935356 178.910612 
L 230.009737 180.83785 
L 233.084117 182.947501 
L 236.158497 184.787498 
L 239.232877 186.460943 
L 242.307257 187.76163 
L 245.381637 189.514385 
L 248.456018 191.171968 
L 251.530398 192.670931 
L 254.604778 193.924032 
L 257.679158 195.177133 
L 260.753538 196.810923 
L 263.827918 197.95299 
L 266.902299 198.761954 
L 269.976679 199.547125 
L 273.051059 200.768502 
L 276.125439 201.823327 
L 279.199819 202.505395 
L 282.274199 203.647462 
L 285.34858 204.964011 
L 288.42296 205.741251 
L 291.49734 206.740559 
L 294.57172 207.232283 
L 297.6461 208.080902 
L 300.72048 209.104003 
L 303.794861 209.85745 
L 306.869241 210.602966 
L 309.943621 211.316758 
L 313.018001 211.808481 
L 316.092381 212.4271 
L 319.166761 212.799858 
L 322.241142 213.28365 
L 325.315522 213.854684 
L 328.389902 214.148131 
L 331.464282 215.123647 
L 334.538662 215.464681 
L 337.613042 215.789852 
L 340.687423 216.337093 
L 343.761803 216.646403 
L 346.836183 217.217436 
L 349.910563 217.606056 
L 352.984943 217.86778 
" style="fill:none;stroke:#66c2a5;stroke-linecap:square;stroke-width:1.5;"/>
   </g>
   <g id="line2d_27">
    <path clip-path="url(#p3eadae6ec0)" d="M 48.621307 236.981536 
L 51.695687 236.450158 
L 54.770067 235.902918 
L 57.844447 235.157402 
L 60.918827 234.086714 
L 63.993208 232.548096 
L 67.067588 230.438445 
L 70.141968 227.900519 
L 73.216348 224.371215 
L 76.290728 219.477777 
L 79.365108 213.196409 
L 82.439489 204.924356 
L 85.513869 194.978858 
L 88.588249 182.582674 
L 91.662629 168.219598 
L 94.737009 151.199631 
L 97.811389 132.165184 
L 100.88577 112.012464 
L 103.96015 93.628361 
L 107.03453 77.020806 
L 110.10891 62.213593 
L 113.18329 50.309133 
L 116.25767 42.89363 
L 119.332051 39.673636 
L 122.406431 39.443636 
L 125.480811 41.347081 
L 128.555191 45.003281 
L 131.629571 50.705684 
L 134.703951 56.550845 
L 137.778332 62.943247 
L 140.852712 69.89082 
L 143.927092 76.711496 
L 147.001472 83.088036 
L 150.075852 90.440091 
L 153.150232 97.895249 
L 156.224613 104.541444 
L 159.298993 110.743501 
L 162.373373 116.255559 
L 165.447753 120.593827 
L 168.522133 124.591061 
L 171.596513 128.834156 
L 174.670894 132.728286 
L 177.745274 136.749313 
L 180.819654 140.07241 
L 183.894034 143.855507 
L 186.968414 147.368948 
L 190.042794 150.113081 
L 193.117175 153.904108 
L 196.191555 157.473067 
L 199.265935 159.860304 
L 202.340315 162.525126 
L 205.414695 165.007535 
L 208.489075 167.60891 
L 211.563456 169.496492 
L 214.637836 171.867867 
L 217.712216 174.120277 
L 220.786596 176.150618 
L 223.860976 178.173028 
L 226.935356 179.687852 
L 230.009737 181.591297 
L 233.084117 183.058535 
L 236.158497 184.589222 
L 239.232877 186.088185 
L 242.307257 187.444389 
L 245.381637 189.014731 
L 248.456018 190.291625 
L 251.530398 191.433692 
L 254.604778 192.623345 
L 257.679158 193.836791 
L 260.753538 195.422995 
L 263.827918 196.081269 
L 266.902299 197.032992 
L 269.976679 197.857818 
L 273.051059 198.619196 
L 276.125439 199.983331 
L 279.199819 201.085743 
L 282.274199 202.211947 
L 285.34858 202.957463 
L 288.42296 203.925047 
L 291.49734 204.995735 
L 294.57172 206.193319 
L 297.6461 206.772283 
L 300.72048 207.44642 
L 303.794861 208.406073 
L 306.869241 209.341934 
L 309.943621 210.08745 
L 313.018001 210.999517 
L 316.092381 211.602274 
L 319.166761 212.411238 
L 322.241142 213.093306 
L 325.315522 213.767443 
L 328.389902 214.251235 
L 331.464282 214.861923 
L 334.538662 215.647094 
L 337.613042 216.154679 
L 340.687423 216.884333 
L 343.761803 217.352263 
L 346.836183 217.661573 
L 349.910563 217.939159 
L 352.984943 218.303986 
" style="fill:none;stroke:#66c2a5;stroke-linecap:square;stroke-width:1.5;"/>
   </g>
   <g id="patch_3">
    <path d="M 33.403125 247 
L 33.403125 29.56 
" style="fill:none;stroke:#000000;stroke-linecap:square;stroke-linejoin:miter;stroke-width:0.8;"/>
   </g>
   <g id="patch_4">
    <path d="M 368.203125 247 
L 368.203125 29.56 
" style="fill:none;stroke:#000000;stroke-linecap:square;stroke-linejoin:miter;stroke-width:0.8;"/>
   </g>
   <g id="patch_5">
    <path d="M 33.403125 247 
L 368.203125 247 
" style="fill:none;stroke:#000000;stroke-linecap:square;stroke-linejoin:miter;stroke-width:0.8;"/>
   </g>
   <g id="patch_6">
    <path d="M 33.403125 29.56 
L 368.203125 29.56 
" style="fill:none;stroke:#000000;stroke-linecap:square;stroke-linejoin:miter;stroke-width:0.8;"/>
   </g>
  </g>
  <g id="legend_1">
   <g id="line2d_28">
    <path d="M 80.938281 13.098437 
L 100.938281 13.098437 
" style="fill:none;stroke:#b3b3b3;stroke-linecap:square;stroke-width:1.5;"/>
   </g>
   <g id="line2d_29"/>
   <g id="text_14">
    <!-- =5 -->
    <g transform="translate(108.938281 16.598437)scale(0.1 -0.1)">
     <defs>
      <path d="M 30.609375 47.5625 
Q 23.1875 47.5625 19.1875 42.1875 
Q 14.984375 36.578125 14.984375 27.296875 
Q 14.984375 17.484375 19.15625 11.84375 
Q 23.34375 6.203125 30.609375 6.203125 
Q 37.796875 6.203125 41.984375 11.859375 
Q 46.1875 17.53125 46.1875 27.296875 
Q 46.1875 36.234375 42 42.1875 
Q 38.140625 47.5625 30.609375 47.5625 
z
M 30.609375 54.6875 
L 60.453125 54.6875 
L 60.453125 45.703125 
L 50.390625 45.703125 
Q 55.71875 38.09375 55.71875 27.296875 
Q 55.71875 13.875 49.03125 6.25 
Q 42.328125 -1.421875 30.609375 -1.421875 
Q 18.84375 -1.421875 12.203125 6.25 
Q 5.515625 13.875 5.515625 27.296875 
Q 5.515625 40.828125 12.203125 48.390625 
Q 17.71875 54.6875 30.609375 54.6875 
z
" id="DejaVuSans-963"/>
      <path d="M 10.59375 45.40625 
L 73.1875 45.40625 
L 73.1875 37.203125 
L 10.59375 37.203125 
z
M 10.59375 25.484375 
L 73.1875 25.484375 
L 73.1875 17.1875 
L 10.59375 17.1875 
z
" id="DejaVuSans-61"/>
     </defs>
     <use xlink:href="#DejaVuSans-963"/>
     <use x="63.378906" xlink:href="#DejaVuSans-61"/>
     <use x="147.167969" xlink:href="#DejaVuSans-53"/>
    </g>
   </g>
   <g id="line2d_30">
    <path d="M 150.017969 13.098437 
L 170.017969 13.098437 
" style="fill:none;stroke:#a6d854;stroke-linecap:square;stroke-width:1.5;"/>
   </g>
   <g id="line2d_31"/>
   <g id="text_15">
    <!-- =20 -->
    <g transform="translate(178.017969 16.598437)scale(0.1 -0.1)">
     <use xlink:href="#DejaVuSans-963"/>
     <use x="63.378906" xlink:href="#DejaVuSans-61"/>
     <use x="147.167969" xlink:href="#DejaVuSans-50"/>
     <use x="210.791016" xlink:href="#DejaVuSans-48"/>
    </g>
   </g>
   <g id="line2d_32">
    <path d="M 225.460156 13.098437 
L 245.460156 13.098437 
" style="fill:none;stroke:#66c2a5;stroke-linecap:square;stroke-width:1.5;"/>
   </g>
   <g id="line2d_33"/>
   <g id="text_16">
    <!-- =100 -->
    <g transform="translate(253.460156 16.598437)scale(0.1 -0.1)">
     <use xlink:href="#DejaVuSans-963"/>
     <use x="63.378906" xlink:href="#DejaVuSans-61"/>
     <use x="147.167969" xlink:href="#DejaVuSans-49"/>
     <use x="210.791016" xlink:href="#DejaVuSans-48"/>
     <use x="274.414062" xlink:href="#DejaVuSans-48"/>
    </g>
   </g>
  </g>
 </g>
 <defs>
  <clipPath id="p3eadae6ec0">
   <rect height="217.44" width="334.8" x="33.403125" y="29.56"/>
  </clipPath>
 </defs>
</svg>
