<?xml version="1.0" encoding="UTF-8" standalone="no"?>
<svg
   xmlns:dc="http://purl.org/dc/elements/1.1/"
   xmlns:cc="http://creativecommons.org/ns#"
   xmlns:rdf="http://www.w3.org/1999/02/22-rdf-syntax-ns#"
   xmlns:svg="http://www.w3.org/2000/svg"
   xmlns="http://www.w3.org/2000/svg"
   xmlns:sodipodi="http://sodipodi.sourceforge.net/DTD/sodipodi-0.dtd"
   xmlns:inkscape="http://www.inkscape.org/namespaces/inkscape"
   viewBox="0 0 323.70237 271.64691"
   width="100%"
   height="100%"
	 preserveAspectRatio="xMinYMid meet"
   version="1.1"
   id="svg1085"
   sodipodi:docname="tree.svg"
   inkscape:version="1.0beta1 (fe3e306, 2019-09-17)">
  <metadata
     id="metadata1091">
    <rdf:RDF>
      <cc:Work
         rdf:about="">
        <dc:format>image/svg+xml</dc:format>
        <dc:type
           rdf:resource="http://purl.org/dc/dcmitype/StillImage" />
        <dc:title></dc:title>
      </cc:Work>
    </rdf:RDF>
  </metadata>
  <defs
     id="defs1089" />
  <sodipodi:namedview
     inkscape:pagecheckerboard="false"
     viewbox-x="0"
     pagecolor="#ffffff"
     bordercolor="#666666"
     inkscape:document-rotation="0"
     borderopacity="1"
     objecttolerance="10"
     gridtolerance="10"
     guidetolerance="10"
     inkscape:pageopacity="0"
     inkscape:pageshadow="2"
     inkscape:window-width="1802"
     inkscape:window-height="970"
     id="namedview1087"
     showgrid="false"
     fit-margin-top="0"
     fit-margin-left="0"
     fit-margin-right="0"
     fit-margin-bottom="0"
     inkscape:zoom="0.35"
     inkscape:cx="400"
     inkscape:cy="560"
     inkscape:window-x="114"
     inkscape:window-y="114"
     inkscape:window-maximized="0"
     inkscape:current-layer="svg1085" />
  <g
     style="opacity:1;stop-opacity:1"
     id="g973"
     transform="matrix(0.9921,0,0,0.9921,108.78973,3.5606469)">
    <path
       inkscape:connector-curvature="0"
       id="path971"
       d="m 0.022,-3.416 0.064,0.025 0.325,0.003 0.02,0.009 0.91,0.186 0.451,0.193 0.256,0.051 0.838,0.506 0.393,0.165 0.676,0.687 0.123,0.299 0.25,0.312 0.281,0.119 0.288,0.296 0.478,0.491 0.113,0.275 0.355,0.444 0.169,0.421 0.148,0.305 10e-4,0.004 H 6.162 L 6.443,1.95 6.671,2.924 V 3.313 L 6.641,3.386 6.383,4.161 V 4.288 4.306 L 6.377,5.077 V 5.36 L 6.316,5.895 6.111,6.787 5.746,7.362 5.572,7.817 5.243,8.186 5.05,8.538 4.745,8.852 4.663,9.049 4.595,9.077 4.592,9.085 4.217,9.436 3.954,9.698 l -0.599,0.77 -0.034,0.029 -0.01,0.026 -0.409,0.491 -0.328,0.492 -0.339,0.308 -0.069,0.15 -0.616,0.528 -0.425,0.425 -0.487,0.487 -0.321,0.133 -0.57,0.418 -0.713,0.238 -0.604,0.312 -0.102,0.025 -0.064,0.053 -0.468,0.199 -0.36,0.074 -0.126,0.074 -0.567,0.108 -0.446,0.043 H -4.678 -4.7 l -0.671,-0.006 h -0.574 v 0 l -0.452,-0.045 -0.503,-0.1 -0.044,-0.027 -0.145,-0.021 -0.696,-0.207 -0.138,-0.096 -0.245,-0.06 -0.594,-0.305 -0.193,-0.18 -0.176,-0.062 -0.492,-0.393 -0.624,-0.78 -0.022,-0.099 -0.046,-0.057 -0.189,-0.472 -0.044,-0.221 -0.057,-0.089 -0.01,-0.039 -0.437,-0.449 -0.068,-0.254 -0.118,-0.161 -0.19,-0.569 -0.123,-0.741 V 9.356 l 0.188,-0.644 V 6.919 l 0.401,-1.297 0.205,-0.164 0.04,-0.096 0.037,-0.13 V 5.165 l 0.088,-0.632 0.199,-0.698 0.299,-0.433 0.141,-0.391 0.181,-0.217 0.233,-0.639 0.455,-0.54 0.199,-0.333 0.153,-0.149 V 1.132 l 0.23,-0.428 0.232,-0.694 0.589,-0.786 0.177,-0.148 0.043,-0.105 0.39,-0.39 0.208,-0.086 0.328,-0.318 0.795,-0.442 0.301,-0.201 0.219,-0.22 0.371,-0.153 0.676,-0.462 0.665,-0.191 0.682,-0.097 h 1.949 z m -2.567,6.865 -0.064,0.066 -0.04,0.086 -0.143,0.626 -0.07,0.145 0.002,0.28 0.002,0.113 0.152,0.404 0.008,-0.005 0.085,-0.107 0.28,-0.49 0.09,-0.301 -0.088,-0.368 v 0 -0.281 L -2.376,3.47 -2.387,3.459 -2.408,3.454 -2.521,3.389 Z"
       fill="rgb(0%, 0%, 0%)"
       fill-mode="evenodd" />
  </g>
  <g
     style="opacity:1;stop-opacity:1"
     id="g981"
     transform="matrix(0.9921,0,0,0.9921,104.32523,27.619067)">
    <path
       inkscape:connector-curvature="0"
       id="path975"
       d="M 1.218,-1.413 1.804,0 1.657,0.751 1.374,1.452 1.27,1.579 1.196,1.765 1.18,2.015 1.092,2.709 0.85,3.164 v 0.017 l 0.012,0.575 v 0.002 0 L 0.873,4.333 0.884,4.707 0.885,4.742 V 4.743 L 0.889,5.028 0.955,5.16 1.181,6.102 1.189,6.123 1.197,7.194 1.198,7.212 1.086,7.898 0.909,8.431 0.912,8.746 v 0.025 2.04 l 0.007,1.064 v 0.014 2.394 l 0.245,1.118 0.054,0.484 -0.043,0.43 -0.249,1.251 V 19 l 0.005,1.652 v 0.008 3.021 l -0.015,0.257 -0.179,1.526 0.005,1.425 v 0.008 9.343 l 0.162,0.854 0.041,0.426 v 1.162 l 0.008,1.063 v 0.016 1.261 l 0.006,1.164 v 0.011 2.235 l 0.006,1.064 v 0.015 2.819 l 0.006,0.967 v 0.015 l -0.115,0.707 -0.08,0.241 v 0.052 l 0.075,0.225 0.12,0.724 -0.092,0.569 0.088,0.453 0.01,0.023 0.005,0.449 0.027,0.065 -0.667,1.609 -1.609,0.667 -1.609,-0.667 -0.667,-1.609 0.027,-0.065 v -0.002 l -0.024,-0.059 -0.166,-0.849 0.01,-0.023 0.092,-0.567 -0.096,-0.579 v -0.78 l 0.115,-0.707 0.082,-0.248 0.004,-0.611 v -2.819 -0.014 l 0.007,-1.065 v -2.235 -0.011 l 0.006,-1.164 v -1.261 -0.015 l 0.007,-1.065 v -0.97 l -0.152,-0.872 -0.035,-0.391 v -9.551 -0.008 l 0.006,-1.56 v -0.001 l 0.015,-0.247 0.18,-1.53 V 20.66 20.652 L -3.459,19 v -1.653 l 0.042,-0.43 0.204,-1.022 -0.191,-0.912 -0.049,-0.462 v -2.632 -0.013 l 0.007,-1.065 V 8.771 8.747 L -3.439,8.064 -3.433,8.049 -3.327,7.402 -3.144,6.85 -3.142,6.644 -3.197,6.535 -3.431,5.555 v 0 -0.033 l 0.012,-0.781 v 0 l 10e-4,-0.03 0.011,-0.381 0.012,-0.574 v 0 l 0.011,-0.577 0.011,-0.774 0.425,-0.994 0.005,-0.013 0.004,-0.18 0.418,-0.96 0.186,-0.449 0.011,-0.005 0.005,-0.011 0.027,-0.012 0.004,-0.003 0.277,-0.614 0.314,-0.364 0.089,-0.213 0.149,-0.062 0.173,-0.2 1.091,-0.324 z"
       fill="rgb(0%, 0%, 0%)"
       fill-mode="evenodd" />
    <g
       id="g979"
       transform="translate(-1,60.375)">
      <path
         inkscape:connector-curvature="0"
         id="path977"
         d="m -2.113,-2.151 0.569,0.009 h 0.277 l 0.037,0.015 0.362,0.036 0.5,0.1 0.158,0.095 0.199,0.048 0.108,-0.044 1.338,0.554 0.294,0.709 0.279,0.307 0.385,0.768 0.119,0.5 0.054,0.015 0.197,0.217 0.176,0.073 0.067,0.162 0.228,0.208 0.031,0.11 0.06,0.066 0.19,0.378 0.225,0.944 v 0 L 3.734,3.133 V 5.457 5.478 L 3.728,6.064 3.721,6.082 3.58,6.812 3.38,7.313 3.075,7.691 2.943,8.232 v 0.246 0 L 2.649,9.541 2.351,10.038 2.281,10.107 2.257,10.178 1.761,10.863 1.749,10.873 1.746,10.884 1.487,11.229 1.32,11.48 1.319,11.481 0.93,12.065 0.514,12.443 0.28,12.681 l -0.478,0.288 -0.005,0.001 -0.004,0.004 -0.449,0.27 -0.533,0.355 -0.463,0.141 -0.283,0.169 -0.474,0.096 -0.417,0.042 v 0 L -3.118,14.026 -3.656,13.95 H -3.898 L -4.92,13.678 -4.974,13.647 -5.231,13.651 H -5.263 L -6.11,13.477 -6.806,13.179 -7.207,12.843 -7.471,12.734 -7.517,12.623 -7.613,12.577 -8.006,12.099 v 0 L -8.372,11.66 -8.727,11.305 -8.741,11.299 -8.744,11.291 -8.753,11.287 -8.959,10.791 -9.391,9.781 -9.399,9.296 -9.4,9.258 v 0 L -8.92,7.891 -8.738,7.664 -8.634,7.351 V 6.919 l 0.254,-1.004 0.296,-0.323 0.066,-0.161 0.13,-0.054 0.084,-0.092 0.001,-0.004 0.014,-0.056 0.143,-0.218 0.043,-0.184 0.023,-0.047 0.037,-0.128 0.149,-0.243 0.018,-0.036 0.152,-0.458 0.001,-0.002 0.084,-0.25 v -0.443 0 l 0.274,-1.031 0.264,-0.269 0.068,-0.165 0.007,-0.003 0.13,-0.567 0.179,-0.283 0.125,-0.407 0.268,-0.214 0.147,-0.233 0.158,-0.055 0.188,-0.364 0.026,-0.028 0.01,-0.037 0.543,-0.554 0.165,-0.176 0.011,-0.003 0.008,-0.008 0.164,-0.099 0.03,-0.078 0.166,-0.09 0.399,-0.362 0.528,-0.134 0.181,-0.097 0.672,-0.091 0.284,-0.019 z"
         fill="rgb(0%, 0%, 0%)"
         fill-mode="evenodd" />
    </g>
  </g>
  <g
     style="opacity:1;stop-opacity:1"
     id="g989"
     transform="matrix(0.9921,0,0,0.9921,109.40983,105.2509)">
    <path
       inkscape:connector-curvature="0"
       id="path983"
       d="m 1.058,-1.795 0.325,0.292 0.154,0.064 0.049,0.118 0.192,0.173 0.259,0.379 0.176,0.172 0.16,0.098 0.195,0.205 0.138,0.055 0.344,0.329 0.067,0.027 0.401,0.38 v 0 L 3.918,0.876 3.971,1 4.084,1.053 4.419,1.452 4.613,1.643 4.7,1.676 4.878,1.818 5.099,1.884 5.377,2.214 5.691,2.464 5.752,2.66 5.894,2.829 5.968,2.997 6,3.009 6.077,3.144 6.528,3.674 6.641,4.141 6.742,4.318 6.769,4.48 6.837,4.591 v 10e-4 l 0.478,0.764 0.011,0.039 0.031,0.03 0.389,0.669 0.087,0.318 0.132,0.194 0.122,0.427 0.199,0.347 0.703,0.966 0.203,0.623 0.2,0.367 0.054,0.379 0.176,0.395 0.352,0.493 0.02,0.062 0.06,0.057 0.355,0.567 0.602,0.602 0.134,0.324 0.413,0.586 0.366,1.185 0.239,0.598 0.407,0.523 0.78,0.78 0.116,0.28 0.382,0.486 0.342,0.888 0.602,0.669 0.093,0.243 0.277,0.321 0.361,0.795 0.827,0.978 0.811,0.838 0.084,0.207 0.288,0.312 0.58,1.127 0.551,0.747 0.021,0.064 0.064,0.06 0.751,1.177 v 10e-4 l 0.583,0.888 1.055,1.109 0.037,0.09 0.138,0.118 0.63,0.857 0.712,0.763 0.007,0.017 0.015,0.006 0.88,0.969 0.036,0.095 0.073,0.035 0.668,0.859 0.752,0.918 0.851,0.766 0.081,0.182 0.356,0.361 0.313,0.548 0.501,0.644 0.683,0.682 v 0 l 0.584,0.585 0.061,0.146 0.121,0.059 0.678,0.872 0.045,0.13 0.133,0.135 0.336,0.587 0.231,0.323 0.616,0.475 0.736,0.552 0.662,0.462 0.682,0.776 0.007,0.028 0.016,0.017 0.23,0.459 0.361,0.161 0.553,0.473 0.21,0.095 0.299,0.345 0.146,0.045 0.261,0.319 0.296,0.219 0.076,0.234 0.147,0.098 0.311,0.341 0.147,0.068 0.371,0.438 0.002,10e-4 0.002,0.004 0.114,0.135 0.006,0.014 0.03,0.015 0.143,0.175 0.384,0.11 0.476,0.297 0.058,0.015 0.681,0.445 0.356,0.147 0.048,0.117 0.131,0.086 0.484,1.398 -0.663,1.601 -1.601,0.663 -0.55,-0.067 L 35.883,48.484 35.635,48.322 35.248,48.211 34.837,47.954 34.76,47.94 34.13,47.571 33.983,47.537 33.848,47.427 33.574,47.313 33.559,47.278 33.54,47.27 33.445,47.169 33.439,47.166 33.437,47.161 33.351,47.071 33.322,46.998 33.206,46.904 32.825,46.417 32.817,46.394 32.589,46.116 32.275,45.906 32.264,45.894 32.252,45.89 32.195,45.818 31.557,45.117 31.526,44.996 31.333,44.906 31.082,44.61 30.657,44.421 30.628,44.397 30.584,44.386 29.817,43.758 29.438,43.271 29.375,43.087 29.202,42.897 29.053,42.6 28.806,42.419 28.797,42.409 28.788,42.406 28.002,41.817 27.985,41.796 27.968,41.79 27.09,41.1 27.026,40.968 26.663,40.652 26.181,39.976 26.148,39.876 26.056,39.782 25.743,39.235 25.242,38.591 24.754,38.103 23.975,37.324 23.914,37.177 23.794,37.118 23.115,36.246 23.07,36.116 22.938,35.982 22.723,35.607 22.01,34.965 21.936,34.798 21.781,34.725 20.907,33.656 20.895,33.622 20.87,33.61 20.232,32.791 19.412,31.871 19.399,31.838 19.372,31.825 18.617,30.933 18.582,30.838 18.465,30.731 17.89,29.867 16.845,28.7 16.793,28.566 16.619,28.398 15.98,27.362 15.259,26.328 14.612,25.538 14.559,25.39 14.397,25.225 13.847,24.249 13.184,23.608 13.136,23.495 13.034,23.447 11.965,22.184 11.878,21.948 11.638,21.669 11.291,20.906 10.644,20.187 10.531,19.893 10.223,19.502 9.903,18.671 9.357,18.125 9.297,17.978 9.176,17.92 8.498,17.047 8.405,16.78 8.187,16.508 7.803,15.548 7.778,15.421 7.737,15.363 7.508,14.619 7.116,14.227 7.052,14.071 6.805,13.836 6.352,13.111 5.911,12.494 5.845,12.289 5.686,12.102 5.302,11.239 5.203,10.778 5.128,10.642 5.108,10.501 4.655,9.878 4.62,9.77 4.519,9.669 4.135,8.997 4.052,8.685 3.924,8.499 3.8,8.064 3.564,7.644 3.112,6.923 3.102,6.888 3.075,6.861 2.793,6.38 2.65,5.858 2.558,5.696 2.175,5.23 2.149,5.169 2.11,5.136 1.86,5.032 1.281,4.442 1.246,4.355 1.103,4.237 0.795,3.832 0.497,3.518 V 3.517 H 0.496 L 0.118,3.118 0.091,3.051 -0.104,2.847 -0.237,2.752 -0.387,2.579 -0.49,2.536 -0.502,2.508 -0.98,2.019 -1.04,1.872 -1.226,1.699 -1.604,1.117 -1.938,0 -1.342,-1.439 0.097,-2.035 Z"
       fill="rgb(0%, 0%, 0%)"
       fill-mode="evenodd" />
    <g
       id="g987"
       transform="translate(54.625,62)">
      <path
         inkscape:connector-curvature="0"
         id="path985"
         d="m -7.738,-4.402 0.598,0.101 0.218,0.076 h 0.588 0.034 l 0.489,0.008 0.05,0.021 0.366,0.093 0.45,0.005 h 0.001 l 0.041,10e-4 0.179,0.005 0.569,0.009 0.031,0.013 0.83,0.007 0.002,10e-4 0.145,0.005 0.104,0.008 0.229,0.111 0.608,0.149 0.478,0.248 0.175,0.038 0.689,0.313 0.494,0.428 0.203,0.091 0.157,0.178 0.008,0.005 0.504,0.495 0.114,0.058 0.156,0.215 0.021,0.064 0.063,0.061 0.251,0.405 0.284,0.995 -0.042,0.102 0.077,0.19 L 1.029,1.085 0.858,1.162 0.776,1.361 0.71,1.388 0.67,1.459 0.41,1.554 0.448,1.657 V 1.885 L 0.608,2.244 0.643,2.41 0.705,2.494 0.79,2.75 1.176,3.328 1.324,3.814 1.54,4.147 1.642,4.553 2.021,5.184 2.379,6.464 2.397,6.507 2.399,6.783 2.596,7.058 2.617,7.122 2.679,7.181 3.355,8.243 3.767,9.648 v 0 0.954 l 0.021,0.124 0.198,0.526 0.171,0.93 v 0 l -0.249,0.71 0.854,0.684 0.386,0.483 L 5.722,15.69 4.96,17.531 3.119,18.294 2.818,18.224 2.797,18.225 2.729,18.226 2.608,18.176 1.975,18.03 1.676,17.79 1.005,17.512 0.921,17.309 0.83,17.242 0.556,17.169 0.021,16.645 -0.255,16.44 -0.287,16.342 -0.381,16.25 l -0.286,-0.476 -0.03,-0.106 -0.072,-0.08 -0.286,-0.57 -0.282,-1.18 V 13.496 L -1.4,13.05 -1.428,12.669 v 0 l 0.217,-0.619 -0.02,-0.107 -0.064,-0.114 -0.096,-0.569 -0.037,-0.443 v 0 -0.412 L -1.67,10.025 -2.109,9.411 -2.252,8.967 -2.498,8.607 -2.688,7.944 -2.788,7.246 -2.996,6.9 -3.121,6.45 -3.13,6.437 -3.45,6.693 -3.782,6.77 -3.933,6.866 -4.072,6.9 -4.19,7.017 -5.847,7.704 H -5.863 L -6.768,7.698 -7.371,7.832 -7.894,7.891 v 0 L -8.632,7.771 -9.234,7.571 -9.618,7.287 -9.894,7.193 -10.128,7.013 -10.13,7.012 -10.131,7.01 -10.671,6.593 -10.763,6.48 -10.905,6.422 -10.953,6.305 -11.054,6.257 -11.439,5.791 -12.005,5.13 -12.124,4.811 -12.422,4.427 -12.597,3.96 -12.684,3.845 -13.155,2.436 v 0 l 0.148,-0.821 0.298,-0.795 0.062,-0.08 0.031,-0.129 0.298,-0.598 0.339,-0.37 0.023,-0.055 0.017,-0.046 0.002,-0.001 0.051,-0.122 0.181,-0.075 0.233,-0.255 0.538,-0.154 0.01,-0.034 0.189,-0.31 0.058,-0.056 0.043,-0.127 0.296,-0.396 0.122,-0.102 v -0.054 l 0.68,-1.642 1.642,-0.681 z m 1.589,4.726 -0.102,0.246 -0.1,0.042 -0.04,0.087 -0.381,0.323 -0.14,0.187 -0.063,0.053 -0.061,0.084 -0.444,0.775 -0.196,0.196 -0.059,0.159 -0.214,0.115 -0.04,0.04 0.114,0.132 0.016,0.044 0.059,0.048 0.189,0.244 0.072,-0.016 0.501,-0.056 0.005,-0.003 0.345,-0.002 0.143,-0.06 0.693,-0.455 0.101,-0.027 0.626,-0.5 0.181,-0.042 0.02,-0.049 -0.293,-0.817 0.013,-0.031 0.129,-0.645 -0.552,0.006 H -5.634 L -5.652,0.41 -6.05,0.323 Z"
         fill="rgb(0%, 0%, 0%)"
         fill-mode="evenodd" />
    </g>
  </g>
  <g
     style="opacity:1;stop-opacity:1"
     id="g997"
     transform="matrix(0.9921,0,0,0.9921,87.45953,109.59133)">
    <path
       inkscape:connector-curvature="0"
       id="path991"
       d="M 1.527,-1.429 2.119,0 1.779,1.121 1.58,1.421 1.484,1.508 1.455,1.586 0.98,2.157 0.738,2.459 0.633,2.67 0.583,2.724 0.564,2.794 0.386,3.091 0.257,3.48 0.154,3.619 0.097,3.832 l -0.28,0.286 -0.228,0.82 -0.284,0.475 -0.483,0.852 -0.255,0.258 -0.067,0.163 -0.158,0.157 -0.41,0.605 -0.153,0.307 -0.154,0.523 -0.048,0.068 -0.029,0.14 -0.297,0.695 -0.009,0.011 -0.003,0.016 -0.493,1.084 -0.107,0.124 -0.044,0.145 -0.483,0.725 -0.225,0.526 -0.065,0.077 -0.028,0.108 -0.499,0.882 -0.029,0.03 -0.01,0.035 -0.466,0.745 -0.473,0.84 -0.045,0.047 -0.016,0.054 -0.507,0.777 -10e-4,10e-4 -0.644,0.98 -0.447,0.856 -0.589,1.23 -0.086,0.096 -0.034,0.114 -0.774,1.183 -0.065,0.06 -0.02,0.059 -0.473,0.609 -0.093,0.52 -0.125,0.215 -0.119,0.431 -0.768,1.286 -0.166,0.163 -0.049,0.128 -0.493,0.556 -0.177,0.573 v 0.774 l -0.027,0.325 -0.18,1.086 -0.085,1.088 -0.222,0.458 -0.249,0.673 -0.421,0.491 -0.332,0.676 -0.459,1.193 -0.072,0.091 -0.035,0.137 -0.447,0.819 -0.461,1.013 -0.043,0.05 -0.018,0.071 -0.488,0.89 -0.081,0.085 -0.029,0.091 -0.623,0.891 -0.396,0.713 -0.373,0.832 -0.155,0.62 -0.131,0.201 -0.092,0.331 -0.59,0.984 -0.418,0.408 -0.066,0.135 -0.646,0.503 -0.055,0.077 -0.117,0.642 -0.187,0.32 -0.153,0.476 -0.369,0.517 -0.312,0.703 -0.139,0.163 -0.057,0.177 -0.236,0.331 -0.113,0.564 -0.211,0.35 -0.15,0.449 -0.476,0.635 -0.194,0.388 -0.346,0.78 -0.274,0.732 -0.351,0.449 -0.105,0.252 -0.288,0.289 -0.063,0.254 -0.055,0.083 -0.038,0.192 -0.242,0.577 -0.165,0.578 v 0.002 l -0.113,0.396 v 0.204 0 l -0.442,1.259 -0.203,0.253 -0.089,0.225 -0.249,0.307 -0.092,0.247 -0.195,0.108 -0.194,0.24 -0.545,0.168 -0.29,0.16 -0.67,0.102 -0.262,0.02 -0.052,0.022 -1.442,-0.597 -0.597,-1.442 0.193,-0.465 0.327,-0.868 0.042,-0.023 0.035,-0.086 0.55,-0.228 0.165,-0.088 0.01,-0.029 0.046,-0.326 0.199,-0.696 v -0.002 l 0.194,-0.681 0.055,-0.078 0.034,-0.162 0.23,-0.527 0.156,-0.628 0.395,-0.604 0.131,-0.316 0.374,-0.373 0.145,-0.387 0.027,-0.035 0.013,-0.061 0.395,-0.89 0.024,-0.028 0.01,-0.042 0.298,-0.596 0.135,-0.148 0.049,-0.148 0.311,-0.415 0.108,-0.54 0.19,-0.315 0.143,-0.446 0.369,-0.517 0.312,-0.703 0.14,-0.163 0.056,-0.177 0.226,-0.316 0.116,-0.642 0.188,-0.319 0.152,-0.477 0.492,-0.688 0.261,-0.134 0.136,-0.278 0.581,-0.452 0.238,-0.396 0.125,-0.504 0.071,-0.107 0.05,-0.232 0.498,-1.082 0.045,-0.051 0.018,-0.071 0.493,-0.887 0.077,-0.08 0.028,-0.086 0.626,-0.896 0.403,-0.715 0.455,-1.003 0.052,-0.06 0.022,-0.083 0.421,-0.748 0.44,-1.142 0.053,-0.067 0.025,-0.107 0.499,-0.983 0.194,-0.209 0.063,-0.172 0.171,-0.199 0.049,-0.544 0.008,-0.016 0.01,-0.126 0.168,-1.01 v -0.906 l 0.088,-0.582 0.393,-1.281 0.29,-0.407 0.119,-0.311 0.673,-0.757 0.526,-0.831 0.143,-0.648 0.251,-0.401 0.143,-0.401 0.737,-0.894 0.644,-0.948 0.502,-1.131 0.012,-0.014 0.005,-0.021 0.475,-0.995 0.067,-0.075 0.027,-0.095 0.669,-1.088 0.44,-0.735 0.466,-0.851 0.038,-0.04 0.014,-0.049 0.458,-0.732 0.406,-0.746 0.259,-0.606 0.119,-0.141 0.05,-0.167 0.496,-0.743 0.418,-0.922 0.224,-0.523 0.156,-0.566 0.082,-0.12 0.054,-0.227 0.297,-0.597 0.08,-0.087 0.031,-0.103 0.582,-0.889 0.204,-0.188 0.052,-0.125 0.086,-0.087 0.346,-0.636 0.028,-0.028 0.009,-0.036 0.005,-0.007 V 3.119 L -3.898,2.113 -3.64,1.85 -3.573,1.689 -3.42,1.626 l 0.068,-0.07 0.094,-0.126 0.063,-0.229 0.253,-0.422 0.165,-0.33 0.166,-0.182 0.058,-0.165 0.393,-0.492 0.015,-0.007 0.007,-0.02 0.418,-0.502 0.14,-0.209 0.198,-0.181 0.05,-0.12 0.152,-0.063 0.313,-0.285 0.964,-0.244 v 0 z"
       fill="rgb(0%, 0%, 0%)"
       fill-mode="evenodd" />
    <g
       id="g995"
       transform="translate(-34,61.625)">
      <path
         inkscape:connector-curvature="0"
         id="path993"
         d="m 0.582,-2.311 0.296,0.012 0.112,0.051 0.831,0.209 0.395,0.211 0.112,0.107 0.463,0.172 0.492,0.427 0.205,0.144 0.66,0.753 0.009,0.038 0.022,0.025 0.28,0.575 0.222,0.951 V 1.386 L 4.679,1.542 4.863,2.339 v 0.39 L 4.857,2.745 V 2.978 L 5.247,3.919 5.419,4.128 5.7,4.799 5.875,5.652 V 6.279 L 5.88,6.292 5.889,6.777 5.89,6.822 5.588,7.728 5.446,8.443 5.157,9.143 4.95,9.395 4.866,9.639 4.799,9.726 l -0.121,0.362 -0.295,0.4 -0.123,0.335 -0.214,0.122 -0.181,0.244 -0.43,0.14 -0.28,0.305 -0.083,0.173 -0.291,0.233 -0.236,0.295 -0.085,0.041 -0.042,0.104 -0.204,0.214 -0.315,0.405 -0.783,0.641 -0.274,0.065 -0.138,0.092 -0.053,0.015 -0.392,0.251 -0.292,0.228 -1.083,0.374 -0.297,0.129 -0.484,0.01 H -1.949 L -2.95,14.679 -3.063,14.625 h -0.25 l -1.502,-0.543 -0.397,-0.331 -0.142,-0.1 -0.314,-0.104 -0.678,-0.505 -0.144,-0.171 -0.102,-0.042 -0.043,-0.103 -0.069,-0.032 -0.582,-0.68 -0.079,-0.212 -0.233,-0.256 -0.091,-0.182 -0.048,-0.2 -0.082,-0.112 -0.288,-0.861 -0.004,-0.026 -0.007,-0.01 L -8.331,9.496 -8.4,9.07 -8.493,8.863 -8.512,8.381 -8.514,8.284 V 6.432 L -8.344,5.55 -8.143,5.047 -7.926,4.778 -7.924,4.764 -7.922,4.701 -7.911,4.677 -7.903,4.622 -7.818,4.467 -7.751,4.313 -7.345,3.225 -6.935,2.751 -6.794,2.687 -6.69,2.496 -6.338,2.13 -6.252,1.932 -5.987,1.683 -5.718,1.33 -5.625,1.253 -5.601,1.19 -5.414,0.984 -5.286,0.927 -5.23,0.802 -4.558,0.21 -4.513,0.193 -4.496,0.157 -4.063,-0.2 l 0.132,-0.121 0.569,-0.553 0.161,-0.065 0.232,-0.242 0.239,-0.149 0.329,-0.233 0.203,-0.066 0.185,-0.158 0.383,-0.174 0.948,-0.207 0.078,0.001 0.366,0.013 0.725,-0.159 z"
         fill="rgb(0%, 0%, 0%)"
         fill-mode="evenodd" />
    </g>
  </g>
  <g
     style="opacity:1;stop-opacity:1"
     id="g1005"
     transform="matrix(0.9921,0,0,0.9921,38.59863,193.79582)">
    <path
       inkscape:connector-curvature="0"
       id="path999"
       d="M 0.687,-1.174 1.334,0.39 1.122,1.335 0.93,1.743 0.882,1.797 0.884,2.02 V 2.047 L 0.865,2.339 0.775,3.033 0.591,3.375 0.387,4.023 0.154,4.357 0.063,4.735 0.019,4.805 -0.013,4.981 -0.201,5.489 -0.342,5.671 -0.411,5.906 -0.498,6.043 -0.525,6.297 -1.276,7.762 -1.287,7.766 -1.291,7.775 -1.36,7.836 -1.413,8.13 -1.488,8.258 -1.562,8.617 -1.796,9.166 -1.86,9.391 v 0.549 0 l -0.272,1.093 -0.339,0.382 -0.072,0.173 -0.123,0.051 -0.011,0.106 -0.068,0.134 -0.121,0.564 -0.265,0.591 -0.275,0.791 -0.167,0.222 -0.084,0.277 -0.365,0.548 -0.176,0.703 -0.181,1.088 -0.1,0.176 -0.108,0.456 -0.392,0.786 -0.141,0.493 -0.161,0.233 -0.097,0.339 -0.682,1.085 h -0.001 l -0.288,0.469 -0.19,0.712 -0.185,0.834 -0.082,0.132 -0.067,0.306 -0.364,0.803 -0.37,1.002 -0.165,0.213 -0.079,0.258 -0.595,0.881 -0.022,0.021 -0.007,0.021 -0.281,0.394 -0.15,0.466 -0.17,0.706 -0.256,0.398 -0.152,0.449 -0.681,0.886 -0.042,0.035 -0.011,0.031 -0.264,0.317 -0.36,0.864 -0.1,0.121 -0.045,0.163 -0.116,0.193 -0.116,0.464 -0.135,0.207 -0.096,0.361 -0.161,0.282 -0.042,0.334 -0.068,0.129 -0.099,0.481 -0.298,0.697 -10e-4,0.001 -0.291,0.681 -0.11,0.131 -0.048,0.168 -0.218,0.349 -0.036,0.287 -0.06,0.113 -0.086,0.445 -0.03,0.076 v 0.141 l -0.398,1.135 -0.002,0.163 -0.068,0.16 -0.334,0.935 v 0.064 l -0.015,0.034 -0.286,1.076 -0.081,0.143 v 0.059 l 0.001,0.032 -0.311,1.151 -0.194,0.333 -0.007,0.019 -0.29,1.045 -0.298,0.498 -0.129,0.126 -0.042,0.117 -0.303,0.379 -0.202,0.732 -0.298,0.497 -0.261,0.254 -0.076,0.184 -0.194,0.08 -0.292,0.285 -1.106,0.294 -0.04,0.017 -1.632,-0.676 -0.676,-1.632 0.018,-0.043 0.316,-1.142 0.077,-0.129 0.348,-1.042 0.296,-0.396 0.031,-0.026 0.009,-0.025 0.256,-0.32 0.097,-0.488 0.207,-0.5 0.112,-0.135 0.014,-0.052 0.002,-0.119 0.021,-0.049 0.279,-1.051 0.084,-0.147 v -0.065 -0.021 l 0.375,-1.088 -0.002,-0.147 v -0.032 0 l 0.406,-1.159 0.148,-0.768 0.085,-0.213 0.062,-0.496 0.144,-0.271 0.187,-0.652 0.393,-0.63 0.228,-0.533 0.002,-0.002 0.157,-0.368 0.058,-0.467 0.12,-0.226 0.165,-0.62 0.232,-0.406 0.121,-0.488 0.151,-0.23 0.105,-0.38 0.206,-0.344 0.428,-1.028 0.255,-0.309 0.096,-0.265 0.468,-0.561 0.369,-0.469 0.085,-0.329 0.029,-0.043 0.018,-0.11 0.306,-0.89 0.199,-0.265 0.097,-0.302 0.464,-0.651 0.403,-0.612 0.297,-0.832 0.034,-0.044 0.017,-0.081 0.295,-0.679 0.15,-0.676 0.016,-0.026 0.01,-0.077 0.302,-1.086 0.166,-0.243 0.102,-0.354 0.498,-0.785 0.003,-0.003 v -0.002 l 0.505,-0.784 0.107,-0.374 0.091,-0.133 0.058,-0.245 0.334,-0.668 0.14,-0.844 0.019,-0.033 0.016,-0.132 0.296,-1.185 0.188,-0.287 0.123,-0.409 0.407,-0.61 0.188,-0.591 0.037,-0.052 0.021,-0.104 0.145,-0.356 0.057,-0.722 L -7.107,10.08 -6.935,9.368 -6.527,8.889 -6.484,8.801 -6.431,8.423 -6.232,7.724 -6.174,7.64 -6.137,7.463 -5.948,7.022 -5.799,6.196 -5.005,4.841 -4.998,4.838 -4.996,4.833 -4.922,4.772 -4.813,4.573 -4.616,3.947 -4.348,3.562 -4.3,3.45 -4.137,2.824 -3.913,2.486 -3.779,2.077 -3.611,1.846 -3.604,1.24 l 0.052,-0.122 0.294,-1.031 0.26,-0.416 0.171,-0.325 0.304,-0.322 0.082,-0.198 0.173,-0.072 0.239,-0.253 1.152,-0.323 z"
       fill="rgb(0%, 0%, 0%)"
       fill-mode="evenodd" />
    <g
       id="g1003"
       transform="translate(15.625,6)">
      <path
         inkscape:connector-curvature="0"
         id="path1001"
         d="m 1.474,-1.552 0.055,0.094 0.088,0.036 0.16,0.387 0.433,0.74 0.095,0.509 0.033,0.126 0.636,1.455 0.012,0.493 0.173,0.869 0.04,0.392 0.005,0.012 0.007,0.355 0.055,0.106 0.248,1.01 0.008,0.021 0.006,0.876 v 0.004 0 l 0.006,1.169 v 0 l 0.005,0.837 0.24,1.12 0.053,0.491 v 3.737 l 0.231,0.999 0.062,0.527 v 1.153 l 0.251,1.337 0.041,0.434 v 3.38 l 0.148,0.739 0.047,0.461 v 0.437 l 0.144,0.288 0.246,1.029 v 2.448 l 0.026,0.104 0.001,0.013 0.002,0.002 0.192,0.764 0.071,0.567 v 0.075 l 0.142,0.378 0.142,0.767 0.008,0.02 0.006,0.486 v 0.014 l 0.006,0.014 v 0 L 5.322,30.813 5.001,31.164 4.929,31.339 4.788,31.397 4.581,31.624 4.297,31.814 3.021,32.203 1.406,31.534 0.736,29.918 0.9,29.274 0.898,29.27 0.748,28.457 V 28.25 L 0.624,27.757 0.623,27.744 0.621,27.741 0.527,27.367 0.456,26.8 V 24.608 L 0.312,24.321 0.066,23.291 v -0.749 l -0.148,-0.739 -0.047,-0.461 v 0 -3.394 L -0.38,16.61 -0.421,16.177 V 15.072 L -0.652,14.073 -0.714,13.546 V 9.792 L -0.953,8.677 -1.006,8.186 V 8.174 L -1,7.101 v 0 l 0.006,-1.168 v 0 V 5.93 L -0.992,5.579 -1.042,5.476 -1.273,4.483 -1.272,4.438 -1.259,3.767 -1.401,2.907 -1.433,2.534 -1.432,2.477 -1.43,2.419 -1.721,1.963 -1.903,1.196 -1.923,1.032 -1.942,0.998 -2.027,0.423 -2.051,0.097 -1.422,-1.422 0.097,-2.051 Z"
         fill="rgb(0%, 0%, 0%)"
         fill-mode="evenodd" />
    </g>
  </g>
  <g
     style="opacity:1;stop-opacity:1"
     id="g1009"
     transform="matrix(0.9921,0,0,0.9921,3.2550801,256.79417)">
    <path
       inkscape:connector-curvature="0"
       id="path1007"
       d="m 4.906,-3.054 0.036,0.087 0.077,0.036 0.492,0.576 0.045,0.121 0.147,0.141 0.294,0.475 0.286,0.997 0.046,0.107 0.007,0.583 v 0 L 6.343,0.551 6.344,0.585 V 1.267 L 6.039,2.204 6.033,2.278 5.941,2.876 5.774,3.176 5.604,3.736 5.383,4.068 5.283,4.382 5.195,4.503 5.144,4.71 4.549,5.394 4.504,5.456 4.492,5.46 4.48,5.473 4.282,5.615 4.085,6.141 3.72,6.608 3.606,6.887 3.365,7.133 3.317,7.229 3.307,7.24 3.395,7.239 H 3.411 3.538 L 3.767,7.163 3.779,7.161 3.783,7.158 4.087,7.056 4.124,7.031 4.426,6.939 4.66,6.768 4.745,6.74 5.226,6.465 6.334,6.167 6.41,6.199 6.985,6.215 7.983,6.655 8.451,6.849 8.458,6.864 8.473,6.87 9.086,8.381 8.473,9.892 8.458,9.898 8.451,9.913 7.966,10.114 7.088,10.5 6.761,10.687 6.529,10.749 6.406,10.831 6.352,10.871 6.342,10.875 6.303,10.9 6.001,10.992 5.768,11.163 5.199,11.354 5.187,11.356 5.183,11.358 4.614,11.549 3.898,11.667 H 3.411 3.396 L 2.632,11.662 2.47,11.754 1.364,12.051 v 0 H 1.342 L 0.768,12.045 H -1.046 L -1.072,12.051 -2.634,11.405 -3.281,9.843 -2.91,8.618 -2.793,8.443 V 8.381 L -2.336,7.035 -2.035,6.643 -2.017,6.629 -2.012,6.615 -1.619,6.124 -1.457,6.046 -1.016,5.604 -0.769,5.458 -0.725,5.414 -0.528,5.126 -0.393,4.856 -0.06,4.492 0.027,4.283 0.173,4.14 0.301,3.799 0.37,3.711 0.404,3.572 0.606,3.184 v -0.001 0 L 0.611,3.174 0.657,3.124 1.27,2.421 1.437,2.301 1.527,2.182 1.607,1.916 1.738,1.72 v -0.063 0 L 1.854,1.316 1.777,1.343 1.537,1.539 0.864,1.818 0.097,1.972 -1.297,1.395 -1.875,0 l 0.324,-1.083 0.192,-0.163 0.062,-0.149 0.222,-0.092 0.372,-0.316 0.386,-0.171 0.259,-0.221 0.002,-0.005 0.007,-0.003 0.113,-0.096 0.078,-0.029 0.038,-0.074 0.671,-0.491 0.063,-0.02 0.09,-0.092 0.478,-0.287 0.7,-0.195 0.328,-0.14 0.81,-0.009 0.091,-0.038 z"
       fill="rgb(0%, 0%, 0%)"
       fill-mode="evenodd" />
  </g>
  <g
     style="opacity:1;stop-opacity:1"
     id="g1017"
     transform="matrix(0.9921,0,0,0.9921,61.66493,251.95768)">
    <path
       inkscape:connector-curvature="0"
       id="path1011"
       d="m 1.167,-1.216 0.027,0.051 0.049,0.02 0.144,0.348 0.358,0.683 0.068,0.568 0.003,0.04 0.054,0.122 0.037,1.043 0.036,0.547 0.002,0.048 10e-4,0.002 0.037,0.871 V 3.152 L 1.984,3.153 2.009,3.928 V 3.93 L 2.031,4.607 V 4.62 l 10e-4,0.001 0.021,0.776 v 0.003 0 l 0.022,0.776 10e-4,0.043 v 0 L 2.082,6.9 v 0.019 1.162 l 0.006,0.838 0.014,0.354 v 0.034 l 0.001,10e-4 0.015,0.679 0.006,0.204 0.107,0.321 0.111,0.672 0.01,0.023 -0.111,0.682 -0.199,0.6 -0.396,0.535 -0.121,0.293 -0.137,0.057 -0.121,0.163 -1.267,0.412 -1.525,-0.632 -0.632,-1.525 0.099,-0.608 -0.093,-0.562 0.017,-0.04 V 10.564 L -2.118,9.982 -2.103,9.306 -2.102,9.305 V 9.277 L -2.088,8.918 -2.082,8.081 V 6.919 6.901 l 0.006,-0.683 v 0 l 10e-4,-0.039 0.022,-0.782 v 0 L -2.031,4.618 V 4.617 4.61 l 0.023,-0.685 v 0 l 0.024,-0.776 h 10e-4 V 3.132 l 0.037,-0.88 10e-4,-0.002 0.002,-0.038 0.036,-0.556 0.037,-1.044 0.054,-0.121 0.002,-0.028 0.07,-0.585 0.362,-0.687 0.139,-0.336 0.049,-0.02 0.027,-0.051 L 0,-1.66 Z"
       fill="rgb(0%, 0%, 0%)"
       fill-mode="evenodd" />
    <g
       id="g1015"
       transform="translate(3.75,1.75)">
      <path
         inkscape:connector-curvature="0"
         id="path1013"
         d="m -11.625,-5.429 0.674,1.628 -0.107,0.694 -0.234,0.742 -0.045,0.177 0.02,0.41 10e-4,0.074 0.001,0.002 0.011,0.574 0.01,0.373 0.002,0.073 -0.244,1.065 -0.278,0.576 -0.039,0.146 v 2.111 0.03 l -0.006,0.472 v 1.435 l 0.006,0.571 V 5.75 5.816 l 0.006,0.008 0.368,0.003 0.294,-0.122 0.742,-0.622 0.02,-0.022 0.055,-0.169 0.304,-0.222 0.382,-0.418 0.219,-0.063 0.404,-0.33 0.431,-0.155 0.451,-0.309 0.183,-0.052 0.709,-0.628 0.043,-0.01 0.027,-0.025 0.338,-0.166 0.257,-0.211 0.167,-0.179 0.081,-0.261 0.314,-0.253 0.174,-0.274 0.292,-0.102 0.308,-0.248 0.329,-0.132 0.028,-0.102 0.448,-0.433 0.276,-0.322 0.083,-0.025 0.069,-0.066 0.485,-0.268 0.286,-0.075 0.63,-0.58 0.004,-0.001 0.002,-10e-4 0.296,-0.162 0.373,-0.096 0.191,-0.122 0.462,-0.109 L -1.2,-1.595 0,-1.977 1.467,-1.369 2.074,0.097 1.467,1.564 1.457,1.568 1.453,1.577 1.228,1.798 1.202,1.88 1.034,2.003 0.975,2.145 0.667,2.273 0.117,2.677 0.051,2.699 0.025,2.779 -0.248,2.989 -0.672,3.428 -0.898,3.491 -1.055,3.612 -1.24,3.681 -1.288,3.744 -1.441,4.113 -1.527,4.149 -1.562,4.226 -2.133,4.723 -2.337,4.799 -2.348,4.845 -2.805,5.353 -2.915,5.547 -3.009,5.581 -3.115,5.7 -3.351,5.861 -3.397,5.924 -4.243,6.647 -4.251,6.649 -4.254,6.653 -4.61,6.834 l -0.195,0.243 -0.482,0.386 -0.432,0.152 -0.43,0.294 -0.174,0.05 -0.174,0.148 -0.069,0.025 -0.025,0.088 -0.394,0.358 -0.387,0.424 -0.115,0.032 -0.088,0.081 -0.141,0.071 -0.228,0.191 -0.245,0.267 -0.283,0.19 -0.148,0.045 -0.125,0.113 -0.571,0.286 -1.112,0.266 h -0.309 l -0.47,0.195 h -0.087 l -0.671,0.005 -0.022,10e-4 h -0.863 l -0.014,0.005 -1.103,-0.26 -0.168,-0.084 -0.588,-0.149 L -15.102,9.911 -15.29,9.833 -15.353,9.681 -15.599,9.457 -15.788,9.173 -15.97,8.577 -16.074,8.473 -16.798,6.724 V 5.75 5.725 l 0.005,-0.573 V 3.718 L -16.798,3.247 V 3.216 0.78 l 0.107,-0.721 0.212,-0.696 0.102,-0.144 0.061,-0.251 0.141,-0.275 0.008,-0.398 0.001,-10e-4 0.001,-0.067 0.038,-0.783 0.036,-0.08 0.141,-0.71 0.24,-0.584 0.009,-0.012 0.004,-0.018 0.338,-0.777 0.371,-0.437 0.106,-0.255 0.17,-0.071 0.188,-0.222 1.27,-0.382 z"
         fill="rgb(0%, 0%, 0%)"
         fill-mode="evenodd" />
    </g>
  </g>
  <g
     style="opacity:1;stop-opacity:1"
     id="g1021"
     transform="matrix(0.9921,0,0,0.9921,67.36953,194.5399)">
    <path
       inkscape:connector-curvature="0"
       id="path1019"
       d="m 1.086,-1.317 0.532,0.439 10e-4,0.003 0.004,0.001 0.424,0.354 10e-4,0.002 0.004,0.002 0.008,0.007 0.285,0.071 1.013,0.664 0.029,0.015 0.009,0.01 v 0.001 0 L 3.86,0.835 3.987,0.971 4.235,1.061 4.516,1.277 4.792,1.372 5.257,1.733 5.675,1.897 5.793,1.991 5.959,2.036 6.395,2.473 6.649,2.677 6.672,2.752 6.737,2.817 7.035,3.33 7.313,3.551 7.319,3.565 7.338,3.571 8.035,4.146 8.09,4.263 8.375,4.497 8.678,4.889 9.346,5.245 9.755,5.634 9.948,5.72 l 0.642,0.716 0.736,0.719 0.031,0.075 0.07,0.031 0.782,0.871 0.023,0.059 0.047,0.022 0.802,0.981 0.993,0.984 0.047,0.113 0.099,0.046 0.947,1.137 0.753,0.836 0.04,0.103 0.143,0.127 0.872,1.26 0.005,0.015 0.015,0.014 0.718,1.063 0.989,1.168 0.02,0.055 0.072,0.061 0.786,1.058 0.027,0.08 0.081,0.077 0.784,1.252 v 0 l 0.539,0.83 0.702,0.69 0.06,0.142 0.239,0.216 0.781,1.157 v 0 l 0.698,0.996 0.565,0.485 0.088,0.193 0.423,0.431 0.293,0.515 0.476,0.411 0.082,0.18 0.394,0.383 0.541,0.89 0.271,0.373 0.577,0.499 0.097,0.212 0.463,0.499 0.154,0.296 0.193,0.305 0.429,0.317 0.183,0.217 0.245,0.193 0.391,0.48 0.056,0.158 0.173,0.175 0.384,0.671 0.189,0.707 0.113,0.197 0.262,0.32 0.07,0.195 0.206,0.22 0.12,0.227 0.382,0.524 0.032,0.098 0.095,0.093 0.286,0.477 0.356,1.273 v 0.195 l -0.719,1.736 -1.735,0.719 -1.736,-0.719 -0.213,-0.515 -0.156,-0.153 -0.25,-0.417 -0.424,-0.607 -0.06,-0.189 -0.15,-0.17 -0.072,-0.151 -0.214,-0.274 -0.05,-0.145 -0.149,-0.151 -0.383,-0.67 -0.205,-0.763 -0.098,-0.172 -0.083,-0.105 -0.534,-0.406 -0.348,-0.419 -0.241,-0.232 -0.476,-0.772 -0.035,-0.124 -0.487,-0.432 -0.066,-0.146 -0.303,-0.267 -0.477,-0.678 -0.027,-0.086 -0.078,-0.078 -0.39,-0.658 -0.499,-0.442 -0.092,-0.205 -0.414,-0.433 -0.283,-0.52 -0.468,-0.417 -0.068,-0.15 -0.308,-0.277 -0.865,-1.264 -0.007,-0.023 -0.021,-0.02 -0.648,-0.984 -0.708,-0.721 -0.066,-0.162 -0.248,-0.237 -0.668,-1.068 -0.006,-0.021 -0.017,-0.017 -0.727,-1.202 -0.662,-0.93 -1.006,-1.189 -0.038,-0.105 -0.13,-0.119 -0.762,-1.16 -0.783,-1.13 L 11.742,14.462 11.73,14.428 11.703,14.416 10.791,13.322 9.793,12.315 9.746,12.201 9.649,12.155 8.796,11.113 8.088,10.308 7.359,9.563 7.327,9.483 7.257,9.451 6.844,8.968 6.116,8.561 5.92,8.369 5.415,7.935 4.98,7.338 4.494,6.904 3.928,6.41 3.842,6.221 3.441,5.796 3.309,5.548 3.278,5.534 2.95,5.246 2.728,5.158 2.3,4.755 1.902,4.556 1.305,4.012 1.182,3.95 0.733,3.345 0.712,3.283 0.649,3.224 0.529,3.036 0.514,3.029 0.132,2.713 -0.088,2.622 -0.145,2.483 -0.155,2.475 -0.162,2.472 -0.17,2.463 -0.324,2.335 -0.35,2.249 -0.514,2.054 -0.517,2.047 -0.523,2.044 -0.872,1.625 -0.875,1.618 -0.88,1.615 -1.314,1.089 -1.707,0 -1.207,-1.207 0,-1.707 Z"
       fill="rgb(0%, 0%, 0%)"
       fill-mode="evenodd" />
  </g>
  <g
     style="opacity:1;stop-opacity:1"
     id="g1025"
     transform="matrix(0.9921,0,0,0.9921,98.00063,246.87317)">
    <path
       inkscape:connector-curvature="0"
       id="path1023"
       d="m 6.374,-2.957 0.487,0.212 h 0.101 l 0.016,-0.007 0.387,-0.007 0.023,-10e-4 0.007,-0.002 0.011,-0.005 1.251,0.417 0.396,0.296 0.121,0.244 0.254,0.122 0.3,0.377 0.015,0.044 0.052,0.045 0.2,0.28 0.054,0.166 0.172,0.202 0.297,0.664 0.121,0.556 0.118,0.269 0.016,0.581 v 0.027 0.001 l 0.011,0.68 10e-4,0.037 -0.132,0.752 -0.147,0.405 0.005,0.374 V 3.777 L 10.521,3.801 9.865,5.383 9.746,5.432 9.697,5.534 9.476,5.715 9.27,6.023 9.008,6.427 8.836,6.773 8.818,6.792 8.811,6.819 8.479,7.187 9.02,7.54 l 0.349,0.145 0.393,0.393 0.391,0.306 0.074,0.154 0.439,0.42 0.294,0.474 0.05,0.175 0.111,0.133 0.218,0.506 0.014,0.015 0.296,0.567 0.228,0.915 0.047,0.11 0.01,0.677 0.013,0.575 v 0.051 l -0.108,0.696 -0.254,0.804 -0.013,0.081 -0.284,0.898 -0.139,0.192 -0.078,0.283 -0.327,0.547 -0.195,0.63 -0.193,0.272 -0.106,0.344 -0.477,0.701 -0.175,0.158 -0.047,0.12 -0.275,0.295 -0.489,0.676 -0.023,0.019 -0.006,0.019 -0.382,0.502 -0.324,0.269 -0.233,0.261 -0.543,0.373 -0.142,0.188 -0.05,0.041 -0.014,0.038 -0.577,0.695 -0.227,0.176 -0.165,0.2 -0.767,0.591 -0.31,0.106 -0.309,0.245 -0.588,0.231 -0.487,0.289 -0.354,0.098 -0.225,0.157 -0.359,0.107 -0.188,0.116 -1.286,0.367 -0.039,0.017 -0.875,0.006 -0.678,0.007 H -0.39 l -0.061,-0.001 -0.587,-0.014 -1.755,-0.765 -0.006,-0.015 -1.141,-0.501 -0.71,-1.748 0.71,-1.748 1.726,-0.757 0.678,-0.019 0.074,-10e-4 1.143,0.456 0.634,0.006 0.311,0.003 0.128,-0.035 0.233,-0.157 0.396,-0.109 0.412,-0.227 0.231,-0.06 L 2.173,19.168 2.617,19.009 2.892,18.807 3.288,18.359 3.673,17.902 4.02,17.634 4.219,17.422 4.796,17.049 4.93,16.889 5.502,16.152 5.713,15.98 5.76,15.87 6.007,15.64 6.166,15.429 6.361,14.881 6.522,14.67 6.602,14.401 6.949,13.87 7.165,13.25 7.192,13.215 7.357,12.742 7.361,12.527 7.364,12.364 7.328,12.289 7.308,12.199 7.297,12.187 7.056,11.626 7.045,11.606 6.874,11.466 6.826,11.367 6.71,11.318 6.659,11.267 6.462,11.218 6.301,11.113 6.024,11.048 5.427,10.75 5.367,10.695 5.29,10.673 5.192,10.615 4.88,10.576 4.864,10.567 4.777,10.56 4.623,10.532 4.58,10.548 4.483,10.508 4.18,10.454 3.752,10.205 2.979,9.885 2.908,9.713 2.892,9.704 2.798,9.447 2.316,8.284 2.979,6.683 3.087,6.638 3.131,6.544 3.512,6.226 3.65,6.042 3.703,5.998 3.718,5.957 3.993,5.627 4.162,5.233 4.223,5.159 4.251,5.051 4.925,4.323 4.982,4.255 4.991,4.252 4.997,4.245 5.139,4.152 5.158,4.09 5.556,3.507 5.935,2.938 6.111,2.778 6.216,2.219 6.374,1.81 6.379,1.522 v 0 -0.023 L 6.383,1.37 5.587,1.198 5.165,1.373 5.146,1.365 H 4.58 L 4.574,1.362 4.566,1.359 H 4.557 L 3.789,1.35 H 3.597 L 3.474,1.398 3.263,1.438 3.184,1.487 2.865,1.561 2.075,1.809 1.462,1.905 1.412,1.904 0.74,1.888 0.327,1.935 0.097,1.948 -1.28,1.378 -1.851,0 l 0.461,-1.258 0.079,-0.045 0.031,-0.075 0.358,-0.148 0.689,-0.394 0.667,-0.115 0.236,-0.021 0.061,-0.026 0.363,-0.009 0.558,-0.198 0.117,-0.02 0.045,-0.03 0.263,-0.072 0.35,-0.145 0.789,-0.159 h 0.573 l 0.767,-0.008 h 0.01 L 4.58,-2.729 h 0.014 l 0.961,-0.398 z"
       fill="rgb(0%, 0%, 0%)"
       fill-mode="evenodd" />
  </g>
  <g
     style="opacity:1;stop-opacity:1"
     id="g1033"
     transform="matrix(0.9921,0,0,0.9921,82.87113,15.837877)">
    <path
       inkscape:connector-curvature="0"
       id="path1027"
       d="M 1.274,-1.177 1.802,0.097 1.786,0.198 1.825,0.292 1.724,0.598 1.717,0.645 1.648,0.863 1.627,0.891 1.447,1.438 1.071,1.944 0.892,2.034 0.799,2.239 0.541,2.466 0.54,2.474 0.425,2.678 0.3,3.151 -0.033,3.492 -0.142,3.685 -0.267,3.731 -0.413,3.881 -1.069,4.277 -1.335,4.535 -1.361,4.55 -1.553,4.758 -1.66,4.805 -1.707,4.909 -2.274,5.411 -2.291,5.418 -2.298,5.432 -2.677,5.759 -2.875,5.973 -2.897,5.982 -2.906,6.005 -3.481,6.601 -3.63,6.664 -3.869,6.92 -4.339,7.224 -4.593,7.542 -4.715,7.6 l -0.262,0.316 -0.769,0.588 -0.132,0.045 -0.039,0.038 -0.047,0.204 -0.39,0.795 -0.462,0.511 -0.091,0.198 -0.614,0.526 -1.003,1.011 -0.004,0.002 -0.002,0.004 -0.501,0.501 -0.802,0.988 -0.12,0.057 -0.247,0.302 -0.712,0.554 -0.643,0.723 -0.178,0.08 -0.08,0.167 -0.951,0.779 -1.162,1.251 -0.1,0.044 -0.044,0.098 -0.93,0.837 -1.03,1.029 -0.046,0.02 -0.019,0.043 -1.201,1.108 -1.109,1.202 -0.042,0.018 -0.019,0.046 -1.072,1.072 -0.091,0.037 -0.037,0.081 -1.226,1.051 -0.957,1.131 -0.046,0.021 -0.021,0.054 -1.268,1.366 -0.123,0.054 -0.053,0.116 -1.459,1.265 -0.072,0.026 -0.082,0.096 -1.286,0.936 -1.019,1.104 -0.133,0.058 -0.224,0.255 -1.65,1.165 -0.004,0.001 -0.003,0.003 -1.498,1.058 -1.324,1.324 -0.149,0.062 -0.223,0.239 -1.536,0.994 -1.731,1.466 -0.033,0.012 -0.035,0.043 -1.359,1.068 -1.545,1.244 -0.002,10e-4 -0.001,0.002 -1.556,1.255 -1.595,1.321 -1.047,1.221 -0.165,0.076 -0.076,0.166 -1.27,1.088 -1.235,1.323 -0.937,1.125 -0.143,0.066 -0.303,0.34 -1.246,0.864 -1.426,1.045 -0.081,0.027 -0.077,0.08 -1.093,0.672 -0.92,0.83 -0.074,0.029 -0.029,0.059 -0.97,0.776 -0.23,0.081 -0.248,0.213 -0.639,0.291 -0.465,0.523 -0.191,0.086 -0.395,0.383 -0.866,0.482 -0.058,0.015 -0.04,0.036 -0.657,0.329 -0.281,0.188 -0.232,0.232 -0.382,0.158 -0.72,0.446 -0.862,0.192 -0.502,0.057 -1.589,-0.658 -0.659,-1.59 0.498,-1.41 0.117,-0.072 0.044,-0.107 0.382,-0.158 0.719,-0.446 0.339,-0.076 0.169,-0.185 0.577,-0.385 0.135,-0.041 0.114,-0.104 0.744,-0.373 0.493,-0.274 0.527,-0.593 0.224,-0.1 0.524,-0.45 0.818,-0.372 0.696,-0.558 1.01,-0.925 0.149,-0.058 0.194,-0.202 1.192,-0.733 1.379,-1.012 0.029,-0.01 0.027,-0.03 1.016,-0.703 0.78,-0.937 0.055,-0.026 0.026,-0.065 1.366,-1.463 0.125,-0.055 0.054,-0.117 1.233,-1.057 1.059,-1.236 0.179,-0.082 0.082,-0.175 1.747,-1.464 0.017,-0.007 0.006,-0.013 1.551,-1.269 0.002,-10e-4 10e-4,-10e-4 1.55,-1.271 0.02,-0.007 0.02,-0.026 1.339,-1.051 1.823,-1.527 0.107,-0.039 0.12,-0.13 1.456,-0.942 1.291,-1.291 0.121,-0.05 0.175,-0.199 1.65,-1.165 0.004,-10e-4 0.003,-0.004 1.461,-1.031 1.008,-1.092 0.12,-0.052 0.197,-0.232 1.388,-1.026 1.301,-1.127 1.147,-1.235 1.04,-1.23 0.174,-0.081 0.08,-0.174 1.298,-1.113 0.978,-0.978 1.14,-1.235 0.089,-0.038 0.038,-0.089 1.234,-1.139 1.04,-1.039 0.061,-0.026 0.025,-0.057 0.899,-0.808 1.199,-1.291 0.157,-0.069 0.068,-0.143 0.932,-0.763 0.662,-0.744 0.112,-0.05 0.19,-0.232 0.679,-0.528 0.724,-0.878 0.097,-0.046 0.046,-0.111 0.585,-0.585 0.004,-0.001 0.002,-0.005 1.076,-1.067 0.086,-0.036 0.035,-0.076 0.295,-0.253 V 7.185 l 0.021,-0.049 0.299,-1.083 0.27,-0.259 0.078,-0.183 0.197,-0.081 0.306,-0.293 0.749,-0.411 0.462,-0.339 0.336,-0.389 0.171,-0.078 0.359,-0.367 0.574,-0.347 0.414,-0.4 0.025,-0.009 0.01,-0.023 0.302,-0.279 0.081,-0.032 0.101,-0.12 0.481,-0.357 0.507,-0.398 0.341,-0.313 0.298,-0.117 0.281,-0.239 0.304,-0.136 0.106,-0.101 0.086,-0.32 0.295,-0.295 0.095,-0.184 0.144,-0.055 0.184,-0.184 0.185,-0.108 0.342,-0.269 0.286,-0.332 0.065,-0.03 0.03,-0.072 0.166,-0.069 0.017,-0.041 L 0,-1.705 Z"
       fill="rgb(0%, 0%, 0%)"
       fill-mode="evenodd" />
    <g
       id="g1031"
       transform="translate(-76.875,65.25)">
      <path
         inkscape:connector-curvature="0"
         id="path1029"
         d="M 1.767,-1.849 1.78,-1.82 1.808,-1.808 2.04,-1.248 2.555,-0.119 2.571,0.223 2.718,0.501 3.034,1.754 2.71,3.021 2.671,3.094 2.672,3.195 2.68,3.308 2.685,3.427 2.687,3.432 2.7,3.915 2.701,3.965 v 0 L 2.71,4.743 V 4.775 L 2.636,5.404 2.527,5.864 2.532,6.401 2.54,6.977 v 0.04 0.966 l 0.008,1.16 v 0.018 l -0.385,1.271 0.002,0.366 v 0.019 1.365 l -0.286,0.705 v 1.23 l 0.006,0.014 v 0.487 l -0.197,1.026 -0.202,0.506 -0.092,0.113 -0.312,0.91 -0.185,0.237 -0.016,0.038 -0.02,0.009 -0.13,0.167 -0.172,0.139 -0.041,0.101 -0.167,0.069 -0.531,0.434 -1.184,0.277 -1.882,-0.78 -0.78,-1.882 0.231,-1.083 10e-4,-0.003 0.157,-0.817 0.003,-0.008 v -1.597 l 0.299,-0.722 V 10.817 10.799 L -3.327,9.726 -3.306,9.675 -2.933,8.443 -2.93,7.982 V 7.017 6.979 L -2.922,6.4 -2.914,5.529 -2.909,5.518 -2.826,4.867 -2.706,4.41 -2.701,3.964 V 3.963 L -2.7,3.919 -2.687,3.428 -2.685,3.424 -2.681,3.317 -2.672,3.195 -2.659,2.39 -2.624,2.308 -2.457,1.705 -2.623,0.975 -2.6,0.92 -2.599,0.861 -2.578,0.369 h 10e-4 V 0.367 l 0.022,-0.492 0.523,-1.143 0.224,-0.54 L -1.78,-1.82 -1.767,-1.849 0,-2.558 Z"
         fill="rgb(0%, 0%, 0%)"
         fill-mode="evenodd" />
    </g>
  </g>
  <g
     style="opacity:1;stop-opacity:1"
     id="g1041"
     transform="matrix(0.9921,0,0,0.9921,136.69253,16.581957)">
    <path
       inkscape:connector-curvature="0"
       id="path1035"
       d="m 1.054,-1.582 0.19,0.127 0.267,0.089 h 0.001 l 0.489,0.162 0.247,0.057 0.405,0.195 0.057,0.051 0.074,0.02 0.306,0.179 0.397,0.132 0.115,0.086 0.19,0.047 0.574,0.517 0.114,0.084 0.006,0.019 0.219,0.151 0.316,0.094 0.596,0.39 0.192,0.209 0.128,0.053 0.324,0.323 0.13,0.109 0.028,0.017 0.176,0.028 0.599,0.2 0.001,0.001 0.876,0.291 0.05,0.037 0.096,0.019 0.646,0.277 0.741,0.278 0.002,10e-4 0.74,0.277 0.844,0.28 0.347,0.257 0.305,0.11 0.323,0.27 0.883,0.339 0.909,0.272 0.051,0.036 0.107,0.021 0.988,0.394 0.055,0.045 0.087,0.02 0.855,0.428 0.44,0.054 0.081,0.043 0.345,0.06 1.309,0.467 1.308,0.373 0.011,0.008 0.023,0.003 1.49,0.465 1.199,0.277 0.027,0.017 0.077,0.011 1.649,0.484 1.433,0.382 0.011,0.007 0.025,0.004 1.672,0.491 0.017,0.012 0.038,0.006 1.671,0.556 1.575,0.371 0.034,0.021 0.094,0.015 1.457,0.454 1.85,0.364 0.055,0.034 0.174,0.027 1.479,0.484 0.118,0.086 0.195,0.048 1.192,0.633 1.293,0.544 0.064,0.053 0.094,0.024 1.423,0.758 1.167,0.551 0.928,0.379 0.165,0.135 0.194,0.06 1.055,0.711 0.865,0.433 0.191,0.174 0.171,0.06 0.618,0.499 1.134,0.283 0.285,0.187 0.378,0.119 1.141,0.796 0.852,0.426 0.118,0.108 0.129,0.041 0.961,0.672 1.118,0.745 0.988,0.608 1.105,0.31 0.269,0.184 0.338,0.107 0.807,0.565 0.705,0.307 0.391,0.332 0.227,0.094 0.699,0.699 0.75,0.6 0.737,0.409 0.036,0.035 0.044,0.013 0.249,0.274 0.43,0.419 0.021,0.077 0.051,0.056 0.014,0.028 0.477,0.417 0.029,0.063 0.069,0.029 0.292,0.292 0.453,0.258 0.071,0.071 0.078,0.025 0.851,0.595 0.514,0.257 0.374,0.124 0.945,0.236 0.831,0.083 0.838,0.425 0.405,0.167 0.172,0.172 0.376,0.141 0.135,0.105 0.187,0.052 0.381,0.228 0.773,0.344 0.229,0.195 0.209,0.073 0.021,0.017 0.293,0.033 1.297,0.67 0.015,0.042 0.034,0.015 0.091,0.11 0.346,0.043 0.034,0.018 0.177,0.021 0.888,0.211 0.632,0.405 0.328,0.136 0.042,0.101 0.113,0.073 0.011,0.03 0.259,0.32 0.23,0.156 0.168,0.188 0.114,0.047 0.061,0.148 0.286,0.318 0.237,0.943 -0.584,1.41 -1.41,0.584 -0.927,-0.229 -0.513,-0.269 -0.416,-0.392 -0.17,-0.078 -0.03,-0.036 -0.137,-0.028 -0.704,-0.088 -0.101,-0.054 -0.398,-0.076 -0.501,-0.2 -0.625,-0.505 -0.046,-0.022 -0.152,-0.016 -0.418,-0.217 -0.632,-0.221 -0.279,-0.224 -0.648,-0.287 -0.091,-0.078 -0.119,-0.033 -0.327,-0.196 -0.618,-0.231 -0.46,-0.361 -0.165,-0.068 -0.313,-0.031 -0.04,-0.02 -0.246,-0.031 -1.183,-0.295 -0.039,-0.025 -0.099,-0.016 -0.599,-0.199 -0.094,-0.07 -0.161,-0.038 -0.792,-0.395 -0.118,-0.109 -0.13,-0.041 -0.898,-0.628 -0.609,-0.348 -0.261,-0.258 -0.164,-0.069 -0.439,-0.438 -0.73,-0.639 -0.086,-0.19 -0.159,-0.174 -0.479,-0.266 -0.144,-0.141 -0.132,-0.046 -0.979,-0.783 -0.048,-0.1 -0.118,-0.049 -0.513,-0.513 -0.545,-0.246 -0.152,-0.131 -0.168,-0.053 -0.695,-0.487 -1.051,-0.304 -0.196,-0.137 -0.292,-0.082 -1.276,-0.785 -0.025,-0.026 -0.029,-0.009 -1.176,-0.784 -0.015,-0.017 -0.017,-0.005 -0.851,-0.596 -0.851,-0.425 -0.109,-0.1 L 46.105,20.887 45.14,20.225 43.926,19.921 43.553,19.677 43.163,19.542 42.352,18.899 41.557,18.502 41.465,18.418 41.357,18.385 40.365,17.732 39.577,17.425 39.545,17.4 39.491,17.388 38.207,16.809 38.161,16.77 38.096,16.753 36.704,16.011 35.409,15.448 35.346,15.394 35.256,15.371 34.149,14.767 32.982,14.371 31.152,14 31.106,13.972 30.962,13.95 29.467,13.483 27.874,13.109 27.83,13.08 27.709,13.061 25.976,12.484 24.375,12.013 22.942,11.632 22.931,11.625 22.906,11.621 21.3,11.149 20.086,10.869 20.051,10.847 19.949,10.831 18.396,10.346 17.06,9.965 17.026,9.941 16.947,9.928 15.794,9.516 15.23,9.446 15.075,9.364 14.575,9.246 13.479,8.698 12.668,8.374 11.771,8.105 11.729,8.076 11.638,8.059 10.358,7.567 10.054,7.327 9.793,7.232 9.507,6.994 8.983,6.819 8.964,6.805 8.926,6.798 8.132,6.501 8.131,6.5 7.352,6.209 7.326,6.188 7.279,6.178 6.671,5.918 5.865,5.65 5.863,5.649 5.413,5.499 5.041,5.425 4.591,5.154 4.141,4.991 3.553,4.501 3.514,4.417 3.419,4.378 3.167,4.126 3.019,4.026 2.638,3.917 2.487,3.813 2.228,3.747 1.758,3.31 1.583,3.189 1.562,3.128 1.498,3.069 1.465,3.018 1.411,2.978 1.172,2.911 0.75,2.652 0.42,2.482 0.324,2.392 0.03,2.254 0.029,2.253 -0.441,2.032 -0.663,1.836 -0.851,1.768 -1.226,1.453 -1.26,1.379 -1.344,1.344 -1.901,0 -1.344,-1.344 0,-1.901 Z"
       fill="rgb(0%, 0%, 0%)"
       fill-mode="evenodd" />
    <g
       id="g1039"
       transform="translate(84.75,40)">
      <path
         inkscape:connector-curvature="0"
         id="path1037"
         d="m 4.167,-4.179 0.622,0.265 0.223,0.038 0.373,0.215 0.527,0.157 0.485,0.315 0.228,0.248 0.152,0.062 0.076,0.184 0.333,0.362 0.228,0.887 0.249,0.355 0.263,0.351 0.477,1.422 v 0 0.78 L 8.375,1.53 8.373,1.584 8.353,1.979 8.178,2.357 7.922,3.168 7.758,3.295 7.678,3.488 7.649,3.5 7.636,3.529 7.262,3.679 6.886,3.969 6.642,4.36 6.627,4.375 6.621,4.392 6.495,4.5 5.816,5.145 5.702,5.175 5.624,5.24 5.16,5.448 5.158,5.449 4.841,5.597 4.819,5.627 4.805,5.657 4.504,6.767 4.211,7.268 4.016,7.461 3.922,7.87 3.727,8.276 3.666,8.344 3.641,8.435 3.143,8.926 2.852,9.251 2.799,9.266 2.757,9.308 2.086,9.691 1.543,9.837 1.297,9.979 1.06,10.021 l -0.256,0.128 -1.063,0.254 -0.033,0.014 h -0.382 l -0.863,0.006 -0.479,0.006 h -0.01 v 0 l -0.652,0.005 -0.051,0.021 -0.97,-0.199 L -4.397,9.957 -4.602,9.786 -4.829,9.714 -5.522,9.226 -5.71,9.011 -5.839,8.958 -6.229,8.568 -6.33,8.324 -6.692,7.926 -6.88,7.55 -7.041,6.877 -7.322,6.593 -7.706,5.922 -8.028,4.718 -8.045,4.678 V 4.643 L -8.173,4.302 -8.337,3.411 v 0 l 0.234,-1.056 0.445,-0.586 0.05,-0.119 0.06,-0.025 0.08,-0.105 0.124,-0.106 0.239,-0.835 0.261,-0.237 0.078,-0.189 0.158,-0.065 0.259,-0.338 0.131,-0.316 0.39,-0.389 1.293,-0.536 0.06,-0.047 0.738,-0.277 0.014,-0.014 0.07,-0.168 0.177,-0.073 0.299,-0.291 1.009,-0.269 0.016,-0.041 0.23,-0.128 0.396,-0.393 0.605,-0.163 0.252,-0.141 0.222,-0.034 0.244,-0.119 0.589,-0.137 0.177,-0.095 0.671,-0.087 0.115,-0.008 0.032,-0.034 1.087,-0.303 0.103,-0.045 0.581,-0.015 h 0.064 z"
         fill="rgb(0%, 0%, 0%)"
         fill-mode="evenodd" />
    </g>
  </g>
  <g
     style="opacity:1;stop-opacity:1"
     id="g1045"
     transform="matrix(0.9921,0,0,0.9921,212.58823,82.556607)">
    <path
       inkscape:connector-curvature="0"
       id="path1043"
       d="m -1.343,-1.499 0.414,0.008 1.017,0.44 0.474,0.196 0.005,0.011 0.01,0.004 0.622,1.522 -0.622,1.522 -0.01,0.005 -0.005,0.01 -0.409,0.17 -0.641,1.571 -0.28,0.285 -0.147,0.253 -0.051,0.051 -0.018,0.058 -0.076,0.115 -0.027,0.231 -0.434,0.836 -0.041,0.402 -0.202,0.397 -0.255,0.766 -0.356,0.474 -0.177,0.533 -0.168,0.228 -0.089,0.297 -0.077,0.118 -0.036,0.33 -0.064,0.122 -0.102,0.513 -0.453,1.089 -0.261,0.801 -0.053,0.073 -0.029,0.137 -0.294,0.662 -0.147,0.661 -0.061,0.098 -0.048,0.251 -0.396,0.99 -0.001,10e-4 -0.208,0.531 v 0.135 l -0.032,0.389 -0.119,0.716 0.091,0.412 0.06,0.529 v 0.39 l -0.36,1.255 -0.46,0.737 -0.051,0.091 v 0.256 l -0.046,0.465 -0.101,0.503 -0.224,0.372 -0.169,0.527 -0.492,0.689 -0.199,0.172 -0.049,0.119 -0.543,0.544 -0.111,0.155 -0.09,0.359 -0.287,0.44 -0.158,0.451 -0.028,0.034 -0.452,0.805 -0.179,0.433 -0.779,0.779 -0.123,0.051 -0.177,0.203 -0.009,0.006 -0.015,0.024 -0.049,0.238 -0.298,0.698 -0.041,0.048 -0.018,0.077 -0.23,0.273 v 0.403 0.02 l -0.007,0.781 -0.008,0.019 -0.174,0.872 -0.207,0.5 -0.294,0.355 -0.104,0.278 -0.498,0.568 -0.079,0.152 -0.044,0.046 -0.016,0.058 -0.298,0.498 -0.008,0.007 -0.221,0.433 -0.221,0.239 -0.088,0.385 -0.35,0.553 -0.17,0.45 -0.172,0.09 -0.115,0.183 -0.689,0.242 -0.471,0.249 -0.673,0.084 -0.298,0.019 -1.631,-0.675 -0.675,-1.631 0.553,-1.499 0.088,-0.049 0.034,-0.082 0.432,-0.179 0.018,-0.01 0.191,-0.308 0.04,-0.101 0.016,-0.067 0.069,-0.142 0.067,-0.165 0.027,-0.028 0.13,-0.266 0.051,-0.056 0.031,-0.112 0.234,-0.39 0.143,-0.303 0.263,-0.296 0.088,-0.233 0.279,-0.319 -10e-4,-0.149 v -0.021 -0.584 l 0.014,-0.263 0.099,-0.888 0.092,-0.179 0.15,-0.625 0.452,-0.539 0.08,-0.154 0.02,-0.008 0.142,-0.569 0.113,-0.173 0.082,-0.335 0.549,-0.631 0.091,-0.139 0.043,-0.015 0.043,-0.05 0.523,-0.373 0.244,-0.244 0.122,-0.211 0.2,-0.57 0.066,-0.082 0.074,-0.294 0.226,-0.346 0.141,-0.442 0.492,-0.689 0.199,-0.172 0.049,-0.12 0.544,-0.543 0.028,-0.04 v -0.467 l 0.322,-1.193 0.401,-0.69 0.024,-0.025 0.009,-0.029 0.037,-0.06 -0.045,-0.202 -0.06,-0.53 0.032,-0.389 0.163,-0.978 v -0.387 l 0.174,-0.891 0.401,-0.988 10e-4,-0.002 0.308,-0.77 0.156,-0.703 0.08,-0.128 0.064,-0.303 0.348,-0.784 0.267,-0.787 0.034,-0.045 0.017,-0.085 0.358,-0.86 0.061,-0.552 0.168,-0.324 0.224,-0.73 0.212,-0.311 0.195,-0.585 0.232,-0.315 0.112,-0.335 0.207,-0.277 0.032,-0.263 0.454,-0.862 0.047,-0.342 0.173,-0.32 0.196,-0.646 0.37,-0.556 0.28,-0.454 0.157,-0.151 10e-4,-0.022 0.104,-0.244 0.365,-1.092 0.141,-0.099 0.064,-0.153 0.009,-0.003 0.004,-0.01 0.117,-0.048 0.013,-0.028 0.361,-0.422 0.102,-0.247 0.169,-0.069 0.191,-0.224 1.246,-0.372 z"
       fill="rgb(0%, 0%, 0%)"
       fill-mode="evenodd" />
  </g>
  <g
     style="opacity:1;stop-opacity:1"
     id="g1049"
     transform="matrix(0.9921,0,0,0.9921,203.41123,130.92148)">
    <path
       inkscape:connector-curvature="0"
       id="path1047"
       d="m -2.08,-2.015 0.295,0.008 0.021,0.009 0.356,0.008 v 10e-4 h 0.004 l 0.49,0.012 0.088,0.039 0.339,-0.075 1.423,0.589 L 1.526,0 0.936,1.424 0.815,1.474 0.651,1.877 0.636,1.884 0.631,1.898 0.12,2.109 -0.917,2.562 -1.401,2.574 H -1.41 v 0 l -0.357,0.008 -0.021,0.01 h -0.027 l -0.413,0.109 -0.049,0.047 -0.074,0.03 -0.013,0.028 -0.204,0.18 -0.107,0.041 -0.066,0.078 -0.669,0.492 -0.47,0.155 -0.37,0.235 -0.19,0.045 -0.008,0.004 -0.287,0.273 -0.202,0.081 -0.293,0.279 -0.117,0.064 -0.333,1.072 -0.282,0.409 -0.097,0.087 -0.028,0.077 -0.49,0.589 -0.158,0.073 -0.092,0.102 0.949,0.255 0.153,0.089 h 0.95 l 0.225,0.011 0.984,0.099 0.075,0.038 0.405,0.066 0.893,0.297 0.103,0.076 0.177,0.042 0.378,0.189 0.924,0.066 0.967,0.464 0.462,0.191 0.015,0.038 0.039,0.019 0.607,1.54 v 0 l -0.057,0.243 0.586,1.414 -0.106,0.689 -0.189,0.604 -0.017,0.024 -0.009,0.051 -0.287,0.799 -0.375,0.49 -0.15,0.362 -0.097,0.04 -0.039,0.085 -0.118,0.101 -0.237,0.427 -0.179,0.431 -0.257,0.258 -0.181,0.249 -0.226,0.194 -0.207,0.259 -0.483,0.386 -0.679,0.239 -0.488,0.262 -0.624,0.084 -0.79,0.216 -0.343,0.138 -0.87,0.17 -0.027,0.011 v 0 h -0.042 l -0.879,-0.016 v 0 h -0.018 l -0.783,-0.021 -1.083,-0.475 -0.508,-0.21 -0.006,-0.015 -0.015,-0.006 -0.665,-1.635 0.665,-1.635 0.015,-0.007 0.006,-0.015 0.526,-0.218 1.069,-0.467 0.776,-0.02 0.023,-0.001 v 0 l 0.456,-0.008 0.053,-0.021 0.192,-0.038 0.081,-0.054 1.055,-0.288 0.312,-0.043 0.057,-0.029 0.011,-0.002 0.08,-0.065 0.017,-0.029 0.096,-0.421 0.426,-0.539 -0.101,-0.024 -0.638,-0.319 -0.486,-0.161 -0.611,-0.062 h -1.445 l -1.107,-0.289 -0.157,-0.088 -0.27,0.003 h -0.026 v 0 l -1.017,-0.24 -0.237,-0.118 -0.45,-0.17 -0.507,-0.399 -0.285,-0.118 -0.401,-0.401 -0.098,-0.04 -0.492,-0.482 -0.005,-0.012 -0.013,-0.006 -0.487,-0.487 -0.685,-1.653 0.034,-0.08 0.01,-0.56 -0.058,-0.14 0.239,-1.032 0.392,-0.489 0.058,-0.142 0.082,-0.034 0.112,-0.139 0.483,-0.387 0.127,-0.044 0.137,-0.139 0.444,-0.267 0.542,-0.362 0.054,-0.065 0.002,-0.073 0.468,-1.077 0.208,-0.503 0.013,-0.006 0.006,-0.012 0.065,-0.027 0.475,-0.496 0.177,-0.076 0.298,-0.305 0.406,-0.244 0.26,-0.272 0.014,-0.006 0.017,-0.042 0.301,-0.125 0.373,-0.325 0.578,-0.271 0.457,-0.103 0.078,-0.043 0.042,-0.029 0.047,-0.054 0.026,-0.012 0.029,-0.071 0.48,-0.496 0.019,-0.009 0.008,-0.019 0.539,-0.224 0.702,-0.407 0.433,-0.079 0.699,-0.168 0.551,-0.066 z"
       fill="rgb(0%, 0%, 0%)"
       fill-mode="evenodd" />
  </g>
  <g
     style="opacity:1;stop-opacity:1"
     id="g1053"
     transform="matrix(0.9921,0,0,0.9921,228.33773,81.068457)">
    <path
       inkscape:connector-curvature="0"
       id="path1051"
       d="m 0.616,-1.103 0.056,0.026 0.108,-0.045 0.126,0.005 0.586,0.049 0.067,-0.021 0.081,0.034 0.054,0.004 0.229,0.113 0.625,0.259 0.126,0.052 0.461,1.114 -0.058,0.408 0.035,0.109 0.427,0.641 0.418,0.339 0.666,0.429 0.544,0.22 0.34,0.277 0.216,0.087 0.497,0.478 0.083,0.192 0.148,0.078 0.221,0.317 0.827,0.589 0.006,0.01 0.015,0.005 0.659,0.923 0.302,0.958 0.081,0.516 0.008,0.018 0.01,0.577 0.037,0.155 0.501,0.492 0.023,0.056 0.053,0.024 0.785,0.869 0.116,0.3 0.287,0.401 0.381,1.208 0.466,1.184 0.079,0.411 0.046,0.09 0.041,0.368 0.374,0.51 1.232,1.144 0.054,0.124 0.113,0.053 0.972,1.166 0.072,0.198 0.198,0.228 0.465,1.003 0.705,1.254 0.886,0.875 0.082,0.197 0.148,0.078 0.805,1.161 0.793,0.872 0.124,0.318 0.303,0.434 0.203,0.676 0.699,0.999 0.024,0.075 0.067,0.067 0.677,1.16 0.024,0.088 0.057,0.064 0.525,1.1 0.587,0.813 0.149,0.461 0.193,0.322 0.184,0.928 0.123,0.348 0.513,0.562 0.046,0.117 0.16,0.149 0.495,0.764 0.03,0.099 0.076,0.082 0.495,0.956 0.055,0.224 0.09,0.126 0.17,0.55 0.261,0.566 0.071,0.077 0.294,0.569 0.098,0.398 0.175,0.129 0.094,0.111 0.169,0.07 0.105,0.253 0.265,0.314 0.189,0.782 0.084,0.202 -0.643,1.552 -1.551,0.642 L 23.516,39.037 22.665,38.75 22.478,38.607 22.422,38.584 22.411,38.556 21.885,38.155 21.85,38.085 21.778,38.058 21.747,38 21.673,37.969 21.472,37.484 21.068,36.728 21.023,36.386 20.894,36.119 20.852,35.939 20.508,35.137 20.463,34.925 20.402,34.832 20.272,34.338 19.925,33.62 19.591,33.066 18.941,32.314 18.819,31.988 18.538,31.594 18.266,30.726 18.231,30.5 18.198,30.441 18.09,29.795 17.671,29.178 17.62,29.011 17.499,28.869 16.971,27.688 16.378,26.671 15.553,25.468 15.457,25.16 15.291,24.922 15.121,24.358 14.538,23.702 14.486,23.565 14.391,23.516 13.61,22.387 12.664,21.43 12.597,21.268 12.354,21.02 11.482,19.47 11.456,19.37 11.397,19.301 11.025,18.467 10.299,17.597 9.024,16.412 8.937,16.213 8.774,16.129 8.003,15.059 7.804,14.447 7.65,14.147 7.579,13.508 7.189,12.476 7.172,12.379 7.143,12.338 6.88,11.462 6.414,10.929 5.584,10.085 5.444,9.744 5.084,9.149 4.905,8.281 4.865,7.894 V 7.861 L 4.874,7.356 4.84,7.239 4.271,6.816 4.213,6.701 3.828,6.338 3.545,5.896 3.431,5.777 3.058,5.609 2.934,5.501 2.793,5.458 1.92,4.856 1.872,4.764 1.741,4.714 1.075,4.109 0.954,3.837 0.76,3.727 0.104,2.649 0.018,2.346 -0.099,2.164 -0.267,1.487 -0.269,1.467 -0.289,1.459 -0.312,1.403 -0.372,1.369 -0.477,1.084 -0.594,1.004 -0.642,0.913 -0.765,0.862 -1.122,0 -0.765,-0.862 0.097,-1.219 Z"
       fill="rgb(0%, 0%, 0%)"
       fill-mode="evenodd" />
  </g>
  <g
     style="opacity:1;stop-opacity:1"
     id="g1057"
     transform="matrix(0.9921,0,0,0.9921,257.23273,132.28562)">
    <path
       inkscape:connector-curvature="0"
       id="path1055"
       d="m -1.091,-2.262 0.055,0.002 0.492,0.03 0.6,0.283 0.176,0.011 0.059,0.028 0.167,0.007 0.654,0.01 0.08,0.034 1.143,0.329 0.032,0.02 0.145,0.004 0.306,0.136 1.129,0.403 0.078,0.13 0.12,0.053 0.026,0.065 0.507,0.179 0.052,0.084 0.146,0.061 0.006,0.014 0.014,0.006 0.227,0.557 0.093,0.151 0.37,0.458 L 5.592,0.812 5.616,0.831 5.995,1.319 6.12,1.682 6.361,1.923 6.574,2.437 7.017,3.486 7.018,3.551 7.072,3.66 7.217,4.265 7.332,4.502 7.354,4.784 7.356,4.837 7.357,4.841 7.379,5.223 7.381,5.291 7.382,5.293 7.402,5.971 7.403,6.027 7.409,6.042 6.746,7.674 6.637,7.786 6.353,8.22 6.167,8.391 6.107,8.543 5.917,8.745 5.811,8.79 5.649,8.988 5.27,9.283 4.927,9.401 4.587,9.657 4.021,9.855 3.291,9.981 3.262,9.993 3.049,9.997 2.62,10.298 2.144,10.449 1.801,10.665 1.678,10.694 1.331,10.879 0.31,11.136 l -0.066,0.029 -0.77,0.016 -0.57,0.016 H -1.109 -1.11 l -0.678,0.017 -0.064,10e-4 -1.036,-0.231 -0.607,-0.283 -0.374,-0.33 -0.295,-0.12 L -4.571,9.855 -4.9,9.591 -5.529,9.153 -5.714,8.943 -5.861,8.882 -5.897,8.795 -6.045,8.676 -6.431,8.193 -6.925,6.79 -6.982,6.655 -6.989,6.072 v -0.003 0 L -6.996,5.388 V 5.36 5.36 4.385 L -6.818,3.814 -6.821,3.535 V 3.508 3.119 l 0.017,-0.041 0.001,-0.055 0.016,-0.394 0.084,-0.185 0.197,-0.791 0.211,-0.397 0.056,-0.059 0.02,-0.071 0.111,-0.177 0.02,-0.074 0.283,-0.279 0.076,-0.185 0.191,-0.079 0.297,-0.294 0.18,-0.102 0.029,-0.087 0.304,-0.389 0.785,-0.639 0.053,-0.012 0.031,-0.027 0.184,-0.083 0.052,-0.011 0.028,-0.022 0.072,-0.03 0.09,-0.217 0.166,-0.069 0.186,-0.218 1.229,-0.368 0.146,0.004 h 0.002 l 0.097,-0.019 0.438,-0.043 z"
       fill="rgb(0%, 0%, 0%)"
       fill-mode="evenodd" />
  </g>
  <g
     style="opacity:1;stop-opacity:1"
     id="g1065"
     transform="matrix(0.9921,0,0,0.9921,252.76823,155.848)">
    <path
       inkscape:connector-curvature="0"
       id="path1059"
       d="m 1.11,-1.441 0.108,0.146 0.123,0.051 0.109,0.263 0.346,0.468 0.224,0.657 0.087,0.518 0.019,0.04 0.022,0.55 0.023,0.053 0.02,0.679 L 2.192,2.047 2.024,2.666 2.033,3.159 2.047,3.525 2.048,3.606 1.953,4.223 1.671,5.119 1.426,5.459 1.407,5.649 1.414,6.41 1.415,6.432 1.15,7.452 0.829,8.029 0.422,9.025 l -0.24,0.723 -0.361,1.501 -0.191,1.107 -0.018,0.031 -0.015,0.12 -0.302,1.182 -0.018,0.028 -0.011,0.072 -0.47,1.483 -0.027,0.038 -0.015,0.077 -0.395,1.012 -0.326,1.594 -0.015,0.023 -0.01,0.078 -0.323,1.232 -0.164,1.325 -0.024,0.045 -0.029,0.228 -0.384,1.48 -0.021,0.033 -0.014,0.084 -0.365,1.121 0.007,1.194 v 0.015 1.072 l -0.083,0.604 -0.386,1.383 -0.018,0.027 -0.01,0.063 -0.355,1.066 -0.129,0.575 0.117,0.391 0.1,0.666 v 1.169 l -0.229,0.991 -0.292,0.601 -0.004,0.004 v 0.003 l -0.591,1.183 -0.129,0.14 -0.048,0.151 -0.139,0.195 -0.018,0.166 v 0.27 l -0.666,1.607 -0.274,0.275 -0.126,0.295 -0.359,0.428 -0.113,0.273 -0.107,0.045 -0.203,0.186 -0.042,0.051 -0.019,0.005 -0.132,0.121 -1.499,0.585 -1.566,-0.649 -0.649,-1.566 0.584,-1.498 0.041,-0.044 0.188,-0.44 0.37,-0.442 0.075,-0.18 0.07,-0.596 0.185,-0.353 0.221,-0.688 0.384,-0.538 0.511,-1.023 0.003,-0.004 0.001,-0.003 0.049,-0.097 V 31.03 l -0.193,-0.641 -0.099,-0.666 0.061,-0.52 0.302,-1.281 0.031,-0.048 0.021,-0.13 0.38,-1.142 0.292,-1.002 v -0.749 -0.014 l 0.01,-1.56 0.004,-0.009 0.115,-0.697 0.477,-1.403 0.343,-1.255 0.19,-1.331 0.035,-0.063 0.039,-0.263 0.4,-1.295 0.403,-1.687 0.07,-0.109 0.052,-0.246 0.48,-1.085 0.447,-1.277 0.242,-0.991 0.176,-1.095 0.013,-0.025 0.012,-0.1 0.384,-1.673 0.03,-0.048 0.022,-0.133 0.296,-0.892 0.037,-0.049 0.019,-0.094 0.5,-1.18 L -2.924,6.181 -2.888,6.049 -2.773,5.853 -2.77,5.533 -2.769,5.529 -2.755,5.3 -2.646,4.414 -2.539,4.213 -2.39,3.649 -2.071,3.321 -2.035,3.218 -2.033,3.158 -2.017,2.3 -1.96,2.168 -1.792,1.664 -1.781,1.302 -1.758,1.249 -1.746,0.964 -1.845,0.541 -1.897,0.097 -1.341,-1.244 0,-1.8 Z"
       fill="rgb(0%, 0%, 0%)"
       fill-mode="evenodd" />
    <g
       id="g1063"
       transform="translate(12.625,-0.875)">
      <path
         inkscape:connector-curvature="0"
         id="path1061"
         d="m 0.278,-1.939 0.198,0.026 0.011,-0.004 0.055,0.013 0.238,0.033 0.093,0.05 0.605,0.151 0.705,0.374 0.001,0.001 0.693,0.367 0.138,0.132 0.56,0.468 0.501,0.663 0.048,0.14 0.134,0.14 0.03,0.057 0.1,0.097 0.161,0.058 0.797,0.668 0.032,0.068 0.078,0.031 0.664,0.638 0.425,0.224 0.302,0.286 0.202,0.082 0.789,0.756 0.78,0.578 0.071,0.085 0.062,0.023 0.89,0.771 0.057,0.127 0.133,0.058 0.885,0.964 0.003,0.008 0.007,0.003 0.778,0.856 1.164,1.243 0.024,0.062 0.053,0.024 0.872,1.025 0.856,0.751 0.028,0.061 0.068,0.028 1.181,1.158 0.029,0.068 0.121,0.092 0.952,1.117 1.042,1.116 0.023,0.059 0.091,0.071 1.177,1.448 0.047,0.133 0.149,0.144 0.76,1.241 0.812,0.876 0.058,0.147 0.207,0.192 0.881,1.349 0.013,0.043 0.036,0.036 0.857,1.409 0.711,1.051 0.835,1.099 0.116,0.34 0.253,0.328 0.33,0.892 0.354,0.64 0.584,0.651 0.107,0.279 0.32,0.369 0.482,1.046 0.358,0.714 0.015,0.062 0.033,0.039 0.48,1.056 0.092,0.419 0.097,0.161 0.192,0.958 0.05,0.491 0.003,0.008 0.003,0.249 0.093,0.344 0.15,0.224 0.237,0.777 0.185,0.351 0.096,0.767 0.013,0.203 0.055,0.095 0.349,1.304 v 0.756 l 0.048,0.117 0.194,0.979 -0.012,0.249 -0.039,0.396 -0.518,1.026 -0.206,0.497 -0.056,0.023 -0.03,0.06 -1.692,0.654 -1.691,-0.654 -0.03,-0.059 -0.057,-0.024 -0.214,-0.515 -0.257,-0.512 -0.078,-0.092 -0.299,-0.66 -0.193,-0.885 -0.077,-0.187 v -0.477 l -0.04,-0.07 -0.35,-1.304 v 0 -0.026 l 0.005,-0.408 -0.044,-0.065 -0.136,-0.447 -0.215,-0.32 -0.288,-1.053 -0.095,-0.702 v -0.026 l 0.003,-0.315 -0.084,-0.418 -0.35,-0.769 -0.355,-0.709 -0.017,-0.07 -0.037,-0.043 -0.322,-0.719 -0.514,-0.584 -0.081,-0.214 -0.256,-0.269 -0.573,-1.061 -0.058,-0.228 -0.107,-0.141 -0.256,-0.718 -0.638,-0.861 -0.021,-0.064 -0.065,-0.06 -0.766,-1.165 -0.018,-0.06 -0.051,-0.05 L 17.807,22.172 17.075,21.017 16.252,20.093 16.184,19.916 15.96,19.693 15.18,18.368 14.178,17.095 13.174,15.98 13.157,15.936 13.093,15.886 12.202,14.792 11.166,13.735 10.246,12.886 10.204,12.788 10.015,12.639 9.093,11.509 7.979,10.284 7.967,10.254 7.942,10.243 7.174,9.36 v 0 L 6.4,8.483 5.676,7.823 4.861,7.159 4.801,7.031 4.657,6.97 4.002,6.287 3.574,6.024 3.3,5.738 3.136,5.668 2.327,4.827 1.75,4.3 1.432,4.092 v 0 0 L 1.416,4.082 0.698,3.302 0.676,3.217 0.627,3.161 0.428,2.728 0.323,2.571 0.044,2.401 0.043,2.4 -0.429,2.111 -0.541,2.081 -1.139,1.681 -1.454,1.551 -1.5,1.44 -1.626,1.356 -2.056,0.097 -1.454,-1.356 0,-1.958 Z"
         fill="rgb(0%, 0%, 0%)"
         fill-mode="evenodd" />
    </g>
  </g>
  <g
     style="opacity:1;stop-opacity:1"
     id="g1069"
     transform="matrix(0.9921,0,0,0.9921,286.99573,213.3898)">
    <path
       inkscape:connector-curvature="0"
       id="path1067"
       d="m 14.791,-4.502 0.006,0.015 0.014,0.006 0.232,0.558 0.494,1.135 0.01,0.421 0.024,0.055 0.011,0.386 10e-4,0.074 v 0.488 L 15.33,-0.264 15.038,0.34 15.037,0.341 14.855,0.723 14.687,0.911 14.571,1.489 14.226,2.06 14.045,2.555 V 2.826 L 13.787,3.944 13.493,4.546 13.49,4.55 13.489,4.552 13.393,4.746 13.348,5.104 13.215,5.355 13.033,6.041 12.636,6.736 12.473,6.9 12.42,7.051 12.247,7.268 12.217,7.338 12.173,7.622 12.062,7.819 11.935,8.355 11.801,8.624 11.766,8.98 11.718,9.22 v 0.233 l -0.337,1.269 -0.343,0.6 -0.194,0.469 -0.007,0.043 -0.004,0.203 -0.016,0.039 -0.166,0.858 -0.03,0.077 -0.005,0.202 v 0.001 0.015 l -0.017,0.588 -0.083,0.187 -0.039,0.385 -0.287,0.561 -0.17,0.538 -0.224,0.32 -0.009,0.021 -0.009,0.004 -0.089,0.126 -0.202,0.178 -0.05,0.121 -0.168,0.07 -0.391,0.343 -1.082,0.267 -1.64,-0.68 -0.679,-1.64 0.16,-0.672 L 5.578,13.813 5.562,13.233 5.561,13.211 V 13.21 L 5.546,12.531 V 12.492 L 5.538,12.474 5.721,11.527 5.735,11.492 5.761,11.177 5.86,10.577 6.301,9.805 6.55,8.866 6.626,8.733 6.653,8.464 6.701,8.224 v -0.233 0 L 6.971,6.847 7.194,6.4 7.235,6.167 7.317,6.026 7.4,5.622 7.699,4.923 7.949,4.625 8.045,4.351 8.311,4.019 8.349,3.952 8.384,3.666 8.486,3.474 8.633,2.854 8.932,2.255 8.935,2.252 V 2.249 L 8.954,2.213 V 1.657 L 9.289,0.761 8.998,0.837 8.769,0.966 8.199,1.062 8.019,1.077 7.516,1.509 7.124,1.604 6.943,1.716 6.082,1.908 5.555,1.967 v 0 H 5.502 L 5.138,1.959 H 4.426 L 4.178,1.988 3.961,2.094 2.924,2.336 2.861,2.335 2.37,2.322 v 0 L 2.3,2.32 2.272,2.33 1.462,2.478 1.385,2.477 0.991,2.464 v 0 L 0.602,2.45 0.566,2.434 0.022,2.353 -0.672,2.141 -1.266,1.719 -1.587,1.587 -1.642,1.452 -1.8,1.34 -2.244,0 -1.587,-1.587 0,-2.244 0.576,-2.168 0.94,-2.072 H 0.954 L 1.028,-2.104 1.776,-2.26 1.887,-2.309 2.329,-2.321 2.427,-2.371 3.011,-2.514 3.2,-2.615 3.967,-2.716 4.288,-2.738 H 5.11 l 0.087,-0.076 0.051,-0.124 0.171,-0.07 0.399,-0.35 1.101,-0.272 h 0.674 l 0.506,-0.281 0.878,-0.23 0.264,-0.151 1.187,-0.318 h 0.211 l 0.437,-0.254 1.057,-0.193 0.42,-0.039 0.019,-0.007 h 0.232 l 0.255,-0.104 z"
       fill="rgb(0%, 0%, 0%)"
       fill-mode="evenodd" />
  </g>
  <g
     style="opacity:1;stop-opacity:1"
     id="g1077"
     transform="matrix(0.9921,0,0,0.9921,241.23503,62.590597)">
    <path
       inkscape:connector-curvature="0"
       id="path1071"
       d="M 0.846,-0.846 1.197,0 1.122,0.167 1.547,0.411 2.258,0.61 l 0.61,0.142 0.1,0.011 1.283,0.282 0.246,0.154 0.396,0.116 0.349,0.223 0.806,0.239 0.687,0.066 0.167,0.084 0.607,0.153 0.531,0.285 0.392,0.045 0.299,0.156 0.642,0.2 0.811,0.56 0.654,0.284 0.93,0.352 0.873,0.066 0.522,0.253 0.706,0.265 0.615,0.539 0.858,0.35 0.123,0.1 0.164,0.046 1.077,0.654 1.168,0.405 0.115,0.086 0.183,0.046 0.895,0.48 0.01,0.01 0.012,0.003 1.363,0.762 1.056,0.559 0.05,0.047 0.061,0.017 1.071,0.659 1.162,0.415 0.153,0.117 0.218,0.059 1.341,0.798 1.242,0.533 0.252,0.211 0.235,0.082 0.771,0.611 1.041,0.479 0.383,0.335 0.232,0.095 0.913,0.903 1.178,0.756 0.043,0.047 0.045,0.015 1.082,0.779 0.043,0.049 0.04,0.014 0.979,0.783 0.004,0.008 0.011,0.004 1.075,0.88 10e-4,0.001 1.071,0.877 0.11,0.232 0.224,0.108 0.608,0.77 0.466,0.466 0.772,0.316 0.279,0.228 0.257,0.091 0.721,0.577 0.888,0.362 0.119,0.097 0.162,0.044 0.988,0.585 0.184,0.187 0.147,0.055 0.825,0.726 0.713,0.549 0.87,0.515 0.038,0.039 0.043,0.013 0.889,0.585 0.064,0.07 0.063,0.021 0.7,0.539 0.534,0.262 0.837,0.36 0.146,0.123 0.179,0.053 0.311,0.36 0.355,0.3 0.052,0.172 0.057,0.065 0.864,0.53 0.14,0.064 0.131,0.153 0.121,0.096 0.239,0.07 0.542,0.352 0.448,0.259 0.179,0.18 0.153,0.056 0.689,0.583 0.036,0.076 0.087,0.035 0.191,0.188 0.382,0.127 0.594,0.438 0.324,0.134 0.03,0.072 0.174,0.184 0.041,0.03 0.006,0.02 0.248,0.263 0.641,1.61 -0.687,1.656 -1.657,0.687 -1.608,-0.64 -0.071,-0.067 -0.166,-0.055 -0.121,-0.09 -0.204,-0.049 -0.4,-0.207 -0.378,-0.353 -0.22,-0.092 -0.413,-0.424 -0.462,-0.4 L 48.347,32.31 48.31,32.27 48.269,32.258 47.888,31.997 47.609,31.88 47.556,31.836 47.512,31.826 47.039,31.45 46.874,31.382 46.835,31.288 46.756,31.225 46.622,31.194 46.326,31.004 45.887,30.872 45.622,30.555 45.357,30.386 45.268,30.13 45.042,29.86 45.013,29.793 44.933,29.757 44.904,29.731 44.861,29.721 44.072,29.32 43.884,29.146 43.707,29.085 42.898,28.449 42.136,27.935 41.205,27.37 41.094,27.256 40.989,27.22 40.111,26.53 40.052,26.457 40.003,26.438 39.286,25.794 38.632,25.397 37.603,24.96 37.337,24.739 37.093,24.653 36.36,24.067 35.464,23.688 35.024,23.321 34.769,23.216 33.892,22.339 33.854,22.246 33.699,22.117 33.18,21.441 32.305,20.725 32.304,20.724 31.242,19.855 30.316,19.114 29.34,18.398 28.026,17.554 27.801,17.313 27.656,17.252 26.873,16.459 25.956,16.037 25.72,15.83 25.507,15.755 24.773,15.162 23.675,14.692 23.563,14.599 23.416,14.558 22.146,13.79 20.977,13.373 20.808,13.244 20.578,13.179 19.344,12.42 18.313,11.842 18.303,11.832 18.291,11.829 16.924,11.031 16.923,11.03 16.235,10.635 15.033,10.194 14.87,10.068 14.653,10.006 13.531,9.306 12.506,8.871 12.172,8.592 11.926,8.498 11.579,8.185 11.105,8.142 11.014,8.097 10.537,8.007 9.258,7.508 9.225,7.481 9.169,7.469 8.282,7.067 8.123,6.929 7.949,6.874 7.397,6.482 7.115,6.444 6.907,6.331 6.373,6.189 5.861,5.896 5.385,5.836 5.32,5.801 5.029,5.756 3.752,5.35 3.513,5.177 3.223,5.086 2.957,4.902 2.049,4.683 2.014,4.661 1.227,4.451 1.205,4.436 1.15,4.428 0.167,4.115 -0.053,3.955 -0.329,3.87 -0.968,3.435 -1.276,3.288 -2.007,2.979 -2.373,2.673 -2.585,2.585 -2.624,2.492 -3.036,2.132 -3.061,2.076 -3.123,2.051 -3.649,0.78 l 0.526,-1.271 1.271,-0.527 0.522,0.182 0.136,0.008 0.707,-0.282 0.096,0.04 L 0,-1.197 Z"
       fill="rgb(0%, 0%, 0%)"
       fill-mode="evenodd" />
    <g
       id="g1075"
       transform="translate(74.25,38.625)">
      <path
         inkscape:connector-curvature="0"
         id="path1073"
         d="m 0.118,-2.626 0.78,0.007 0.875,0.006 0.033,0.014 h 0.002 l 0.295,0.007 0.033,0.014 0.685,0.114 0.892,0.303 0.2,0.15 0.369,0.058 0.329,0.185 0.604,0.183 0.552,0.367 0.383,0.236 0.14,0.074 0.358,0.341 0.209,0.088 0.353,0.362 0.25,0.188 0.183,0.218 0.115,0.05 0.188,0.199 0.067,0.169 0.235,0.231 0.286,0.477 0.34,1.216 L 8.868,2.646 8.867,2.715 8.853,3.108 8.838,3.142 8.825,3.497 8.811,3.528 8.801,3.872 8.581,4.37 8.296,5.193 8.147,5.382 8.136,5.407 8.122,5.413 8.118,5.418 8.112,5.431 8.106,5.433 7.999,5.569 7.414,6.331 7.355,6.38 7.242,6.539 7.209,6.567 7.2,6.596 7.096,6.666 6.476,7.206 6.193,7.276 6.043,7.377 5.655,7.485 5.459,7.605 5.304,7.798 5.182,7.856 4.913,8.175 4.529,8.464 4.401,8.507 4.274,8.629 3.739,8.927 3.406,9.315 3.192,9.413 2.564,9.917 2.422,9.974 1.925,10.409 1.853,10.436 1.769,10.534 1.677,10.6 l 0.18,0.496 0.266,0.49 0.096,0.671 0.023,0.315 v 0.594 l 0.158,0.188 0.045,0.188 0.077,0.105 0.288,0.862 0.115,0.694 v 0 l -0.296,1.086 -0.262,0.259 -0.071,0.172 -0.176,0.073 -0.276,0.272 -0.36,0.206 -0.296,0.345 -0.037,0.114 -0.265,0.194 -0.334,0.365 -0.27,0.077 -0.188,0.139 -0.313,0.104 -0.338,0.225 -1.197,0.365 v 0 H -3.216 L -4.54,18.742 -4.737,18.588 -4.983,18.506 -5.177,18.362 -5.44,18.286 -5.745,18.093 -5.761,18.076 -5.778,18.071 -6.37,17.676 -6.66,17.358 -6.961,17.083 -7.151,16.798 -7.329,16.214 -7.498,15.933 -7.799,14.856 -7.817,14.813 v -0.487 l 0.121,-0.293 0.171,-0.413 v -0.464 l 0.307,-0.741 0.063,-0.306 0.298,-0.696 0.056,-0.068 0.025,-0.099 0.703,-0.768 v 0 l 0.001,-10e-4 v 0 L -5.496,10.093 -5.453,10.08 -5.865,9.943 -6.034,9.818 -6.279,9.75 -6.776,9.452 -6.795,9.433 -6.818,9.426 -6.972,9.251 -7.427,8.785 -7.625,8.669 -7.656,8.637 -7.663,8.636 -7.714,8.579 -7.883,8.408 -8.048,8.34 -8.117,8.172 -8.387,7.899 -8.41,7.813 -8.442,7.778 -8.631,7.4 -8.863,6.432 -8.846,6.391 -8.63,5.479 -8.43,5.077 -8.121,4.739 -8.036,4.535 -7.646,4.145 -7.515,4.091 -7.322,3.879 -7.205,3.801 -7.159,3.756 -7.1,3.731 -7.09,3.724 -7.063,3.665 -6.961,3.575 -6.6,3.032 -6.527,2.965 -6.505,2.901 -6.342,2.797 -5.985,2.471 -5.869,2.348 -5.807,2.183 -5.613,2.078 -5.336,1.787 -5.213,1.752 -5.154,1.584 -4.977,1.474 -4.872,1.298 -4.661,1.222 -4.693,1.169 -4.706,0.908 -4.673,1.017 -4.642,0.943 -4.71,0.78 l 0.208,-0.971 0.184,-0.412 0.313,-0.364 0.125,-0.31 0.024,-0.011 0.01,-0.024 0.214,-0.089 0.18,-0.209 0.524,-0.156 0.068,-0.053 0.898,-0.309 0.01,-0.007 0.429,-0.144 0.159,-0.055 h 0.004 l 0.873,-0.292 h 0.584 z m -2.515,16.019 -0.195,0.06 -0.161,0.134 -0.398,0.17 -0.03,0.071 -0.014,0.017 v 0.188 l -0.185,0.447 0.005,0.003 0.016,0.018 0.017,0.005 0.031,0.022 0.303,0.101 0.347,0.256 0.069,0.024 h 0.188 l 0.037,-0.024 0.293,-0.09 0.08,-0.058 0.09,-0.105 -0.144,-0.599 V 13.16 Z M 0.896,2.229 v 0 L 0.119,2.236 h -0.01 l -0.198,0.15 -0.206,0.256 -0.14,0.067 -0.372,0.373 -0.066,0.038 -0.229,0.229 -0.164,0.482 -0.182,0.122 -0.097,0.172 -0.357,0.132 -0.14,0.094 -0.121,0.336 -0.147,0.087 -0.078,0.144 -0.437,0.164 -0.045,0.149 -0.195,0.162 -0.063,0.153 -0.17,0.07 -0.251,0.43 -0.08,0.078 0.333,0.11 0.774,0.572 0.228,0.052 0.537,0.095 0.193,0.112 0.443,0.113 0.049,0.044 L -0.897,7.087 -0.171,6.451 0.107,6.346 0.437,6.082 0.687,5.79 0.867,5.708 1.28,5.306 2.029,4.89 2.077,4.854 2.297,4.579 2.447,4.507 2.823,4.108 3.589,3.618 3.924,3.52 3.987,3.476 4.068,3.366 4.01,3.342 3.778,3.117 3.773,3.115 3.272,2.822 3.222,2.772 3.166,2.755 3.045,2.674 2.902,2.656 2.608,2.499 1.935,2.303 1.895,2.278 1.727,2.223 Z"
         fill="rgb(0%, 0%, 0%)"
         fill-mode="evenodd" />
    </g>
  </g>
  <g
     style="opacity:1;stop-opacity:1"
     id="g1081"
     transform="matrix(0.9921,0,0,0.9921,241.97913,207.06516)">
    <path
       inkscape:connector-curvature="0"
       id="path1079"
       d="m 0.836,-1.128 0.126,0.302 0.041,0.018 0.021,0.051 0.054,0.029 L 1.5,0.39 1.351,0.783 1.134,1.536 0.905,1.741 0.836,1.908 0.618,1.998 0.26,2.319 -0.197,2.543 -0.489,2.612 -0.629,2.703 -0.91,2.774 -0.915,2.788 -1.014,2.829 -1.054,2.916 -1.527,3.316 -1.759,3.402 -1.835,3.693 -2.226,4.389 -2.629,4.8 -2.716,4.993 -2.97,5.218 -2.984,5.243 -3.174,5.881 -3.453,6.309 -3.56,6.549 v 0.078 l -0.205,0.968 -0.344,0.776 -0.151,0.454 -0.264,0.881 -0.183,0.732 -0.102,0.157 -0.075,0.314 -0.298,0.599 -0.161,0.175 -0.058,0.175 -0.589,0.786 -0.089,0.075 -0.024,0.064 -0.767,0.87 -0.421,0.492 -0.089,0.547 -0.208,0.627 h 0.279 l 0.158,0.066 0.868,0.017 v 0 h 0.003 l 0.588,0.013 0.074,0.033 0.574,0.086 0.356,0.109 0.539,0.009 0.012,0.005 0.413,0.041 0.502,0.1 0.87,0.524 0.359,0.153 0.287,0.297 0.332,0.823 0.254,0.216 0.257,0.107 0.072,0.175 0.232,0.199 0.387,1.296 v 0 l -0.411,1.333 -0.21,0.168 -0.07,0.17 -0.012,0.004 -0.281,0.678 -0.112,0.046 -0.046,0.098 -0.017,0.014 0.005,0.378 v 0.035 l -0.091,0.653 -0.199,0.699 -0.182,0.263 -0.108,0.365 -0.389,0.598 -0.235,0.216 -0.023,0.029 -0.095,0.401 -0.374,0.444 -0.067,0.162 -0.106,0.044 -0.149,0.178 -0.343,0.257 -0.532,0.444 -0.366,0.132 -0.411,0.301 -0.181,0.061 -0.15,0.12 -0.511,0.179 -0.466,0.29 -0.861,0.192 -0.534,0.06 v 0 h -1.559 v 0 l -1.067,-0.252 -0.403,-0.201 -0.044,-0.041 -0.059,-0.015 -0.528,-0.301 -0.338,-0.131 -0.063,-0.05 -0.107,-0.025 -0.817,-0.655 -0.386,-0.483 -0.528,-1.498 v 0 l 0.183,-0.765 -0.183,-0.599 v 0 -0.682 l 0.39,-1.287 -0.131,-0.262 -0.259,-1.083 v 0 -0.487 l 0.259,-1.083 0.29,-0.345 -0.159,-0.521 v -1.559 0 l 0.206,-0.971 0.396,-0.892 0.251,-0.294 0.091,-0.251 0.198,-0.237 0.027,-0.083 v -0.293 l 0.524,-1.494 0.394,-0.492 0.038,-0.03 0.01,-0.027 0.587,-0.686 0.023,-0.01 0.011,-0.028 0.713,-0.795 0.393,-0.523 0.079,-0.159 0.135,-0.542 0.016,-0.024 0.01,-0.066 0.297,-0.992 0.011,-0.016 0.006,-0.036 0.2,-0.601 L -8.541,6.664 -8.514,6.535 -8.33,6.12 V 6.042 l 0.206,-0.968 0.396,-0.893 0.142,-0.166 0.059,-0.191 0.085,-0.125 0.022,-0.15 0.791,-1.445 0.004,-0.002 0.001,-0.003 0.484,-0.418 0.031,-0.054 0.123,-0.479 0.348,-0.525 0.1,-0.292 0.088,-0.058 0.077,-0.188 0.125,-0.052 0.093,-0.141 0.586,-0.201 0.276,-0.183 0.246,-0.064 0.128,-0.097 0.155,-0.052 0.401,-0.295 0.528,-0.174 0.375,-0.221 0.756,-0.144 0.359,-0.114 0.663,-0.104 z m -7.113,21.394 h -0.008 v 0 l -0.866,0.018 -0.158,0.065 h -1.044 l -0.188,0.224 0.114,0.477 v 1.267 0 l -0.281,0.929 0.178,0.584 h 0.569 l 0.082,-0.018 0.05,-0.04 0.364,-0.128 0.376,-0.276 0.123,-0.041 0.047,-0.206 0.398,-0.496 0.059,-0.143 0.084,-0.034 0.113,-0.142 0.189,-0.151 0.003,-0.245 v -0.47 l 0.001,-0.045 0.007,-0.392 0.296,-0.685 -0.222,-0.059 z"
       fill="rgb(0%, 0%, 0%)"
       fill-mode="evenodd" />
  </g>
</svg>
